<?xml version="1.0" encoding="UTF-8"?>
<svg width="18px" height="20px" viewBox="0 0 18 20" version="1.1" xmlns="http://www.w3.org/2000/svg" xmlns:xlink="http://www.w3.org/1999/xlink">
    <!-- Generator: Sketch 51.1 (57501) - http://www.bohemiancoding.com/sketch -->
    <title>Delete</title>
    <desc>Created with Sketch.</desc>
    <defs></defs>
    <g id="Version-1" stroke="none" stroke-width="1" fill="none" fill-rule="evenodd" stroke-linecap="round" stroke-linejoin="round">
        <g id="Manage-candidates/Archived-Candidates" transform="translate(-19.000000, -335.000000)" stroke="#FFFFFF" stroke-width="1.5">
            <g id="Filter-Side" transform="translate(0.000000, 70.000000)">
                <g id="Row-Copy-5" transform="translate(0.000000, 250.000000)">
                    <g id="Delete" transform="translate(20.000000, 16.000000)">
                        <polyline id="Shape" points="0 3.6 1.8 3.6 16.2 3.6"></polyline>
                        <path d="M14.4,3.6 L14.4,16.2 C14.4,17.1941125 13.5941125,18 12.6,18 L3.6,18 C2.60588745,18 1.8,17.1941125 1.8,16.2 L1.8,3.6 M4.5,3.6 L4.5,1.8 C4.5,0.80588745 5.30588745,0 6.3,0 L9.9,0 C10.8941125,0 11.7,0.80588745 11.7,1.8 L11.7,3.6" id="Shape"></path>
                        <path d="M6.3,8.1 L6.3,13.5" id="Shape"></path>
                        <path d="M9.9,8.1 L9.9,13.5" id="Shape"></path>
                    </g>
                </g>
            </g>
        </g>
    </g>
</svg>