<svg xmlns="http://www.w3.org/2000/svg" width="22" height="22" viewBox="0 0 22 22">
    <g fill="#000" fill-rule="nonzero">
        <path d="M8.007 17.674c-.213.053-.306.186-.28.4.027.212.147.283.36.212.212-.07.305-.195.279-.373-.027-.195-.146-.275-.36-.24zM7.196 17.789c-.21 0-.314.104-.314.315 0 .25.111.354.333.316.21 0 .314-.105.314-.316 0-.248-.111-.354-.333-.315zM5.999 17.834c-.052.19.033.319.253.388.195.103.318.051.37-.155.039-.19-.045-.327-.253-.413-.195-.07-.318-.01-.37.18z"/>
        <path d="M20.768 1.209C19.962.403 18.99 0 17.856 0H4.121C2.986 0 2.015.403 1.209 1.209S0 2.986 0 4.12v13.735c0 1.135.403 2.106 1.209 2.912s1.777 1.209 2.912 1.209h3.205c.21 0 .367-.007.472-.021a.554.554 0 0 0 .314-.187c.105-.11.158-.27.158-.479l-.008-.973c-.004-.62-.007-1.111-.007-1.474l-.329.057c-.21.039-.474.055-.794.05a6.11 6.11 0 0 1-.994-.1 2.23 2.23 0 0 1-.959-.429 1.816 1.816 0 0 1-.63-.88l-.143-.329a3.574 3.574 0 0 0-.45-.73c-.205-.266-.413-.448-.623-.543l-.1-.072a1.052 1.052 0 0 1-.186-.172.795.795 0 0 1-.128-.2c-.029-.067-.005-.122.071-.165.077-.043.215-.064.415-.064l.286.043c.191.038.427.153.708.343.282.191.513.44.694.744.22.391.484.69.794.894.31.206.623.308.938.308.314 0 .586-.024.815-.071.229-.048.443-.12.644-.215.086-.639.32-1.13.7-1.474a9.798 9.798 0 0 1-1.466-.257 5.845 5.845 0 0 1-1.345-.558 3.85 3.85 0 0 1-1.151-.96c-.306-.38-.556-.882-.751-1.501-.196-.62-.294-1.336-.294-2.147 0-1.154.377-2.136 1.13-2.947-.352-.868-.319-1.841.1-2.919.277-.086.688-.021 1.231.193.544.215.942.399 1.195.551.253.153.455.281.608.387a10.156 10.156 0 0 1 2.747-.372c.944 0 1.86.123 2.748.372l.543-.344c.372-.229.811-.439 1.317-.63.505-.19.891-.243 1.159-.157.429 1.078.467 2.051.114 2.919.753.81 1.13 1.793 1.13 2.947 0 .811-.097 1.53-.293 2.154-.195.624-.448 1.125-.758 1.502s-.696.694-1.159.952a5.837 5.837 0 0 1-1.345.558 9.79 9.79 0 0 1-1.466.257c.495.43.743 1.107.743 2.032v3.42a.92.92 0 0 0 .072.393c.048.1.124.17.229.208.105.038.198.061.279.071.081.01.198.014.35.014h3.205c1.135 0 2.106-.403 2.912-1.209s1.209-1.776 1.209-2.911V4.12c0-1.135-.403-2.106-1.21-2.912z"/>
        <path d="M4.388 16.026c-.125.088-.107.23.054.426.179.178.321.204.429.08.125-.089.107-.23-.054-.427-.179-.16-.322-.186-.43-.08z"/>
        <path d="M3.889 15.711c-.06.176.01.326.211.45.162.126.293.102.394-.074.06-.175-.01-.326-.212-.451-.202-.075-.333-.05-.393.075zM4.84 16.573c-.149.073-.149.206 0 .397.15.191.29.242.424.154.15-.103.15-.242 0-.419-.133-.19-.274-.235-.423-.132zM5.319 17.227c-.126.116-.098.253.083.414.168.174.308.196.42.065.111-.116.083-.254-.085-.414-.167-.174-.307-.196-.418-.065z"/>
    </g>
</svg>
