<svg xmlns="http://www.w3.org/2000/svg" width="22" height="22" viewBox="0 0 22 22">
    <path fill="#0077B7" fill-rule="nonzero" d="M20.01 0H1.99C.891 0 0 .891 0 1.99v18.02C0 21.109.891 22 1.99 22h18.02c1.099 0 1.99-.891 1.99-1.99V1.99C22 .891 21.109 0 20.01 0zM6.808 18.996c0 .32-.26.58-.58.58H3.764a.58.58 0 0 1-.579-.58V8.662c0-.32.26-.58.58-.58h2.465c.32 0 .579.26.579.58v10.334zM4.996 7.11a2.342 2.342 0 1 1 0-4.684 2.342 2.342 0 0 1 0 4.684zm14.695 11.934a.533.533 0 0 1-.532.532h-2.646a.533.533 0 0 1-.532-.532v-4.847c0-.724.212-3.17-1.89-3.17-1.63 0-1.961 1.675-2.027 2.426v5.59a.532.532 0 0 1-.533.533H8.972a.533.533 0 0 1-.532-.532V8.615c0-.294.238-.532.532-.532h2.56c.293 0 .532.238.532.532v.902c.604-.907 1.503-1.608 3.415-1.608 4.236 0 4.212 3.958 4.212 6.132v5.002z"/>
</svg>
