<svg xmlns="http://www.w3.org/2000/svg" width="28" height="22" viewBox="0 0 28 22">
    <path fill="#03A9F4" fill-rule="nonzero" d="M27.5 2.604a11.898 11.898 0 0 1-3.248.877 5.536 5.536 0 0 0 2.48-3.068 11.374 11.374 0 0 1-3.575 1.344A5.691 5.691 0 0 0 19.039 0c-3.122 0-5.634 2.494-5.634 5.552 0 .44.037.864.13 1.266a16.041 16.041 0 0 1-11.62-5.806 5.523 5.523 0 0 0-.772 2.806c0 1.922 1.005 3.626 2.504 4.613A5.634 5.634 0 0 1 1.1 7.747v.061c0 2.698 1.954 4.938 4.517 5.455a5.71 5.71 0 0 1-1.478.182c-.361 0-.726-.02-1.068-.094a5.68 5.68 0 0 0 5.268 3.867 11.441 11.441 0 0 1-6.99 2.367c-.462 0-.906-.02-1.349-.076C2.497 21.095 5.457 22 8.649 22c10.374 0 16.046-8.462 16.046-15.796 0-.245-.009-.482-.02-.718A11.153 11.153 0 0 0 27.5 2.604z"/>
</svg>
