<?xml version="1.0" encoding="UTF-8"?>
<svg width="23px" height="21px" viewBox="0 0 23 21" version="1.1" xmlns="http://www.w3.org/2000/svg" xmlns:xlink="http://www.w3.org/1999/xlink">
    <!-- Generator: Sketch 50.2 (55047) - http://www.bohemiancoding.com/sketch -->
    <title>binoculars</title>
    <desc>Created with Sketch.</desc>
    <defs></defs>
    <g id="Icons" stroke="none" stroke-width="1" fill="none" fill-rule="evenodd">
        <g id="binoculars" fill="#5E6C84" fill-rule="nonzero">
            <path d="M22.190525,14.2774625 C22.1904375,14.2771125 22.1903062,14.2767625 22.1902187,14.2764562 L19.61785,5.45825 C19.3840937,4.656925 18.8878812,3.93588125 18.2206937,3.42794375 C18.1568625,3.3793375 18.0914563,3.333575 18.0253937,3.28925625 L17.7405812,2.03975625 C17.4668375,0.838775 16.4143875,0 15.18125,0 C13.733825,0 12.55625,1.177575 12.55625,2.625 L12.55625,4.3885625 C12.3414375,4.7117 12.1731312,5.06821875 12.0607375,5.4485375 C11.8005562,5.3214875 11.508525,5.25 11.2,5.25 C10.9057813,5.25 10.6267,5.31531875 10.37575,5.43151875 C10.26515,5.06856875 10.1009562,4.72338125 9.8875,4.4048375 L9.8875,2.625 C9.8875,1.16449375 8.6608375,0 7.21875,0 C5.9856125,0 4.9331625,0.838775 4.659375,2.03975625 L4.3745625,3.2892125 C4.3085,3.33353125 4.2431375,3.37929375 4.1792625,3.4279 C3.512075,3.9358375 3.0158625,4.65688125 2.78215,5.4581625 L0.21004375,14.2755812 C0.20986875,14.2762375 0.20960625,14.2768937 0.20943125,14.27755 C0.0704375,14.7541187 0,15.2495 0,15.75 C0,18.64485 2.35515,21 5.25,21 C8.169,21 10.54375,18.64485 10.54375,15.75 L10.54375,15.637125 C10.7491562,15.7099688 10.9699187,15.75 11.2,15.75 C11.4464875,15.75 11.6823437,15.7040625 11.9,15.6209375 L11.9,15.75 C11.9,18.64485 14.25515,21 17.15,21 C20.04485,21 22.4,18.64485 22.4,15.75 C22.4,15.2495 22.3295625,14.7541187 22.190525,14.2774625 Z M5.9390625,2.3314375 C6.0736375,1.74103125 6.61185,1.3125 7.21875,1.3125 C7.953925,1.3125 8.575,1.9135375 8.575,2.625 L8.575,3.16964375 C7.9692375,2.81474375 7.2792125,2.625 6.5625,2.625 C6.32349375,2.625 6.08811875,2.64674375 5.857775,2.68813125 L5.9390625,2.3314375 Z M5.25,19.6875 C3.0788625,19.6875 1.3125,17.9211375 1.3125,15.75 C1.3125,15.2266187 1.41448125,14.7146125 1.61363125,14.2366437 C2.2273125,12.7640625 3.6547,11.8125 5.25,11.8125 C7.4452875,11.8125 9.23125,13.5788625 9.23125,15.75 C9.23125,17.9211375 7.4452875,19.6875 5.25,19.6875 Z M9.23125,12.29375 C8.293425,11.2325937 6.93240625,10.5482562 5.4121375,10.5026687 L6.56193125,6.5610125 C6.6633875,6.21306875 6.463625,5.8487625 6.11568125,5.7472625 C5.768,5.64580625 5.40343125,5.845525 5.30193125,6.1935125 L4.0019875,10.6498875 C3.44505,10.7852938 2.9189125,11.009775 2.44195,11.3113437 L4.04219375,5.82575 C4.36646875,4.713975 5.4028625,3.9375 6.5625,3.9375 C8.034075,3.9375 9.23125,5.115075 9.23125,6.5625 L9.23125,12.29375 Z M11.2,14.4375 C10.8381437,14.4375 10.54375,14.1431063 10.54375,13.78125 C10.54375,13.4193937 10.8381438,13.125 11.2,13.125 C11.5618562,13.125 11.85625,13.4193937 11.85625,13.78125 C11.85625,14.1431063 11.5618562,14.4375 11.2,14.4375 Z M11.85625,11.9415625 C11.6385937,11.8584812 11.4464875,11.8125 11.2,11.8125 C10.9699187,11.8125 10.7491562,11.8525312 10.54375,11.925375 L10.54375,7.21875 C10.54375,6.85689375 10.8381438,6.5625 11.2,6.5625 C11.5013062,6.5625 11.7558,6.76659375 11.8325812,7.04375 C11.8365625,7.05814375 11.85625,7.21875 11.85625,7.21875 L11.85625,11.9415625 Z M13.86875,2.625 C13.86875,1.9012875 14.4575375,1.3125 15.18125,1.3125 C15.78815,1.3125 16.3263625,1.74103125 16.4609375,2.3314375 L16.542225,2.68813125 C16.3118813,2.64674375 16.0765063,2.625 15.8375,2.625 C15.1207875,2.625 14.4482625,2.8175875 13.86875,3.1535875 L13.86875,2.625 Z M13.2124563,6.5625 L13.2125,6.5625 C13.2125,5.115075 14.390075,3.9375 15.8375,3.9375 C16.9971375,3.9375 18.0335312,4.713975 18.35785,5.82575 L19.95805,11.3113438 C19.4810875,11.009775 18.95495,10.7852938 18.3980125,10.6498875 L17.0980687,6.1935125 C16.9966125,5.84556875 16.6323062,5.6457625 16.2843188,5.7472625 C15.936375,5.8487625 15.7365687,6.21306875 15.8380687,6.5610125 L16.9878625,10.5027125 C15.4864937,10.548475 14.1418813,11.2276938 13.2124562,12.2815438 L13.2124562,6.5625 Z M17.15,19.6875 C14.9788625,19.6875 13.2125,17.9211375 13.2125,15.75 C13.2125,13.5788625 14.9788625,11.8125 17.15,11.8125 C18.7453437,11.8125 20.1727312,12.7640188 20.7863688,14.2366437 C20.8417125,14.3694687 20.8902312,14.5068875 20.930525,14.6450062 C21.0346937,15.0021375 21.0875,15.373925 21.0875,15.75 C21.0875,17.9211375 19.3211375,19.6875 17.15,19.6875 Z" id="Shape"></path>
        </g>
    </g>
</svg>