<?xml version="1.0" encoding="UTF-8"?>
<svg width="18px" height="18px" viewBox="0 0 18 18" version="1.1" xmlns="http://www.w3.org/2000/svg" xmlns:xlink="http://www.w3.org/1999/xlink">
    <!-- Generator: Sketch 50.2 (55047) - http://www.bohemiancoding.com/sketch -->
    <title>Github</title>
    <desc>Created with Sketch.</desc>
    <defs></defs>
    <g id="Github" stroke="none" stroke-width="1" fill="none" fill-rule="evenodd">
        <g id="github" fill="#000000" fill-rule="nonzero">
            <path d="M6.53817177,14.4601161 C6.37359279,14.5010448 6.30169407,14.6041592 6.32231367,14.7685945 C6.34282532,14.933102 6.43528967,14.9880819 6.59965273,14.933102 C6.76423171,14.8783382 6.83607646,14.7821414 6.81540288,14.6450879 C6.79499919,14.4943434 6.70253484,14.432518 6.53817177,14.4601161 Z" id="Shape"></path>
            <path d="M5.87322848,14.5539149 C5.71160267,14.5539149 5.63084282,14.6348662 5.63084282,14.798013 C5.63084282,14.9903987 5.71674965,15.0715832 5.88835105,15.0420333 C6.04997686,15.0420333 6.13084282,14.9606154 6.13084282,14.798013 C6.13084282,14.6058606 6.044936,14.5241317 5.87322848,14.5539149 Z" id="Shape"></path>
            <path d="M4.9075983,14.5822124 C4.86754527,14.72862 4.93278955,14.8281352 5.10317302,14.8815967 C5.25363537,14.9610551 5.34897212,14.921291 5.38902514,14.761815 C5.41917032,14.615687 5.35392604,14.5095328 5.19345043,14.4425836 C5.04293537,14.3895414 4.94770403,14.4354554 4.9075983,14.5822124 Z" id="Shape"></path>
            <path d="M16.991754,0.98909795 C16.3322733,0.329740319 15.5383872,0 14.6094806,0 L3.3714123,0 C2.44279271,0 1.64861959,0.329740319 0.98909795,0.98909795 C0.329740319,1.64857859 0,2.44275171 0,3.3714123 L0,14.6096446 C0,15.5383462 0.329740319,16.3324374 0.98909795,16.991795 C1.64857859,17.6512756 2.44279271,17.9810159 3.3714123,17.9810159 L5.99363098,17.9810159 C6.16518451,17.9810159 6.29405467,17.9751116 6.37987244,17.963631 C6.4656492,17.9518223 6.55142597,17.9010615 6.63732574,17.8112255 C6.72326651,17.7215535 6.76607289,17.5907973 6.76607289,17.4191617 C6.76607289,17.3958724 6.76402278,17.1302597 6.76016856,16.6230205 C6.75619134,16.1156173 6.75426424,15.713754 6.75426424,15.4171435 L6.48500228,15.4640091 C6.31332574,15.4951708 6.09675171,15.5089066 5.83528018,15.5049704 C5.57393166,15.5010342 5.30266059,15.4738087 5.02175399,15.4230478 C4.74068337,15.372246 4.47933485,15.2552255 4.23738041,15.0719863 C3.99554897,14.8884191 3.82387244,14.6485148 3.7223918,14.3520273 L3.60528929,14.0826014 C3.52726196,13.9032984 3.40441913,13.7041913 3.23659681,13.4858542 C3.06877449,13.2672301 2.89906606,13.1189248 2.72738952,13.0408975 L2.64542597,12.9823462 C2.59085194,12.9433531 2.54013212,12.8963235 2.49326651,12.8417494 C2.44648292,12.7870114 2.41138497,12.7323144 2.38797267,12.6778633 C2.36456036,12.6231253 2.38399544,12.5782278 2.44648292,12.5430068 C2.50897039,12.5079499 2.62201367,12.4905649 2.78598178,12.4905649 L3.02002278,12.5256219 C3.17615945,12.5567836 3.36919818,12.6503508 3.59954897,12.8065285 C3.82973576,12.9625831 4.01896128,13.1654624 4.16726651,13.4151253 C4.34685649,13.7351891 4.56322551,13.9789066 4.81698861,14.1467289 C5.0705467,14.3147153 5.3261959,14.3986059 5.58369021,14.3986059 C5.84118451,14.3986059 6.06358087,14.3790888 6.25096128,14.3402187 C6.43813667,14.3011025 6.61374943,14.2424282 6.77771754,14.1644009 C6.84795444,13.6415809 7.03918907,13.2394305 7.3512574,12.9585239 C6.90646469,12.9116583 6.50652847,12.8415034 6.15132574,12.7477722 C5.79632802,12.654041 5.42948064,12.5019636 5.05102961,12.2911708 C4.67241458,12.0804191 4.35833713,11.8191526 4.10859226,11.5067973 C3.85888838,11.1944419 3.653959,10.7847472 3.49409112,10.277631 C3.33414123,9.77022779 3.25414579,9.18483827 3.25414579,8.52154442 C3.25414579,7.57730296 3.56252392,6.7733303 4.17903417,6.11003645 C3.89021412,5.39987699 3.91748064,4.60394077 4.26091572,3.72198178 C4.48724829,3.65170387 4.82289294,3.7044328 5.26768565,3.88004556 C5.71256036,4.05578132 6.03828246,4.20605467 6.24517995,4.3307426 C6.45207745,4.45547153 6.61784966,4.56092938 6.7427426,4.64687016 C7.46868793,4.44394989 8.21784055,4.34251025 8.99040547,4.34251025 C9.76292938,4.34251025 10.512205,4.44394989 11.2381913,4.64687016 L11.6830251,4.36592255 C11.987508,4.17854214 12.3464419,4.0068656 12.7601139,3.85085194 C13.1737449,3.69479727 13.4897494,3.65182688 13.7083736,3.72210478 C14.0594351,4.60406378 14.0908428,5.4 13.8018178,6.11011845 C14.418328,6.77349431 14.7267882,7.57742597 14.7267882,8.52166743 C14.7267882,9.18508428 14.6467927,9.77244191 14.4868428,10.2834943 C14.3270159,10.7946697 14.1203235,11.2045285 13.8664784,11.5127836 C13.6129203,11.8210797 13.2967927,12.0803781 12.9183417,12.2912528 C12.5398087,12.5018815 12.1730023,12.654246 11.8178405,12.7476902 C11.4627198,12.8414214 11.0628246,12.9118633 10.6179909,12.9587289 C11.0235444,13.3097904 11.2264237,13.8637312 11.2264237,14.6208793 L11.2264237,17.4187927 C11.2264237,17.5515171 11.2457768,17.658738 11.2848109,17.7407016 C11.3240911,17.8226241 11.3864146,17.8790433 11.4722323,17.910492 C11.5584191,17.9416538 11.6341503,17.9611298 11.700656,17.9688793 C11.7671617,17.9767107 11.862574,17.9806469 11.987467,17.9806469 L14.6096856,17.9806469 C15.5383052,17.9806469 16.3325194,17.6509066 16.991713,16.991426 C17.6511936,16.3319453 17.9809339,15.5377312 17.9809339,14.6091116 L17.9809339,3.3714123 C17.9808519,2.44275171 17.6511116,1.64845558 16.991754,0.98909795 Z" id="Shape"></path>
            <path d="M3.58629416,13.1091391 C3.48968409,13.1775198 3.50347516,13.2873761 3.62781254,13.4384196 C3.76615874,13.5756138 3.87655988,13.5963155 3.95952405,13.5000921 C4.05613412,13.4317113 4.04234305,13.321855 3.91778792,13.170523 C3.77973206,13.0471781 3.66925833,13.0264763 3.58629416,13.1091391 Z" id="Shape"></path>
            <path d="M3.1805746,12.8493741 C3.13388598,12.985034 3.18843794,13.1011833 3.3443124,13.1975171 C3.46889729,13.2945622 3.57054742,13.2754581 3.64827987,13.1397981 C3.69496849,13.0041382 3.64041652,12.8879889 3.48454207,12.7909438 C3.32866762,12.7328183 3.22734513,12.7523289 3.1805746,12.8493741 Z" id="Shape"></path>
            <path d="M3.95558377,13.5574252 C3.84009167,13.6139912 3.84009167,13.7165022 3.95558377,13.8639438 C4.07094119,14.0118031 4.17969906,14.0514232 4.28239612,13.9831621 C4.39782088,13.9035639 4.39782088,13.7956827 4.28239612,13.6593395 C4.17996843,13.5120769 4.07094119,13.4775884 3.95558377,13.5574252 Z" id="Shape"></path>
            <path d="M4.34805439,14.0906508 C4.25085734,14.1806252 4.27229286,14.2868139 4.41281462,14.4106908 C4.54216496,14.5450628 4.65013648,14.5619846 4.73650235,14.4607486 C4.82292494,14.371187 4.80131929,14.2646446 4.67174212,14.1411804 C4.54239179,14.0067494 4.43442027,13.9897687 4.34805439,14.0906508 Z" id="Shape"></path>
        </g>
    </g>
</svg>