<?xml version="1.0" encoding="UTF-8"?>
<svg width="18px" height="18px" viewBox="0 0 18 18" version="1.1" xmlns="http://www.w3.org/2000/svg" xmlns:xlink="http://www.w3.org/1999/xlink">
    <!-- Generator: Sketch 50.2 (55047) - http://www.bohemiancoding.com/sketch -->
    <title>LinkedIn</title>
    <desc>Created with Sketch.</desc>
    <defs></defs>
    <g id="LinkedIn" stroke="none" stroke-width="1" fill="none" fill-rule="evenodd">
        <g id="linkedin" fill="#0077B7" fill-rule="nonzero">
            <path d="M16.3717539,0 L1.62824607,0 C0.729,0 0,0.729 0,1.62824607 L0,16.3717068 C0,17.271 0.729,18 1.62824607,18 L16.3717068,18 C17.271,18 18,17.271 18,16.3717068 L18,1.62824607 C18,0.729 17.271,0 16.3717539,0 Z M5.56996335,15.5423874 C5.56996335,15.8040942 5.35782723,16.0162304 5.09612042,16.0162304 L3.07908377,16.0162304 C2.81737696,16.0162304 2.60524084,15.8040942 2.60524084,15.5423874 L2.60524084,7.08705236 C2.60524084,6.82534555 2.81737696,6.61320942 3.07908377,6.61320942 L5.09612042,6.61320942 C5.35782723,6.61320942 5.56996335,6.82534555 5.56996335,7.08705236 L5.56996335,15.5423874 Z M4.08760209,5.81616754 C3.02932461,5.81616754 2.17140314,4.95824607 2.17140314,3.89996859 C2.17140314,2.8416911 3.02932461,1.98376963 4.08760209,1.98376963 C5.14587958,1.98376963 6.00380105,2.8416911 6.00380105,3.89996859 C6.00380105,4.95824607 5.1459267,5.81616754 4.08760209,5.81616754 Z M16.1109424,15.580555 C16.1109424,15.8211518 15.9158639,16.0162304 15.675267,16.0162304 L13.5108377,16.0162304 C13.2702408,16.0162304 13.0751623,15.8211518 13.0751623,15.580555 L13.0751623,11.6145236 C13.0751623,11.0228796 13.2487068,9.02191099 11.529,9.02191099 C10.1950681,9.02191099 9.92450262,10.3915131 9.87017277,11.0061518 L9.87017277,15.580555 C9.87017277,15.8211518 9.67514136,16.0162304 9.43449738,16.0162304 L7.34112565,16.0162304 C7.1005288,16.0162304 6.90545026,15.8211518 6.90545026,15.580555 L6.90545026,7.04888482 C6.90545026,6.80828796 7.1005288,6.61320942 7.34112565,6.61320942 L9.43449738,6.61320942 C9.67509424,6.61320942 9.87017277,6.80828796 9.87017277,7.04888482 L9.87017277,7.78655497 C10.3647958,7.04426702 11.0998743,6.47132984 12.6649791,6.47132984 C16.1307801,6.47132984 16.1109424,9.70925654 16.1109424,11.4883351 L16.1109424,15.580555 Z" id="Shape"></path>
        </g>
    </g>
</svg>