<?xml version="1.0" encoding="UTF-8"?>
<svg width="18px" height="18px" viewBox="0 0 18 18" version="1.1" xmlns="http://www.w3.org/2000/svg" xmlns:xlink="http://www.w3.org/1999/xlink">
    <!-- Generator: Sketch 50.2 (55047) - http://www.bohemiancoding.com/sketch -->
    <title>phone-outgoing</title>
    <desc>Created with Sketch.</desc>
    <defs></defs>
    <g id="Icons" stroke="none" stroke-width="1" fill="none" fill-rule="evenodd" stroke-linecap="round" stroke-linejoin="round">
        <g id="phone-outgoing" transform="translate(1.000000, 1.000000)" stroke="#5E6C84" stroke-width="1.5">
            <polyline id="Shape" points="16 4.57142857 16 0 11.4285714 0"></polyline>
            <path d="M10.6666667,5.33333333 L16,0" id="Shape"></path>
            <path d="M15.2380952,12.1295238 L15.2380952,14.4152381 C15.2398368,14.844301 15.060608,15.2542159 14.7444403,15.544278 C14.4282726,15.8343401 14.0044678,15.9776671 13.5771429,15.9390476 C11.2326353,15.6842977 8.98057079,14.8831577 7.00190476,13.6 C5.1610119,12.4302201 3.60025611,10.8694643 2.43047619,9.02857143 C1.14284042,7.04091732 0.341518478,4.77790062 0.0914285714,2.42285714 C0.0529319698,1.99685511 0.195254863,1.57428756 0.48363107,1.25837795 C0.772007277,0.942468334 1.17988133,0.762307574 1.60761905,0.761904762 L3.89333333,0.761904762 C4.65818214,0.754377023 5.31009588,1.31502284 5.41714286,2.07238095 C5.51361753,2.80386015 5.69253292,3.52207763 5.95047619,4.21333333 C6.1597981,4.7701905 6.02591625,5.39794763 5.60761905,5.82095238 L4.64,6.78857143 C5.72461369,8.69603492 7.30396508,10.2753863 9.21142857,11.36 L10.1790476,10.392381 C10.6020524,9.97408375 11.2298095,9.8402019 11.7866667,10.0495238 C12.4779224,10.3074671 13.1961398,10.4863825 13.927619,10.5828571 C14.693762,10.6909412 15.2572876,11.3560324 15.2380952,12.1295238 Z" id="Shape"></path>
        </g>
    </g>
</svg>