<svg xmlns="http://www.w3.org/2000/svg" width="600" height="343" viewBox="0 0 600 343">
    <g fill="none" fill-rule="evenodd">
        <path fill="#EAECF0" d="M0 286.528s306.007-65.306 600 0v19.944c-67.501-29.902-189.848-49.62-254.63-35.772-82.362 17.607-126.773 12.31-214.284 8.844-63.2-2.504-109.97 8.54-131.086 14.872v-7.888z"/>
        <path fill="#EAECF0" d="M365.352 274.405c.204.56.473 1.124.82 1.725.565.907 1.152 1.671 1.818 2.377-.584.223-1.113.443-1.612.676-7.88-1.234-15.65-2.32-22.927-3.142 7.322-.424 14.612-1.03 21.901-1.636m35.67 64.234c5.94.716 11.884 1.408 17.83 2.068 7.496.842 14.738 1.335 22.233 1.88 2.964.218 5.688-.001 8.598-.07 1.981-.183 3.537-.444 5.43-.985 1.686-.52 2.945-1.07 4.426-1.946 2.643-1.651 4.215-3.334 5.624-5.902 1.241-2.51 1.752-4.54 1.797-7.31-.076-2.981-.699-5.23-2.218-7.945-1.068-1.719-2.184-3.129-3.462-4.365 3.188-6.46-1.216-14.577-13.842-18.872l1.184-.094c1.329.737 3.654.736 5.187.647 5.127-.304 11.17-.763 16.137-1.63 1.054-.199 31.145 9.818 43.775 9.117 2.605-.147 4.95-.523 7.46-.923 1.708-.274 3.014-.677 4.585-1.258 1.39-.544 2.406-1.068 3.57-1.845 2.065-1.453 3.192-2.824 4.053-4.81.724-1.928.881-3.437.528-5.43-.487-2.132-1.346-3.685-3.05-5.481-1.175-1.125-2.343-2.025-3.627-2.783 1.989-5.314-3.864-11.111-17.277-12.477-4.227-.23-23.96-13.656-42.995-14.45-.527-1.157-1.294-2.183-2.442-3.312a19.63 19.63 0 0 0-3.629-2.59c1.987-4.944-3.861-10.338-17.276-11.607-12.352-.623-123.039-7.68-126.803 3.345a33.665 33.665 0 0 0-6.241 1.758c-3.274 1.391-5.226 2.865-6.851 5.225-.946 1.56-1.303 2.847-1.254 4.536.107 1.49.49 2.634 1.344 4.015a13.91 13.91 0 0 0 1.817 2.213c-2.04.721-3.454 1.447-5.003 2.625-1.24 1.003-1.978 1.886-2.618 3.118-.695 1.505-.842 2.724-.51 4.293.358 1.346.914 2.337 1.974 3.51.768.807 1.527 1.427 2.562 2.087 1.465.895 2.746 1.474 4.484 2.1.364.115.724.218 1.079.319-3.377.745-5.611 1.943-6.38 3.687-2.452.23-4.775.695-7.442 1.583-4.01 1.517-6.557 3.363-8.947 6.558-1.435 2.136-2.142 3.957-2.492 6.438-.232 2.199-.074 3.931.556 6.091a20.007 20.007 0 0 0 1.518 3.525c-2.466.73-4.227 1.57-6.25 3.045-1.636 1.275-2.674 2.445-3.687 4.15-1.141 2.093-1.597 3.85-1.596 6.198.082 2.03.472 3.568 1.383 5.452a15.8 15.8 0 0 0 2.385 3.458c1.434 1.543 2.735 2.593 4.542 3.786 5.413 3.163 10.085 3.967 16.291 4.924.106.04 1.11.15 1.301.176 6.022.784 12.016 1.25 18.059 1.744 15.272 1.24 30.593 1.368 45.858 2.05.715.03 4.314.207 8.717.406 1.33 1.213 3.949 1.583 5.691 1.7 5.834.404 12.731.738 18.51.346 1.053-.089 2.31-.584 3.286-.884.776-.237 1.466-.789 2.118-1.204"/>
        <path fill="#FFF" d="M502.197 107.195c-2.532-.19-2.23 1.896-2.624 3.346-1.314 4.85-2.27 9.812-4.358 14.415-.947 2.09-2.341 3.98-1.638 6.501.241.86-.41 1.556-1.025 2.178-1.772 1.793-3.615 3.452-5.821 4.749-3.523 2.073-7.259 3.765-10.652 6.074-3.46 2.351-3.534 2.454-.726 5.553 3.417 3.769 3.152 7.31-.796 10.536a14.73 14.73 0 0 1-5.55 2.854c-5.365 1.46-10.782 1.43-16.184.41-9.041-1.702-18.018-3.57-27.245-4.346-7.801-.655-14.61-4.414-20.154-10.056-2.458-2.5-1.891-4.57 1.266-5.646 1.688-.576 4.136-1.11 3.786-3.06-.363-2.01-2.898-1.954-4.797-1.99-.201-.002-.394.122-.582.22-.298.243-.342.525-.126.848h.004c.266.358.672.308 1.045.356-.381-.007-.774-.048-1.044.317l-.001-.006c-.52.555-1.38.057-1.9.615l-.008.003a.822.822 0 0 1-.389.245c.077 1.54-.869 3.246-2.841 3.434-4.69.449-9.195 3.068-13.756 4.171-1.86.451-3.748.744-5.605 1.152 1.193 5.349-3.281 13.427-4.12 17.646-.246 1.239-1.034 1.887-1.952 2.081-.02.356-.035.715-.26 1.019.064.17.05.326-.046.48-.436.513-.546 1.113-.461 1.761.072.311.172.614.312.9.13.29.266.58.422.858.671 1.262.755 2.594.425 3.962-2.357 9.78-2.791 19.826-4.028 29.758-.6 4.806-1.398 9.465-4.096 13.67-1.224 1.908-2.333 3.964-2.995 6.19.07 1.089.15 2.18-.024 3.251 1.469.024 2.908.98 2.881 2.877-.066 5.133-1 10.51-3.563 15.016.293.225.62.434 1.022.61 1.762-4.452 2.17-9.23 3.224-14.024 2.039 2.899 3.323 6.664 3.382 9.992.015.936.223 1.738 1.095 2.065 2.843 1.07 4.945 3.442 8.005 4.233 2.513.65 4.899 1.884 7.385 2.68 7.468 2.394 11.13 7.565 12.107 15.194 2.198 17.152 3.258 34.408 4.891 51.61.301 3.176 1.299 6.448-.582 9.51-.057.636.403.879.858 1.126l-.013-.006c.181.239.404.445.618.656.166.252.408.432.624.634h.63c.215-.203.47-.377.584-.672-.006.002-.01.008-.016.013l.021-.018-.005.005c.26-.158.468-.373.644-.622a.083.083 0 0 1-.016.014l.025-.023-.01.01c.249-.173.45-.39.65-.61l-.004.003c.208-.2.424-.39.652-.567l.045-.035c.266-.415.868-.283 1.14-.688l.034-.04c-.01.015-.023.025-.034.04.278-.139.47-.379.693-.584l.012-.007c1.683-1.257 3.183-2.698 4.392-4.425l-.007.014c.394-.452.33-.95.134-1.458-3.366-2.48-4.076-6.041-4.349-9.95-.378-5.425-1.184-10.828-1.55-16.256-.317-4.697-2.068-9.544.704-14.124.429-.708.16-1.492-.327-2.058-3.407-3.956-2.745-8.892-3.096-13.5-.311-4.038.859-4.76 5.029-4.837 8.819-.165 17.56 1.293 26.354 1.24 5.559-.034 10.597 1.007 15.013 4.497 1.754 1.384 3.459 1.19 5.124-.239 2.456-2.105 4.144-4.745 5.288-7.707 3.736-9.706 6.702-19.64 8.686-29.864 1.68-8.638 2.266-17.481 4.719-25.978.52-1.793-.173-3.054-1.36-4.21a17.47 17.47 0 0 1-3.901-5.633c-3.93-9.006 1.13-19.068 8.618-24.456 1.18-.848 2.546-.853 3.926-.477 1.813.493 2.98 1.87 4.318 3.043 1.448 1.265 2.387 3.288 4.704 3.338.076-.229.154-.458.23-.69.124-.224.294-.411.502-.561l.035-.034c.174-.223.37-.424.595-.599l.034-.033c.173-.221.373-.42.595-.594l.033-.035c.176-.223.375-.419.597-.597l.034-.033c.182-.222.373-.437.566-.65.845-1.41-.158-3.075.62-4.495.025-.602.052-1.203.076-1.806.736-1.864-.222-3.892.553-5.752.022-.39.042-.782.065-1.172.456-1.461.389-2.93.033-4.399l-.04-.051c-.472-.392-.35-.804-.055-1.227l-.003.001.01-.014c-.004.004-.005.008-.007.013a2.75 2.75 0 0 0 .63-.656c-.011.003-.023.018-.033.018l.041-.03-.008.012c.043-.02.087-.07.133-.17.058-.13.01-.26-.14-.401l.025.024a9.928 9.928 0 0 1-.553-.677l-.048-.053a2.07 2.07 0 0 1-.581-.58l-.052-.051a2.123 2.123 0 0 1-.58-.577l-.049-.05c-.23-.16-.426-.349-.582-.58l-.049-.052a2.098 2.098 0 0 1-.282-.232c-4.363-.052-8.708-.469-13.073-.505-2.19-.018-3.127-1.962-2.82-3.623-.073-.022-.144-.042-.213-.084-.51-.385-.414-.796-.043-1.216l-.003.015c.365-.319.95-.22 1.255-.655-.004.002-.01.002-.012.005l.03-.02c-.006.007-.012.008-.018.015.388-.29.978-.185 1.272-.658l-.038.042c.244-.162.476-.34.695-.536a.457.457 0 0 1 .425-.126c.47-.22 1.065-.154 1.425-.622-.005.005-.01.005-.015.009l.032-.023c-.004.008-.012.01-.017.014.391-.267.953-.19 1.266-.614-.002.004-.008.004-.012.006l.029-.02c-.004.007-.012.008-.017.014.382-.292.948-.208 1.273-.617-.003.004-.007.004-.01.006l.019-.014-.009.008c.372-.312.938-.222 1.278-.605l-.002.002c.509-.566 1.388-.046 1.884-.64-.001.001-.002.002-.005.002l.01-.006c0 .003-.004.004-.005.004 3.15-.757 5.048-2.884 6.286-5.737a.698.698 0 0 1 .063-.545c.609-.766-.065-1.82.576-2.576a.755.755 0 0 1 .076-.579c.477-.547.014-1.373.564-1.898l-.01.02c.71-.716-.048-1.807.65-2.527l-.008.01c.545-.586.143-1.437.583-2.048a.507.507 0 0 1 .076-.476c.526-.56.07-1.409.58-1.973a.745.745 0 0 1 .086-.558c.475-.546.014-1.373.564-1.896l-.01.017c.698-.749-.015-1.835.622-2.598a.766.766 0 0 1 .08-.563c.46-.59.07-1.407.534-1.995a.605.605 0 0 1 .057-.51c.63-.785-.016-1.848.576-2.64a.595.595 0 0 1 .053-.512c.54-.963.25-1.986.222-2.992M539.77 275.237a.51.51 0 0 1-.062-.482c-.46-.599-.023-1.47-.612-2.033l.014.025c-.344-.357-.234-.916-.566-1.28a.394.394 0 0 1-.106-.412c-.073-.349-.315-.597-.522-.867l-.021-.041c-.436-.28-.28-.91-.708-1.192l.03.033c-.161-.256-.396-.45-.583-.685l-.015-.018c-.391-.287-.27-.89-.687-1.16 0 .002.003.002.004.005l-.054-.04c.02.009.033.022.05.034a1.64 1.64 0 0 0-.632-.663c.008.007.015.014.02.022l-.034-.034c.007.003.01.008.014.012a1.946 1.946 0 0 0-.62-.627l.012.018-.036-.035c.01.005.014.011.024.017a2.215 2.215 0 0 0-.617-.642c.005.003.007.006.01.01l-.027-.025c.008.003.012.01.017.015a3.581 3.581 0 0 0-.625-.653l.012.015a4.827 4.827 0 0 0-.63-.633l-.012-.01c-.19-.23-.4-.44-.63-.633l.014.015a5.048 5.048 0 0 0-.646-.645l.014.013a5.16 5.16 0 0 0-.643-.642l.015.014c-.196-.23-.402-.45-.654-.622l.014.014-.028-.026c.006.002.01.008.014.012a2.09 2.09 0 0 0-.632-.607c.001.003.005.007.01.01l-.041-.033c.012.005.019.016.03.023-.197-.313-.459-.54-.833-.62a.434.434 0 0 1-.412-.148c-.237-.178-.46-.382-.736-.508a.727.727 0 0 1-.528-.157 12.19 12.19 0 0 0-.738-.472.696.696 0 0 1-.515-.11c-.407-.295-.948-.233-1.361-.512l-1.168-.132c-1.218-.502-2.593.058-3.794-.57-.616.555-1.268 1.076-1.84 1.674-.523.547-1.26.97-1.515 2.058 1.51-.563 2.768-1.014 4.014-1.5.603-.236 1.214-.345 1.844-.221.42.083.803.283.988.696.198.441.006.763-.357 1.064-2.577 2.13-5.175 4.235-7.533 6.63-1.515 1.54-2.543 3.329-3.345 5.267-1.15 2.778-.346 6.404 1.934 8.306 3.735 3.118 8.024 4.38 12.858 3.393.844-.175 1.656-.343 2.446.063.87.448 1.604.11 2.379-.262.876-.42 1.578-1.058 2.162-1.79.94-1.177 2.23-1.482 3.597-1.614.55-.052.59.452.692.843.266.168.452.092.565-.191a.629.629 0 0 1 .132-.479c.287-.372.181-.91.545-1.249l-.005.01c.57-.514.057-1.389.633-1.902l-.004.01c.5-1.045.474-2.091.02-3.144"/>
        <path fill="#FFF" d="M510.102 65.56a1.316 1.316 0 0 0-.635-.65c.001.002.005.006.006.01l-.038-.033c.012.006.019.017.032.023-.126-.29-.367-.485-.583-.698l.005.01a5.634 5.634 0 0 1-.562-.656l-.05-.052a2.11 2.11 0 0 1-.579-.58l-.051-.05a2.123 2.123 0 0 1-.579-.58l-.049-.048a2.078 2.078 0 0 1-.443-.414 10.977 10.977 0 0 1-1.448-.251c-7.06-1.768-14.83-1.565-22.063-2.753-7.439-1.222-14.69-2.405-21.94-4.52-7.263-2.12-14.046-2.756-21.498-3.663-3.036-.37-6.402-1.764-9.415-1.855-2.016-.061-3.818-.268-5.588-.688a10.57 10.57 0 0 1-2.07.815c-3.726 1.037-6.977 3.14-10.61 4.449-3.228 1.162-6.51 2.14-9.754 3.252-5.332 1.826-10.258 4.602-15.568 6.439.988 4.193.538 8.56-.197 12.943-.977 5.824-1.965 11.64-2.917 17.468-2.167 13.274-2.159 27.08-5.587 40.114.198.164.384.34.55.539l.028.024c.235.182.425.42.687.57l-.035-.034c.548.646 1.435.19 2.046.628l.234-.027.216.09c.583.549 1.436.131 2.052.574l.241-.029.227.087c.955.738 2.216-.112 3.174.61l-.011-.01c1.424.853 3.097-.129 4.537.612l.245-.056.234.083c.79.56 1.643.333 2.491.193.075-1.983-1.676-1.86-2.8-2.277-3.818-1.413-7.77-2.49-11.39-4.48.203-.283.38-.35.615-.305 15.762 3.071 31.587 5.673 47.552 7.48 10.952 1.243 21.722 3.708 32.615 5.38 1.573.24 3.145.525 4.59-.401 5.027-3.227 10.313-6.106 14.568-10.407 11.797-11.928 18.739-26.4 22.178-42.67 1.242-5.866 1.938-11.84 3.268-18.124 1.11 2.315.31 4.477 1.347 6.282.27.306.551.32.848.038a.692.692 0 0 1 .066-.536c.594-.793-.03-1.84.556-2.634a.6.6 0 0 1 .053-.51c.714-.976-.117-2.238.599-3.214a.767.767 0 0 1 .066-.577c.582-.777-.061-1.82.558-2.59a.742.742 0 0 1 .073-.557c.31-.641.491-1.271-.152-1.833l.055.048zM339.522 231.882c-.525-.881-1.318-1.625-1.346-2.778-.049-1.703-.117-3.406.207-5.044-3.985 1.604-8.295 2.339-12.087 4.476-3.922 2.214-2.474 7.604-7.429 9.203-3.558 1.148-7.58-2.154-10.447-3.687-5.123-2.74-9.756-2.532-14.644-.668.018.096.034.192.038.302.01.815.566.996 1.191 1.196 4.48 1.431 8.941 2.923 13.439 4.298 1.27.39 1.976.997 2.093 2.36.05.6.27 1.298.659 1.737 1.438 1.622 1.548 3.716 1.669 5.6.203 3.126 1.033 6.202.785 9.36-.024.31-.032.648.063.936.67 2.035.504 4.14.553 6.228.015.628-.093 1.3.084 1.878.701 2.259.462 4.569.483 6.863.03 3.144-.003 6.288.021 9.43.006.937.034 1.864.23 2.806.51 2.44.93 4.899 1.027 7.407.187 5.009-.387 10.044.585 15.032.29 1.494-.651 2.59-2.19 2.917-.502.106-1.04.05-1.564.071-.063 0-.101.087-.117.26-.013.145.103.23.35.259a.553.553 0 0 1 .453.117c.392.31.8.3 1.22.059.222-.016.448-.032.669-.05.22.187.435.374.651.561l-.015-.015c.19.244.402.462.654.645l-.02-.02c.187.252.395.48.675.635l-.031-.048c.39.465.79.456 1.199.015l-.032.037c.262-.153.45-.388.687-.574l.029-.02c.297-.406.924-.259 1.206-.7l-.03.034c.258-.15.446-.39.687-.562l.037-.026c.288-.417.92-.264 1.192-.709l-.031.036c.269-.152.462-.387.684-.588l.017-.01c.298-.382.898-.261 1.17-.683l-.002.003.036-.048c-.008.018-.022.03-.033.045.28-.138.487-.356.665-.609l-.009.007.025-.027-.016.02c.247-.158.435-.39.676-.557l.044-.027c1.647-1.257 3.045-2.767 4.395-4.329l.066-.079a.505.505 0 0 0 .02-.547c-1.517-.146-2.23-1.428-3.23-2.306-.816-.718-1.196-1.582-1.36-2.697-.485-3.282-1.191-6.53-1.72-9.805-.33-2.046-.53-4.117-.72-6.185-.106-1.136-.11-2.265-.408-3.4-.427-1.622-.309-3.321-.183-4.978.16-2.1 1.523-3.54 3.015-4.861.98-7.175-.701-14.28-.56-21.483.874.226 1.505 1.284 2.566.744-.014-.417.015-.843-.05-1.254-.26-1.695.566-2.68 1.947-3.554 2.135-1.35 4.413-2.4 6.675-3.475 2.53-1.203 4.101-3.132 5.023-5.704.23-.646.226-1.22-.214-1.76-.463-.568-1.002-1.088-1.372-1.71M496.284 173.157l-.012.014c-.002.002-.002.006-.003.008l.015-.022zM409.927 330.628z"/>
        <path fill="#D7DEE8" d="M415.145 324.456c-2.512-.915-4.248-2.384-4.577-5.298-.477-4.254-1.09-8.491-1.238-12.777-.99-2.813-.295-5.831-1.07-8.7-.374-1.38.169-3.04-.298-4.36-.732-2.063.33-4.14-.448-6.142-.235-.6.198-1.233.55-1.75.522-.776 1.116-1.503 1.745-2.34-.341-.412-.602-.908-1.007-1.185-1.745-1.184-2.332-3.073-2.417-4.9-.14-3.141-.977-6.213-.798-9.374.053-.942.074-1.854.426-2.77.595-1.567 1.88-2.62 3.498-2.423 3.242.394 6.493.07 9.737.214 1.254.058 2.52-.063 3.732.41.287.111.621.162.927.144 5.25-.3 10.425 1.093 15.674.679 4.02-.318 7.641.905 11.138 2.714 1.038.537 1.93 1.235 2.794 2.014 1.51 1.355 2.236 1.289 3.799-.05 2.19-1.88 3.828-4.191 4.926-6.814 2.064-4.926 3.633-10.032 5.153-15.155 1.186-4.013 2.28-8.05 3.133-12.144.703-3.368 1.249-6.77 1.835-10.162 1.01-5.857 1.522-11.804 3.122-17.557.085-.301.032-.68.192-.914 1.254-1.828.335-2.976-1.056-4.21-4.246-3.765-5.557-8.732-5.324-14.17.073-1.639.598-3.297 1.146-4.864 1.14-3.286 2.612-6.401 5.342-8.748.954-.821 1.77-1.793 2.688-2.656 2.45-2.3 5.995-2.366 8.5-.078 1.623 1.486 3.127 3.106 4.695 4.655.443.436.923.836 1.387 1.252l.218-.06c.11.25.285.441.529.561l.077.078c.133.243.314.443.543.6l.03.042c.167.245.399.435.569.677l-.02-.022c.256.2.496.407.61.724l-.062-.062c.508.231.347.894.763 1.18l.012.024c.185.249.462.431.534.758l-.068-.069c.54.271.428.886.689 1.305l-.039-.06c.534.351.459.978.665 1.476-.062.171-.014.3.143.387.314.358.185.92.573 1.24l.006.008c.35.376.285.929.57 1.333l-.033-.05c.665.526.225 1.381.591 1.994l-.038-.05c.569.218.424.874.757 1.236l-.023-.035c.446.393.402.987.609 1.477-.072.17-.031.304.123.405.328.378.24.924.542 1.31l-.024-.04c.462.386.41.986.62 1.477-.073.169-.032.303.124.402.327.372.226.925.555 1.292l-.014-.029c.427.384.366.975.605 1.437-.065.18-.024.33.126.452.308.38.222.923.537 1.3l-.02-.035c.647.464.077 1.382.692 1.857l.006.014c.35.414.31.981.555 1.435a.39.39 0 0 0 .136.473c.29.378.196.916.537 1.275l-.01-.024c.4.43.394 1.01.574 1.523-.083.152-.05.274.1.362.35.443.344 1.01.535 1.511-.083.162-.044.292.114.384.472.593.13 1.381.477 2.004l-.042-.056c.593.275.463.932.724 1.38a.381.381 0 0 0 .125.457c.306.425.267.972.512 1.42-.068.188-.024.346.133.474.292.374.196.916.538 1.274l-.01-.023c.4.415.378.996.58 1.487-.073.17-.031.305.122.404.329.374.234.924.55 1.301l-.018-.035c.439.405.409.998.602 1.5-.08.161-.042.288.114.38.343.366.237.927.57 1.296l-.017-.03c.426.404.39.994.596 1.484-.072.17-.032.302.123.402.327.38.24.926.543 1.313l-.023-.046c.758.737.066 1.816.608 2.605l-.04-.048c.394.167.63.454.68.885-.076.147-.04.258.111.33.341.37.243.926.56 1.304l-.02-.037c.641.494.118 1.387.66 1.916l-.015-.03c.419.413.398 1 .591 1.504-.088.155-.057.28.092.377.372.405.306.981.555 1.436a.383.383 0 0 0 .121.465c.308.381.23.92.53 1.308l-.026-.044c.658.492.135 1.388.662 1.924l-.018-.035c.439.41.414 1.002.6 1.512-.087.151-.056.271.094.363.357.445.356 1.017.537 1.526-.085.155-.053.276.098.365.646.738-.072 1.8.604 2.53l-.004-.003c.382.338.275.922.633 1.272l-.008-.016c.578.52.09 1.389.622 1.924l-.016-.028c.603.558.166 1.434.618 2.038-.01.907-.02 1.81-.027 2.714-.187.513-.157 1.112-.612 1.514l.023-.04c-.32.376-.189 1.012-.724 1.261l.064-.067c-.094.329-.341.534-.587.738l.012-.013c-.193.212-.375.439-.54.677l-.03.048c-.26.364-.35.82-.628 1.173-.39.495-.798.97-1.485 1.378 1.87-.267 4.083-1.792 5.149.4 1.116 2.305-1.59 3.035-2.847 4.175-2.71 2.46-5.658 4.674-7.303 8.074-1.97 4.068-1.098 7.304 2.609 9.79 2.993 2.01 6.314 2.614 9.86 2.37 3.21-.216 6.371-.227 8.886-2.919.696-.744 2.771-2.126 3.657.481.005.31-.09.586-.267.834-.013.212-.022.426-.034.636.366.43.364.845-.047 1.245l.019-.027c-.35.348-.19 1.022-.778 1.214l.087-.087c-.184.582-.86.417-1.187.783l-.002.002c-.21.241-.408.5-.762.542l.06-.07c-.207.596-.858.446-1.242.745l.022-.025a1.474 1.474 0 0 1-.814.501c-1.007.329-1.917.807-2.727 1.513-7.602 6.653-21.835 2.946-26.414-6.444-2.3-4.713-.753-9.438.989-14.029.484-1.27 1.726-2.652-.116-3.888a4.444 4.444 0 0 1-1.03-.968l.018.045c-.297-.134-.51-.364-.696-.62l.014.017a2.885 2.885 0 0 1-.648-.642l.016.013a2.831 2.831 0 0 1-.645-.644l.015.015a3.032 3.032 0 0 1-.645-.643l.015.012a2.91 2.91 0 0 1-.646-.644l.016.015a2.936 2.936 0 0 1-.645-.645l.015.015a2.962 2.962 0 0 1-.645-.645l.015.015c-.255-.195-.49-.405-.614-.713l.06.07c-.524-.372-.468-.995-.656-1.51.07-.16.028-.278-.13-.355-.33-.356-.21-.92-.574-1.263l.003.007c-.38-.36-.303-.923-.595-1.323l.028.045c-.473-.394-.437-.999-.624-1.515l-.005-.108c.089-.31.239-.626-.05-.918l.015.026c-.262-.196-.505-.406-.608-.732l.068.072c-.557-.317-.455-.953-.688-1.428.063-.176.018-.318-.136-.424-.306-.385-.228-.923-.526-1.31l.024.043c-.458-.4-.426-1.002-.614-1.51.092-.152.06-.27-.09-.362-.38-.387-.287-.969-.576-1.395a.452.452 0 0 0-.129-.51c-.283-.379-.19-.915-.533-1.27l.009.019c-.401-.401-.355-.984-.586-1.453.064-.186.015-.336-.147-.447-.285-.38-.195-.917-.533-1.274l.012.023c-.41-.392-.353-.977-.594-1.438a.38.38 0 0 0-.138-.458c-.298-.364-.18-.916-.557-1.242l-.001-.006c-.36-.366-.288-.928-.586-1.322l.029.035c-.168-.12-.23-.247-.182-.38.045-.136.097-.203.148-.203l-.012.029c.143-.15.18-.282.114-.407-.062-.118-.12-.178-.177-.178l-.052-.072a2.327 2.327 0 0 0-.548-.622l-.017-.026c-.187-.24-.455-.424-.548-.738l.058.065c-.512-.29-.406-.893-.674-1.308l.038.052c-.502-.297-.404-.898-.667-1.315l.02-.02c-1.26-.338-.977.63-1.043 1.26-.154 1.498.277 3.03-.255 4.506a2.622 2.622 0 0 0-.128 1.664c-.553 1.069.072 2.318-.515 3.381-.035.363-.07.725-.107 1.089-.61 1.039.118 2.302-.555 3.33a.402.402 0 0 0-.06.494c-.567.805.021 1.842-.537 2.647a.478.478 0 0 0-.08.54c-.671.997.078 2.236-.551 3.24l-.104 1.087c-.656 1.254.148 2.711-.551 3.96a.457.457 0 0 0-.057.525c-.698 1.219.105 2.646-.535 3.875l-.095 1.165c-.752 1.434.185 3.085-.58 4.513-.134.152-.156.317-.062.497-.63.765.18 1.925-.709 2.617l.064-.08c-.117.333-.352.558-.673.696l.052-.053c-.133.32-.36.548-.681.68l.049-.05c-.13.323-.36.546-.68.68l.051-.05a1.208 1.208 0 0 1-.681.679l.051-.048c-.132.32-.36.547-.681.68l.051-.051c-.132.32-.361.546-.68.681l.05-.054c-.141.328-.355.572-.723.639l.066-.071c-.22.588-.86.444-1.257.728l.037-.03c-.291.495-.891.387-1.292.664l.035-.025c-.279.48-.894.353-1.253.69l.01-.006c-.296.415-.904.27-1.206.672l-.036.019c-.24.19-.414.475-.759.514l.059-.063c-.233.568-.868.432-1.264.719l.04-.029c-.274.485-.895.35-1.242.702l.004-.001c-.303.397-.906.252-1.2.665l-.045.021c-.245.182-.417.462-.75.515l.055-.059c-.237.549-.876.41-1.249.726l.029-.019c-.292.445-.901.315-1.24.68l-.007.005c-.617.456-1.254.887-1.962 1.192l.04-.029c-.267.5-.888.367-1.25.703l.013-.006c-.196.262-.398.516-.75.57l.06-.068c-.218.586-.86.443-1.254.73l.038-.026c-.282.484-.893.36-1.26.687l.023-.013c-2.86.964-5.889-.23-8.75.698l-.033.038c-.43.282-.278.893-.674 1.194l.007-.014c-.358.346-.223.977-.718 1.246l.054-.057c-.102.301-.368.483-.535.737l-.022.04c-.43.283-.28.898-.682 1.194l.01-.016c-.358.342-.205 1.006-.768 1.218l.07-.067c-.065.343-.32.547-.563.756l.005-.007c-.365.332-.208 1.003-.778 1.202l.074-.068c-.07.36-.32.567-.61.744l.037-.04c-.138.277-.384.468-.576.702l-.013.022c-.542.542-.733 1.352-1.39 1.807l.06-.058c-.112.33-.35.546-.638.715l.036-.037c-.149.283-.38.492-.63.678l.014-.015a2.916 2.916 0 0 1-.644.646l.016-.015c-.183.25-.398.465-.647.647l.015-.016c-.18.247-.397.462-.644.643l.014-.012a3 3 0 0 1-.643.643l.015-.015c-.183.25-.398.465-.645.645l.016-.014c-.189.248-.396.476-.671.635l.029-.03c-.159.275-.387.483-.633.673l.01-.017c-2.182 2.842-4.823 5.235-7.478 7.612l-.047.043a2.294 2.294 0 0 0-.58.58l-.05.049a2.313 2.313 0 0 0-.58.578l-.05.05c-.23.169-.438.357-.63.566l-.016.013c-.217.203-.414.426-.657.601l.013-.013a2.978 2.978 0 0 1-.645.643l.014-.013a2.414 2.414 0 0 1-.664.637l.029-.025c-.181.268-.395.5-.703.628l.045-.048a1.28 1.28 0 0 1-.673.685l.047-.048c-.132.302-.363.515-.625.703l.022-.024a2.69 2.69 0 0 1-.643.655l.016-.014a3.06 3.06 0 0 1-.643.644l.013-.014c-.173.243-.397.441-.598.662l-.014.018a3.594 3.594 0 0 0-.56.625l-.045.053c-.584.498-.763 1.31-1.379 1.785l.053-.048c-.138.296-.37.507-.626.7l.02-.02c-.18.252-.395.467-.646.65l.014-.016a2.82 2.82 0 0 1-.644.643l.016-.011c-.182.246-.397.46-.644.643l.013-.014a3.005 3.005 0 0 1-.643.644l.007-.014c-.107.272-.267.324-.491.122M363.898 250.148c.052-2.307.578-4.52 1.04-6.777.514-2.505 1.517-5.004 1.108-7.69-.077-.513.435-1.119.799-1.971 1.178 1.651 2.491 2.881 2.77 4.71a6.531 6.531 0 0 0 1.167 2.879c1.198 1.663 1.69 3.348.416 5.203-.094.137-.013.397-.013.706.761.284 1.522.62 2.314.85 1.134.328 2.202.657 2.636 1.95.191.566.82.532 1.308.699 4.751 1.637 9.489 3.288 14.04 5.455 1.953.929 3.418 2.412 5.01 3.746.761.639 1.331 1.568 1.56 2.668.255 1.223.732 2.396 1.087 3.601.803 2.715 1.133 5.503 1.472 8.308.39 3.21.48 6.44 1.03 9.643.474 2.77.575 5.606.8 8.42.084 1.042 0 2.096.39 3.102.114.287.196.618.18.92-.215 3.574.626 7.084.66 10.64.044 3.876.57 7.7 1.146 11.52.109.722.097 1.465.127 2.196.061 1.565.072 3.112.46 4.674.584 2.335.274 4.574-1.74 6.263-.614.517-1.225.543-1.832-.01l.035.02c-.394-.295-.948-.2-1.316-.554l-.158-.143-.21.035c-.507-.177-1.086-.17-1.507-.575l.004.005c-.514-.55-1.408-.017-1.889-.66l.023.016c-.38-.32-.966-.214-1.289-.643l.038.038c-.272-1.82-1.317-2.341-3.124-2.254-1.684.082-3.446.45-5.103-.312l.029.016c-.55-.503-1.393-.035-1.936-.574l-.183-.134-.221.046c-.644-.393-1.508-.003-2.098-.593l.014.008c-.734-.648-1.82.096-2.532-.637l.012.008c-.748-.645-1.828.084-2.558-.62l-.166-.125-.196.066c-.871-.483-1.954.083-2.789-.565l-.164-.125-.192.069c-.37-.047-.628-.293-.898-.514l-.044-.037a2.732 2.732 0 0 0-.593-.577l-.05-.05a2.343 2.343 0 0 0-.581-.58l-.05-.05a2.29 2.29 0 0 0-.579-.58l-.052-.048a2.323 2.323 0 0 0-.58-.581l-.05-.05a2.77 2.77 0 0 0-.578-.6l-.03-.035c-.726-1.66.2-3.496-.556-5.15l-.067-1.161c-.757-1.869.217-3.904-.561-5.77l-.057-1.155c-.786-1.864.214-3.908-.575-5.775.135-.606.154-1.208-.092-1.795-.655-1.71.151-3.562-.505-5.272a2.704 2.704 0 0 0-.099-1.652c-.758-1.866.215-3.901-.562-5.768-.02-.386-.038-.772-.056-1.156-1.12-1.079.977-3.233-1.314-3.917l.018.012c-.76.62-1.756.775-2.565 1.297l.043-.034c-.25.522-.886.384-1.243.72l.01-.009c-.191.263-.395.516-.746.575l.06-.07c-.223.585-.86.446-1.26.724l.039-.029c-.252.492-.89.342-1.21.725l-.014.01c-.23.213-.406.488-.748.54l.056-.064c-.23.56-.872.418-1.245.733l.027-.019c-.602.485-1.537.487-1.914 1.307l.032-.034a2.307 2.307 0 0 1-.653.659l.019-.02c-.19.264-.397.512-.737.59l.059-.067c-.198.552-.87.384-1.174.777l-.019.015c-.225.205-.414.451-.704.577l.044-.042c-.243.467-.893.295-1.153.736l-.065.04c-.228.18-.458.36-.692.537l.03-.028c-.555.547-1.265.863-1.901 1.284l.013-.007c-.193.264-.397.514-.743.583l.062-.067c-.208.563-.87.408-1.209.762l.005-.004c-.2.248-.404.494-.73.585l.057-.063c-.222.533-.879.377-1.197.755l-.01.009c-.222.218-.407.488-.744.553l.057-.063c-.223.545-.873.394-1.21.748-.208.247-.406.504-.758.548l.071-.062c-.36.84-1.36.182-1.82.784l-.009.008c-.204.22-.407.443-.655.614l.017-.016c-.192.256-.4.49-.706.615l.053-.053c-.257.496-.89.354-1.222.72l-.008.004c-.211.234-.412.482-.74.56l.057-.063c-.24.552-.872.419-1.26.714l.031-.022c-.266.466-.895.318-1.202.712l-.025.017c-.232.2-.415.463-.732.55l.051-.055c-.224.508-.882.346-1.172.753l-.035.02c-.235.19-.421.438-.708.562l.043-.042c-.24.466-.894.294-1.154.738l-.061.04c-.322.159-.658.279-1.01.35-2.833-.551-4.307-2.514-4.867-5.112-1.543-7.173-2.496-14.441-3.146-21.743-.271-3.042.377-5.861 3.002-7.852 1.8-2.35 4.556-3.3 7.007-4.66 7.966-4.412 15.714-9.232 24.335-12.404 2.634-.967 5.623-.871 7.948-2.703M394.924 137.18c-2.112-1.201-4.512-1.604-6.762-2.424-2.658-.968-5.32-1.919-7.861-3.175-.468-.232-.95-.467-1.354-.79-.333-.263-.528-.703-.254-1.111.15-.227.467-.467.719-.475.51-.02 1.037.067 1.535.193 3.951 1.012 7.971 1.636 11.996 2.267 4.427.697 8.825 1.597 13.25 2.328 3.294.542 6.616.919 9.916 1.435 3.82.596 7.675.871 11.506 1.321 4.552.537 9.06 1.46 13.586 2.217 4.218.708 8.44 1.412 12.658 2.121 2.986.5 5.985.927 8.94 1.554 1.023.216 1.876.186 2.678-.374 4.198-2.939 8.868-5.212 12.678-8.687 3.175-2.896 6.22-5.923 8.698-9.484 3.596-5.17 6.85-10.52 9.178-16.405.615-1.557 1.468-3.019 2.1-4.57 1.946-4.765 3.077-9.736 3.987-14.799.864-4.829 1.75-9.65 2.477-14.504.18-1.227.628-2.42 1.02-3.608.12-.364.408-.82.919-.583.217.101.385.455.45.725.612 2.56.612 5.18.714 7.79.333.822.423 1.64-.061 2.444-.147.134-.165.288-.057.457-.678 1.465.132 3.1-.52 4.566-.231.561-.248 1.135-.113 1.72-.658 1.253.154 2.716-.56 3.962a.408.408 0 0 0-.06.494c-.573.803.04 1.853-.554 2.652a.408.408 0 0 0-.077.496c-.453.6-.072 1.422-.535 2.018a.423.423 0 0 0-.094.505c-.465.597-.051 1.44-.565 2.021-.146.119-.175.26-.09.429-.216.469-.19 1.026-.516 1.456-.151.12-.187.266-.109.44-.23.466-.187 1.03-.535 1.454-.156.097-.192.226-.102.386-.519.848.13 1.962-.63 2.754l.024-.057c-.138.272-.19.608-.54.722-1.09 1.162-2.053 2.346-1.536 4.137.097.34-.101.822-.281 1.178-.964 1.89-1.37 3.961-1.848 5.986-.83 3.498-1.996 6.832-3.99 9.84-.38.572-.53 1.088-.203 1.744.228.462.408.988.447 1.498.088 1.164.114 2.35-1.372 2.758a1.85 1.85 0 0 0-1.186.97c-.64 1.307-1.819 2.013-2.98 2.714-2.06 1.242-4.091 2.569-6.257 3.6-2.952 1.408-5.527 3.409-8.392 4.944-.707.38-.73.998-.144 1.502.395.34.816.656 1.23.976 1.661 1.288 2.458 3.09 2.979 5.052.492 1.854.153 3.546-1.085 5.008-1.86 2.195-4.06 3.938-6.833 4.841-1.99.648-3.994 1.235-6.125 1.233-.723-.004-1.446.182-2.17.284-.617.085-1.25.295-1.855.239-2.49-.234-4.988-.473-7.46-.85-4.855-.74-9.664-1.716-14.338-3.299-.855-.289-1.86-.172-2.8-.192-2.194-.045-4.38.106-6.557-.502-1.501-.418-3.112-.113-4.685-.374-2.714-.452-5.27-1.348-7.764-2.416-4.656-1.992-8.924-4.572-12.474-8.297-1.357-1.426-1.41-2.935-1.193-4.631.072-.552.448-.94.901-1.23.62-.392 1.258-.754 2.019-.817.52-.043 1.06-.047 1.551-.197 1.154-.35 2.8-1.742 2.535-2.062-.665-.793-1.657-.783-2.577-.974-.908-.186-1.748-.77-2.738-.43-.808.202-1.615.413-2.365-.168l.01.01c-.747-.646-1.82.077-2.555-.616l-.164-.128-.2.064c-.85-.504-1.96.136-2.753-.627l.027.025c-.524-.537-1.455.082-1.899-.674M301.644 309.237l-.177-.127-.21.062c-.857-.5-1.94.084-2.765-.571l-.177-.126-.208.07c-.858-.49-1.923.062-2.758-.55l-.208-.13-.24.06c-.816-.55-1.905.105-2.683-.61l.027.019a31.546 31.546 0 0 0-.683-.545l-.052-.05a2.37 2.37 0 0 0-.58-.579l-.05-.049a2.348 2.348 0 0 0-.58-.582l-.05-.05a2.313 2.313 0 0 0-.58-.578l-.051-.05a2.333 2.333 0 0 0-.578-.58l-.053-.052a3.866 3.866 0 0 0-.57-.628l-.006-.01c-.837-3.385.213-6.876-.565-10.264.13-.79.169-1.575-.106-2.346-.713-2.31.21-4.749-.536-7.056.13-1.012.21-2.024-.093-3.024-.567-3.724-.096-7.472-.267-11.205-.054-1.127.277-2.292-.28-3.377.138-1.236.232-2.467-.092-3.687-.708-3.178.223-6.444-.514-9.62.13-.581.127-1.151-.09-1.713-.757-2.298.214-4.733-.563-7.03 0-.769-.001-1.54-.003-2.307.81-2.935-.23-5.99.582-8.922l.01-.02a2.26 2.26 0 0 0 .537-.63l.077-.077c.242-.132.435-.315.584-.546l.058-.045c.272-.193.518-.435.865-.501.168.072.306.037.414-.114.836-.38 1.67-.412 2.502.019.1.157.235.194.4.113.507.236 1.085.153 1.601.352 3.016 3.302 7.264 4.232 11.255 5.092 6.873 1.482 8.845 6.295 9.587 12.241.884 7.061 1.85 14.184 1.792 21.251-.092 11.02 1.873 21.91 1.484 32.916-.058 1.574.194 3.13.347 4.692.305 3.2-.658 4.165-4.1 4.313-.536-.037-1.11.087-1.573-.32l-.162-.133-.202.054c-.665-.37-1.53-.007-2.134-.589l.012.011c-.736-.647-1.817.088-2.533-.632l.006.006c-.74-.656-1.823.081-2.551-.626l-.166-.127-.198.069c-.672-.369-1.528-.022-2.153-.562"/>
        <path fill="#D7DEE8" d="M374.722 173.889c1.268 1.336 1.46 2.878 1.074 4.636-.715 3.25-1.642 6.474-1.726 9.829-.028 1.023-1.173 1.584-1.001 2.557.164.923.61 1.87.329 2.762-.833 2.627-.392 5.388-1.035 8.052-.552 2.291-.527 4.716-.801 7.074-.24 2.068-.454 4.146-.838 6.188-.325 1.73-.766 3.42-1.9 4.906-.877 1.148-1.396 2.566-2.086 3.86-.885 1.65-1.784 3.295-2.676 4.944.085.798-.083 1.554-.387 2.283-.732 1.393-1.596 2.698-2.631 3.879-2.543 2.896-4.972 5.539-6.543 9.466-2.12 5.3-7.49 8.064-13.392 9.203-5.47 1.056-10.016-.425-14.023-4.093-.997-2.765.163-4.6 2.522-5.971 2.076-1.209 4.287-2.159 6.372-3.348 4.176-2.376 4.625-4.357 2.463-8.523-1.798-3.46-1.576-7.024.392-10.431.527-.355.873-.9 1.351-1.308l-.058.053c.103-.311.366-.5.567-.735l.006-.012c.4-.301.239-.975.781-1.182l-.07.067c.085-.337.336-.543.588-.746l-.016.02c.179-.201.342-.415.485-.644.171-.059.237-.175.201-.354.048-.418.287-.7.644-.896l-.047.056c.146-.3.375-.518.657-.686l-.024.03c.306-.388.203-.987.66-1.299l-.042.046c.17-.232.341-.462.522-.688.16-.063.21-.176.153-.34.042-.413.283-.692.619-.907l-.036.042c.14-.265.389-.452.54-.711l.03-.052c.448-.263.286-.897.71-1.173l-.026.032c.174-.214.338-.433.493-.662.167-.072.23-.198.186-.376.05-.394.29-.661.59-.89l-.01.019c.354-.343.201-1.006.762-1.222l-.07.069c.07-.344.325-.546.568-.759l-.009.013c.363-.34.214-.997.76-1.22l-.068.066c.082-.332.334-.536.572-.749l-.006.011c.366-.342.226-.984.737-1.236l-.061.064c.09-.317.358-.503.555-.742l.009-.016c.402-.307.256-.94.72-1.212l-.044.05c.123-.279.383-.465.538-.722l.026-.048c.44-.27.281-.896.699-1.183l-.023.029c.179-.204.337-.421.48-.65.17-.07.239-.196.204-.378.06-.405.293-.68.638-.874l-.042.052c.147-.29.376-.503.626-.699l-.012.02c.333-.371.25-.927.578-1.301l.013-.023c.417-.297.263-.939.73-1.2l-.047.053c.133-.296.376-.492.605-.702l-.004.003c.198-.224.412-.432.625-.638h.002c.205-.216.415-.424.63-.63l.002-.001c.57-.515.073-1.372.61-1.898l.006-.01c.398-.317.259-.935.696-1.228l-.033.042c.147-.262.391-.445.543-.704l.043-.057a1.54 1.54 0 0 0 .548-.582l.077-.077c.238-.126.426-.31.553-.553l.076-.077c.242-.13.426-.312.553-.552l.064-.068c.798-.64-.06-1.766.706-2.417l-.014.024c.34-.361.216-.985.71-1.261l-.055.062c.1-.3.37-.48.527-.741l.026-.046c.44-.272.279-.907.717-1.182l-.024.036c.323-.378.199-1.003.709-1.272l-.059.064c.09-.311.364-.493.535-.748l.015-.035c.43-.286.28-.903.692-1.198l-.014.021c.343-.36.21-.989.72-1.253l-.058.063c.093-.315.36-.498.55-.74l.015-.025c.221-.172.399-.379.538-.624l.077-.078c.24-.124.426-.312.552-.552l.077-.076c.242-.128.427-.312.553-.554l.078-.078c.24-.126.423-.31.552-.552l.077-.075c.24-.127.427-.315.553-.553l.078-.08a6.42 6.42 0 0 0 .707-.5l-.03.031c.207-.224.386-.216.534.063l-.02-.018c.725.087.993.693 1.355 1.195l-.037-.041c.247.21.456.456.662.702"/>
        <path fill="#1F9AFF" d="M469.025 23.827l-.26-.007-.2.17c-.394.261-.928.159-1.283.515l-.604.096c-1.879.364-3.762.34-5.643.011l-.282-.138-.312.029c-.365-.355-.952-.245-1.306-.622l.007.005a1.832 1.832 0 0 0-.617-.456c-.06-.204-.192-.288-.402-.252-.409-.08-.7-.294-.787-.723l.078.072c-.397-.07-.629-.303-.7-.699l.07.069c-.397-.07-.631-.302-.698-.699l.066.069c-.394-.069-.629-.303-.696-.698l.067.066c-.396-.068-.628-.302-.697-.697l.068.07c-.397-.072-.63-.304-.698-.7l.068.069c-.397-.072-.636-.3-.69-.708l.08.079c-.602-.151-.423-.86-.824-1.153l-.001-.002c-.253-.258-.5-.517-.544-.9.088-.175.041-.297-.139-.372-.31-.416-.253-.967-.52-1.398.125-.387.128-.763-.1-1.12-.395-1.046-.414-2.092.013-3.135a.95.95 0 0 0 .114-.986c.384-.664-.034-1.566.644-2.142l-.03.059c.278-.407.178-1.007.663-1.31l-.053.057c.146-.304.373-.528.673-.684l-.048.048c.154-.297.38-.523.677-.677l-.047.046c.155-.297.38-.522.677-.676l-.047.046c.153-.298.378-.522.676-.676l-.043.047c.152-.298.375-.522.674-.677l-.047.046c.156-.3.378-.527.69-.666l-.059.054c.245-.488.898-.326 1.18-.752l.028-.014c.272-.223.528-.473.902-.514.179.076.304.027.38-.15.364-.302.918-.18 1.246-.565h.004c.588-.524 1.432-.127 2.04-.576.956.14 1.91.191 2.865-.006.6.445 1.387.113 2.005.483l1.01.186c.349.025.595.262.882.422a.461.461 0 0 0 .517.167c.293.126.51.362.775.529l.052.032c.14.24.34.42.592.538l.072.072c1.121.94 2.148 1.968 3.09 3.088l.071.073c.11.254.295.437.546.553l.077.08c.13.251.306.462.53.636l.009.018c.231.256.471.507.537.867-.004 2.763-.008 5.53-.01 8.298-.027.386-.285.649-.5.935l-.019.037c-.439.271-.28.914-.732 1.18l.043-.049c-.145.282-.388.48-.598.705l.002-.003c-.215.208-.425.414-.623.636l-.003.003c-.221.198-.429.407-.627.629l-.005.002c-.22.197-.428.406-.626.626l-.002.004a7.91 7.91 0 0 0-.627.626l-.003.004c-.22.198-.43.406-.627.625l-.003.004c-.221.197-.43.407-.627.627l-.005.003c-.222.199-.427.416-.65.617l.012-.01c-.224.254-.473.481-.808.584"/>
        <path fill="#979898" d="M504.919 264.679c.503.132 1.017.237 1.51.402 1.143.381 1.226.558.81 1.517-.626 1.437-1.246 2.878-1.885 4.311-1.215 2.734-1.594 5.609-1.503 8.57.049 1.61.564 3.053 1.377 4.435 2.373 4.035 6.075 6.29 10.376 7.638 3.354 1.052 6.805 1.144 10.186.018 1.592-.53 3.174-1.19 4.277-2.531.917-1.114 2.082-1.306 3.389-1.21.149.144.193.282.136.419-.057.132-.113.198-.166.198l.02-.017c-.205.227-.398.466-.646.647l.014-.017c-.187.244-.402.46-.646.646l.018-.016a3.594 3.594 0 0 1-.648.647l.017-.018c-.19.246-.4.472-.668.636l.027-.03a1.832 1.832 0 0 1-.678.646l.041-.05c-.287.48-.901.356-1.265.69l.023-.014c-.331.419-.91.323-1.297.625l.032-.021c-.536.652-1.426.184-2.025.64l-.244-.03-.225.09a25.8 25.8 0 0 1-8.822 0l-.229-.09-.242.03c-.61-.441-1.463-.028-2.037-.588l.006.003c-.501-.575-1.417-.009-1.878-.689l.032.02c-.39-.296-.983-.192-1.292-.651l.036.04c-.273-.146-.466-.382-.687-.59l-.011-.007c-.317-.384-.95-.24-1.213-.721l.038.048a1.641 1.641 0 0 1-.675-.65l.036.033a1.782 1.782 0 0 1-.665-.664l.033.033a1.776 1.776 0 0 1-.663-.663l.033.034a1.8 1.8 0 0 1-.663-.665l.032.034c-.28-.161-.5-.383-.662-.664l.033.035a1.827 1.827 0 0 1-.664-.664l.034.034a1.735 1.735 0 0 1-.66-.67l.047.04c-.464-.244-.29-.9-.746-1.15l-.04-.06a6.876 6.876 0 0 0-.545-.676l.017.021c-.402-.314-.269-.921-.666-1.235l-.01-.013c-.341-.365-.251-.929-.595-1.293l.014.025c-.7-.773-.033-1.861-.61-2.664-.03-.582-.056-1.165-.086-1.749-.423-1.042-.418-2.085-.003-3.126a.727.727 0 0 0 .059-.572c.635-.76-.03-1.81.574-2.579a.655.655 0 0 0 .076-.517c.29-.421.222-.986.567-1.386l.01-.018c.401-.318.285-.888.603-1.246l.017-.032c.642-.457.051-1.385.702-1.837l-.018.033c.259-.457.547-.892 1.026-1.155"/>
        <path fill="#D7DEE8" d="M387.976 201.076c.517-.24.996-.164 1.462.153 1.112.762 2.235 1.506 3.343 2.28.847.593 1.613 1.311 2.633 1.622-.156.263-.255.595-.478.774-.94.756-.82 1.625-.3 2.514.208.357.571.617.827.947.722.937.72 1.226-.168 2.13-.659.672-1.392 1.273-2.09 1.906-.91.826-1.184 2.114-.528 3.07.654.957 1.482 1.754 2.574 2.258.637.295 1.152.26 1.75-.124.88-.564 1.8-1.075 2.747-1.522 1.336-.63 1.907-.456 2.613.728.375.63.682 1.302 1.015 1.954.288.563.564 1.13.857 1.685 1.098 2.1 2.552 3.547 5.186 2.788 1.426 2.415-.426 3.783-1.861 5.004-1.823 1.551-2.921 2.988-2.09 5.594.633 1.984-.23 3.708-2.377 4.49-2.256 1.685-2.26 1.707-5.025.958-1.28-.349-2.683-.435-3.629-1.596-.29-.356-.743-.267-1.158-.135-1.261.4-2.186-.143-3.065-1.005-.73-.719-1.307-1.64-2.341-2.011-.754-.456-1.3-1.104-1.457-1.963-.46-2.508-1.739-4.668-2.851-6.903-.404-.471-.752-1.009-1.222-1.406-1.62-1.368-1.716-3.043-.898-4.799.332-.708.476-1.286.302-2.057-.136-.585-.017-1.244.06-1.86.359-2.888.827-5.762 1.08-8.656.108-1.241.484-2.19 1.36-3.035 1.274-1.228 2.49-2.519 3.73-3.783M444.544 212.331c-.175-.113-.38-.195-.525-.34-.867-.88-1.756-.958-2.77-.205-1.089.812-2.232 1.55-3.347 2.332-.575.402-1.111.528-1.665-.044-1.819-1.87-3.825-3.572-5.31-5.868.654-.816 1.295-1.612 1.929-2.415.764-.967.629-2-.003-2.912-.792-1.147-1.713-2.12-3.387-1.517-.56.2-1.25.02-1.876.064-1.01.074-1.843-.24-2.508-1.012-.205-.238-.414-.488-.667-.659-2.233-1.512-2.587-3.91-2.996-6.285-.17-.99.402-1.562 1.114-2.063 2.486-2.72 2.526-2.85 6.095-1.752 4.179 1.287 8.488 2.135 12.569 3.734.541.214.995.117 1.506.052 3.07-.402 5.462.767 7.424 3.108.759.903 1.197 1.993.695 2.875-1.302 2.29-.95 4.889-1.649 7.28-.334 1.149-.672 2.169-1.574 2.96-1.02.889-1.77 2.083-3.055 2.667"/>
        <path fill="#1F9AFF" d="M396.248 160.022c3.492-.366 6.688 2.279 6.778 6.303.076 3.415-3.967 6.646-6.73 6.717-2.648.066-6.38-3.275-6.31-6.665.045-2.194 1.584-3.559 2.724-5.127.88-1.209 2.256-1.396 3.538-1.228"/>
        <path fill="#FAFDFF" d="M403.091 239.328c1.796-1.54 2.064-3.447 1.423-5.621-.261-.883-.357-1.817-.539-2.787.758-.382 1.55-.664 2.195-1.143.747-.558 1.308-1.362 2.049-1.927 1.252-.956 1.393-2.212 1.2-3.611.415-.006.84-.07 1.245-.006 2.988.469 4.479 2.496 4.067 5.473-.154 1.109-.643 1.962-1.739 2.38-.29.11-.573.337-.859.342-2.254.042-3.427 1.742-4.867 3.066-1.289 1.183-1.447 2.421-.419 3.824-.152.408-.438.623-.883.637-1.013.04-1.977-.135-2.873-.627"/>
        <path fill="#1F9AFF" d="M417.603 167.889c-.03 2.026-1.916 3.982-3.718 3.86-1.655-.111-3.152-2.061-3.116-4.058.038-2.032 1.479-3.343 3.675-3.337 1.773.005 3.19 1.589 3.16 3.535"/>
        <path fill="#F6F4F4" d="M383.565 226.673c2.06 1.045 2.812 2.91 3.154 5.034.215 1.328.389 2.67 1.154 3.831-1.482.108-2.86-.37-4.215-.845-.797-.28-1.498-.855-1.472-1.8.06-2.154.347-4.275 1.38-6.22"/>
        <path fill="#D3D4D3" d="M364.103 232.485c-.19-.689.084-1.554-.754-1.997.238-.599.478-1.196.713-1.791 1.172 1.25.65 2.518.04 3.788"/>
        <path fill="#C3C7CA" d="M374.722 173.889c-.374-.09-.64-.28-.662-.702.368.097.565.35.662.702"/>
        <path fill="#D7DEE8" d="M440.917 132.9c-1.89-.062-4.518-.826-7.146-1.47-9.85-2.406-19.675-4.908-29.502-7.4a43.118 43.118 0 0 1-4.198-1.304c-1.603-.584-2.073-1.37-2.022-3.125.017-.52.035-1.067.2-1.548.543-1.57.543-3.318 1.54-4.738 1.692-.426 3.247.282 4.854.583 4.72.879 9.456 1.66 14.165 2.585 3.074.604 6.108 1.413 9.168 2.088a1768.06 1768.06 0 0 0 16.524 3.577c.734.154 1.442.305 2.035.754.213.16.44.55.39.778-.482 2.236-.66 4.534-1.544 6.696-1.013 2.478-1.023 2.564-4.464 2.523M399.915 88.914c0-.733.012-1.469-.002-2.204-.022-1.098.299-2.152 1.011-2.913 1.418-1.514 2.595-3.216 4.266-4.553 1.934-1.546 3.948-1.528 5.912-.848 4.288 1.488 7.264 4.34 8.594 8.88 1.117 3.815-.302 6.065-2.472 8.177-1.256 1.224-2.912 2.048-4.602 2.665-4.049 1.475-9.276-.196-11.705-3.755-.596-.876-1.021-1.83-1.003-2.931.014-.84.004-1.68.001-2.518M439.588 95.724c-.022-.859.147-1.965.506-3.084.68-2.113 2.193-3.24 4.194-3.82.991-.287 2.028-.459 3.058-.582 3.059-.369 5.56.888 7.513 3.064 1.404 1.566 2.125 3.63 2.286 5.73.138 1.802-.558 3.506-1.61 4.972-1.238 1.73-2.967 2.872-4.883 3.792-1.797.862-3.553.407-5.107-.342-2.274-1.096-4.133-2.755-5.267-5.158-.661-1.398-.682-2.816-.69-4.572"/>
        <path fill="#1F9AFF" d="M481.79 109.93c-.122-3.31.701-6.441 1.909-9.483.346-.87.826-1.7 1.352-2.473.416-.612 1.034-1.042 1.852-1.024.411.008.861.113 1.227-.018.675-.239 1.267-.842 2.049-.476.987.458 1.66 1.268 2.134 2.224.66 1.324 1.13 2.742 1.248 4.202.262 3.261.09 6.506-1.069 9.614-.74 1.986-1.718 3.814-3.678 4.93-2.643 1.504-4.577.96-6.222-1.96-.507-.9-.78-1.95-.8-3.018-.015-.839-.003-1.679-.003-2.518"/>
        <path fill="#D7DEE8" d="M444.124 56.051c2.082.158 4.785.362 7.234 1.735 1.041.585 1.736 1.351 2.205 2.513.772 1.913.525 3.248-1.341 4.67-2.069 1.572-4.338 2.836-7.209 2.477-1.396-.175-2.65-.522-3.843-1.2-2.92-1.653-4.06-4.147-3.391-7.4.11-.539.382-.95.8-1.301 1.602-1.358 2.21-1.55 5.545-1.494"/>
        <path fill="#8B8C8C" d="M446.041 270.703c1.282-.104 2.277.22 3.064 1.127.31.358.368.706-.006 1.059-.335.31-.74.43-1.106.15-.789-.608-1.65-1.17-1.952-2.336"/>
        <path fill="#949394" d="M452.198 146.703c3.142-.003 6.142.967 9.226 1.377.67.089 1.266.664 1.914.983.542.265 1.423.167 1.546.87.16.904-.882.989-1.382 1.438-.433.387-1.009.324-1.396-.125-1.69-1.963-4.216-2.145-6.406-3.039-.51-.208-1.019-.138-1.51.094-1.026.48-1.54-.176-2.012-.917-.154-.156-.202-.307-.144-.457.055-.15.112-.224.164-.224"/>
        <path fill="#858787" d="M452.198 146.703l-.02.681c-5.71-.975-11.442-1.849-17.124-3.451.58-.462 1.134-.419 1.621-.301 4.05.986 8.249 1.163 12.26 2.329 1.077.313 2.355-.283 3.263.742"/>
        <path fill="#858585" d="M343.652 236.91c-.162.097-.332.288-.466.266-.491-.084-.59-.468-.48-.884.037-.124.3-.298.403-.268.422.123.644.42.543.886"/>
        <path fill="#4F2808" d="M482.62 115.409c.148 1.356.627 2.647 1.571 3.703 1.24 1.397 2.81 1.831 4.54 1.153 1.607-.63 2.909-1.668 3.7-3.236 2.486-4.902 2.82-9.998 1.28-15.238-.267-.904-.73-1.74-1.419-2.412-.3-.29-.604-.628-.975-.772-.933-.369-1.833-.401-2.427.776.356.233.671.534 1.044.667 1.463.52 2.127 1.715 2.422 3.065.92 4.192.726 8.322-1.022 12.299-.465 1.062-1.136 2-2.168 2.623-1.803 1.088-3.532.602-4.422-1.31-.258-.558-.415-1.186-.51-1.796-.577-3.694-.054-7.297 1.12-10.802.527-1.572 1.1-3.17 2.59-4.186.224-.15.357-.531.01-.763a.867.867 0 0 0-.578-.13c-1.152.22-1.753 1.087-2.226 2.036-2.244 4.525-3.072 9.315-2.53 14.323"/>
        <path fill="#250D08" d="M479.975 85.527c1.073-.62 2.212-1.142 3.038-2.11.19-.225.315-.505.452-.729-.07-.149-.091-.276-.157-.306-.175-.08-.402-.205-.557-.155a6.706 6.706 0 0 0-3.236 2.291c-.062.082-.126.187-.123.28.006.196.034.398.093.584.076.257.248.284.49.145M405.893 71.903c2.364.856 4.717 1.75 7.12 2.489 6.524 2.013 13.236 3.265 19.958 4.293 10.082 1.544 19.94 3.911 29.654 6.947 4.293 1.343 8.664 2.363 13.062 3.265.148.032.4-.13.494-.272a.777.777 0 0 0 .09-.588c-.203-.664-.699-.98-1.373-1.11-2.368-.458-4.717-.96-7.029-1.68-5.202-1.62-10.35-3.398-15.636-4.754-5.181-1.328-10.376-2.582-15.652-3.434-8.384-1.354-16.732-2.842-24.897-5.245-1.8-.529-3.677-.787-5.35-1.136-.547.163-1.133-.015-1.043.633.03.225.352.503.602.592"/>
        <path fill="#172B4D" d="M456.696 91.95c-.76.078-1.37.478-2 .851-1.525.907-3.076 1.777-4.58 2.722-.653.407-1.163.317-1.675-.17-1.208-1.155-2.404-2.324-3.624-3.467a51.898 51.898 0 0 0-2.335-2.079c-.342-.282-.811-.284-1.176-.045-.361.234-.507.646-.504 1.082.009 1.093.496 2.017 1.078 2.896 1.037 1.56 2.091 3.108 3.291 4.884-1.26.957-2.37 1.74-3.414 2.606-.823.683-.99 1.748-.516 2.519.408.659 1.299 1.002 2.21.675a35.352 35.352 0 0 0 3.748-1.576c.893-.444 1.568-.333 2.223.382.495.54 1.017 1.055 1.554 1.548 1.08.99 2.165 1.972 3.282 2.913.305.259.709.41 1.166.28 1.93-.556 2.767-2.414 1.783-4.13-.302-.531-.817-.94-1.226-1.413-.793-.916-2.465-1.444-2.26-2.753.197-1.245 1.95-1.375 2.89-2.175.234-.201.532-.332.798-.498a4.76 4.76 0 0 0 1.52-1.549c.48-.77.6-1.559.18-2.371-.406-.782-1.436-1.23-2.413-1.132M401.217 123.37c-1.05-.278-1.287-.56-.997-1.509.487-1.589.535-3.302 1.346-4.8 1.694-.244 3.246.427 4.854.738 4.524.872 9.065 1.682 13.577 2.604 2.668.542 5.293 1.267 7.945 1.878 5.711 1.327 11.427 2.63 17.139 3.946.773.178 1.098.612.91 1.354-.411 1.624-.897 3.226-1.341 4.841-.176.637-.635.75-1.643.663-.283-.06-.998-.218-1.716-.36-8.024-1.55-15.893-3.77-23.852-5.596-5.003-1.15-9.996-2.33-14.994-3.493-.406-.095-.822-.156-1.228-.265m35.15 10.75c2.031.502 4.077.956 6.136 1.324 1.918.342 2.621-.05 3.432-1.886.502-1.14.86-2.357 1.205-3.562.29-1.002.474-2.036.677-3.062.095-.48.7-.93.261-1.421-.327-.369-.826-.612-1.285-.835-.368-.183-.782-.287-1.189-.378-4.908-1.055-9.864-1.929-14.72-3.189-9.542-2.467-19.28-3.915-28.914-5.887-1.254-.257-1.57-.13-1.89.95-.596 2.003-1.197 4.014-1.308 5.848-.044 1.784.276 2.364 1.728 2.875 1.778.623 3.578 1.203 5.402 1.662 10.15 2.545 20.306 5.06 30.464 7.56M401.375 95.202c1.685.137 3.328.05 4.93-.627 1.032-.434 2.046-1.576 3.145-1.043.965.467 1.618 1.585 2.394 2.427 1.133 1.236 2.191 2.543 3.597 3.494.342.232.72.492 1.112.547.97.132 2.678-1.708 2.55-2.712-.15-1.193-.846-2.05-1.662-2.91-3.983-4.183-4.014-3.192 1.196-5.967.645-.338 1.346-.583 1.98-.94a8.896 8.896 0 0 0 1.538-1.08c.963-.854 1.077-2.142.232-3.387-.606-.899-1.598-1.395-2.734-.854-1.133.536-2.268 1.073-3.388 1.644-1.49.76-2.953 1.579-4.452 2.327-1.218.61-1.453.55-2.405-.527-.764-.86-1.455-1.787-2.226-2.644a72.235 72.235 0 0 0-3.023-3.19c-.358-.355-.847-.607-1.32-.805-.656-.274-1.618.544-1.396 1.211.264.783.618 1.55 1.022 2.27 1.282 2.275 2.604 4.525 3.899 6.757-1.679 1.814-2.649 2.47-5.175 3.526-.38.159-.777.288-1.129.491-.464.267-.477 1.01-.085 1.353.41.357.865.594 1.4.64M413.488 168.92c.22-.37.6-.569 1.412-.487.156.078.65.26 1.059.553.624.45.77 1.327.387 1.951-.375.61-.968.776-1.62.676-1.127-.173-1.825-1.687-1.238-2.694m1.227 5.105c2.021.055 4.064-2.027 4.005-4.078-.05-1.819-1.683-3.498-3.399-3.495-2.415 0-3.847 1.322-3.872 3.586-.029 2.022 1.543 3.941 3.266 3.987M393.998 166.79c.406-.114.846-.188.975-.64.313-1.115 1.206-.947 2.024-.97.838-.002 1.662.058 2.446.401 1.455.636 2.18 2.067 1.794 3.57-.47 1.853-2.166 3.054-4.236 3.003-1.947-.052-3.688-1.474-3.963-3.339-.122-.829-.111-1.722.96-2.024m3.123 8.53c3.49-.028 6.894-3.424 6.837-6.922-.064-3.946-2.785-6.372-7.028-6.37-1.333 0-2.582.204-3.41 1.255-1.28 1.623-2.925 3.15-2.816 5.442.188 3.948 3.641 6.615 6.417 6.594"/>
        <path fill="#172B4D" d="M398.858 268.599c.808 4.665 1.013 9.374 1.163 14.096.072 2.3.404 4.588.61 6.886.326 3.656.654 7.313.974 10.973.09 1.044.224 2.088.238 3.138.116 7.143 1.047 14.22 1.71 21.321.153 1.653.372 3.3.236 4.89-.884.245-1.45-.128-2.018-.343-8.349-3.149-16.798-5.954-25.588-7.613-1.11-.211-1.342-.525-1.393-1.73-.283-7.027-1.123-14.008-1.749-21.006-.51-5.746-.877-11.512-1.53-17.242-.79-6.875-1.81-13.722-2.733-20.582-.127-.935-.282-1.866-.395-2.805-.062-.528-.026-1.063.445-1.425 1.413-1.085 1.34-2.484.497-4.355 5.47 1.201 10.073 2.948 14.665 4.716 2.349.904 4.663 1.891 6.996 2.834 2.998 1.209 4.781 1.37 4.55.63-.55-1.783-2.259-2.358-3.723-3.048-3.7-1.746-7.572-3.076-11.412-4.483-.974-.357-2.252-.207-2.8-1.428 1.174-.497 2.264.073 3.33.364 4.451 1.215 8.87 2.539 13.314 3.776 3.335.928 6.693 1.762 10.03 2.674 1.426.391 1.453.438 1.471 1.949.031 2.836.089 5.67-.007 8.502-.11 3.379.434 6.702.694 10.044.517 6.59 1.155 13.166 1.816 19.742.78 7.72 1.63 15.433 2.482 23.148.137 1.247.266 2.551.738 3.69.64 1.55.012 2.309-1.193 3.065-.973.615-1.803 1.441-2.745 2.103-.412.292-.807.056-.922-.43a11.24 11.24 0 0 1-.244-1.547c-.612-6.371-1.292-12.733-1.791-19.11-.31-3.973-.31-7.966-.783-11.93-.572-4.792-1.027-9.596-1.53-14.393-.349-3.339-.694-6.675-1.024-10.013-.215-2.207-.86-4.318-1.418-6.444a.546.546 0 0 0-.732-.367c-.138.05-.254.322-.265.501-.029.415-.037.843.036 1.252m102.4-13.077c5.475-.763 9.913-3.055 14.131-5.848.61-.404 1.171-.89 1.796-1.268.358-.217.854-.295 1.042.238.448 1.28.906 2.566 1.232 3.882.226.912.144 1.859-.138 2.792-1.49 4.862-6.53 8.37-11.535 8.027-2.175-.149-3.785-.978-4.55-3.186-.51-1.47-1.215-2.869-1.978-4.637m-6.53-16.44c-.21-.528-.26-1.128.405-1.258 1.95-.396 3.901-.789 5.754-1.53 1.94-.776 3.884-1.553 5.77-2.454 1.774-.852 3.47-1.869 5.2-2.81.87.888.987 2.09 1.39 3.152 1.29 3.422 2.485 6.882 3.732 10.323.277.77.224 1.422-.468 1.951-4.025 3.082-8.376 5.535-13.294 6.881-.504.136-1.028.196-1.549.265-.689.093-1.236-.126-1.506-.814-.495-1.265-.965-2.54-1.466-3.806-1.317-3.302-2.645-6.598-3.967-9.9m-6.07-19.647c5.405-1.299 10.774-2.681 15.542-5.712.707-.45 1.16-.273 1.456.485 1.71 4.388 3.422 8.774 5.096 13.174.467 1.224.29 1.655-.754 2.409-.424.305-.867.599-1.328.836-3.252 1.7-6.576 3.247-10.06 4.407-1.188.39-2.428.643-3.663.858-1.399.246-1.633.139-2.25-1.095a147.832 147.832 0 0 1-6.404-14.673c.973-.285 1.662-.519 2.365-.69m-10.145-15.48c-.74-1.23-.692-1.468.32-2.42 1.85-1.73 3.945-3.124 6.106-4.42 3.246-1.946 6.664-3.537 10.276-4.678 1.675-.528 2.041-.388 2.648 1.16 2.103 5.363 4.16 10.742 6.232 16.114.187.486.344.983.527 1.51-.203.273-.33.595-.564.73-.628.37-1.298.676-1.964.98-4.206 1.927-8.636 3.201-13.058 4.5-.803.237-1.643.378-2.4.711-.842.373-1.214-.092-1.435-.692-1.744-4.741-4.081-9.181-6.688-13.494m-26.159 40.937c-.18.722-.697 1.006-1.387 1.006-.167 0-.479-.192-.469-.266.034-.28.09-.647.284-.804.4-.326.896-.54 1.414-.179.073.052.104.159.158.243m-110.402 50.404c-.436-.436-.23-.973-.226-1.468.056-4.577-1.61-8.6-4.02-12.362-1.75-2.732-4.22-4.623-7.213-5.852-.564-.232-1.259-.209-1.674-.871-.135-.673.543-.78.916-.994 4.453-2.549 8.943-5.04 13.392-7.6.931-.533 1.743-.507 2.648-.047 3.47 1.77 6.156 4.35 7.96 7.794 1.46 2.793 2.37 5.809 3.271 8.82.428 1.442.224 2.552-1.192 3.488-4.106 2.717-8.126 5.57-12.186 8.354-.505.348-.992.786-1.676.738m5.948-77.107c.358.295.645.455.827.693 2.729 3.57 6.4 5.64 10.673 6.766.808.215 1.618.43 2.422.669 1.172.347 1.378.73.824 1.817-1.525 2.985-3.066 5.966-5.245 8.552-2.074 2.466-5.716 3.132-8.515 1.505-2.02-1.173-3.654-2.79-5.03-4.67-.769-1.05-1.112-2.246-1.166-3.529-.098-2.361.364-4.605 1.638-6.607 1.12-1.758 2.36-3.445 3.572-5.196m-21.258 50.657c-.156-3.036-.236-6.076-.384-9.114-.106-2.189-.282-4.374-.422-6.523.82-.425 1.232.179 1.72.486 3.643 2.293 7.6 3.457 11.917 3.46 2.244 0 4.39-.43 6.434-1.292 4.105-1.727 7.947-3.848 10.335-7.843.534-.898 1.237-1.847 1.328-2.822.174-1.845 1.198-2.943 2.44-4.122 1.264-1.203 2.239-2.708 3.34-4.08.083 4.756-.867 9.254-1.816 13.756-.3 1.428-1.097 2.102-2.408 2.512-7.96 2.502-15.316 6.28-22.293 10.807-2.458 1.597-4.775 3.418-7.152 5.142-.751.546-1.404 1.247-2.365 1.533-.825-.41-.639-1.23-.674-1.9m33.372-68.707c.99 1.16 1.833 2.227 2.756 3.22 1.363 1.463 2.896 2.691 4.813 3.42 1.472.563 1.483.69 1.295 2.044-.408 2.9-.851 5.795-1.232 8.699-.193 1.474-.535 2.856-1.49 4.051-.39.486-.644 1.079-.926 1.64-.986 1.937-1.102 2.422-3.626 1.486-2.654-.985-5.179-2.252-7.633-3.642-1.079-.614-2.13-1.387-2.961-2.299-2.134-2.341-2.056-2.108-.515-4.474 2.74-4.204 5.457-8.428 8.197-12.634.34-.52.572-1.13 1.322-1.511m6.32-21.099c.093-.037.222.02.352.086-.057-.227-.01-.213.122.056l.058.029c.004 0 .008.001.01.003l.006.002a.032.032 0 0 1 .013.006c-.006-.004-.013-.005-.018-.006a.746.746 0 0 0-.049-.014c-1.166 1.97-2.326 3.945-3.509 5.907-.331.547-.786.974-1.503.956-.446-.008-.938-.122-.821-.64.687-3.026 2.387-5.247 5.34-6.385m.464 14.261c-.383.118-.788.167-.854.18-1.275.041-1.644-.515-1.24-1.349.089-.183.19-.36.3-.529.63-.979 1.396-1.035 2.212-.173.709.75.529 1.58-.418 1.871m3.558 1.732c-.314 3.095-.563 5.678-.842 8.255-.066.614-.241 1.214-.346 1.723-.841.524-1.293-.095-1.759-.396-2.214-1.414-4.144-3.149-5.702-5.275-.786-1.07-.743-1.338.022-2.476.528-.786 1.098-.707 1.863-.378 1.868.802 3.656.584 5.329-.594.326-.23.69-.418 1.435-.86m2.315-15.25c.044.107.133.212.116.299-.615 3.272-1.24 6.542-1.862 9.811-.244-.046-.502-.013-.601-.122-.78-.832-1.929-1.586-2.184-2.565-.31-1.2.97-2.178 1.557-3.25.598-1.099 1.269-2.157 1.923-3.224.253-.41.473-.889 1.051-.949m62.384.776c.173-.088.442-.152.587-.076.143.076.187.342.275.525-.058 1.318-.55 2.169-1.517 2.413-.218.056-.733-.202-.758-.368-.177-1.171.405-1.974 1.413-2.494m11.602 21.92a38.923 38.923 0 0 1-2.645-1.684c-.217-.151-.419-.52-.4-.773.046-.61.568-.47.96-.432 1.14.108 2.276.241 3.345.355.354.76.04 1.35-.108 1.937-.164.655-.644.898-1.152.597m-52.378 32.556c-.048.414-.1.832-.226 1.224-.134.402-.405.718-.894.715-.435-.004-.848-.127-1.092-.491-.165-.246-.233-.568-.3-.868-.233-1.012-.446-2.032-.664-3.05-.554-2.581-1.981-4.538-4.175-5.99-1.521-1.006-1.501-1.044-1.035-2.736.052-.197.139-.39.238-.573.046-.087.153-.139.23-.204 5.792 1.475 8.412 7.817 7.918 11.973m6.429-2.228c.254 1.12.59 2.224.85 3.345.117.504.159 1.032.185 1.554.05.984-.345 1.358-1.688 1.206-.31-.082-1.022-.26-1.726-.451-1.827-.497-1.759-.497-1.669-2.48.274-6.07-2.028-10.863-7.409-13.85-3.41-1.891-2.744-1.09-2.432-4.776.23-2.712.688-5.4 1.07-8.095a5.401 5.401 0 0 1 .44-1.476c.387-.805 1.05-1.029 1.8-.55a64.515 64.515 0 0 1 3.884 2.657c3.496 2.593 3.869 2.386.121 5.401-1.598 1.288-1.633 2.425-.257 3.97.35.39.723.757 1.1 1.122.93.913 1.903 1.128 3.105.4 1.07-.644 2.24-1.132 3.38-1.658.418-.192.819-.062 1.095.322 1.735 2.4 2.935 5.065 3.816 7.874.228.733-.061 1.245-.785 1.44-.906.246-1.832.412-2.751.63-1.992.473-2.584 1.403-2.13 3.415m29.156 10.931c-.577.057-.89.155-1.182.107-5.07-.832-10.138-1.675-15.202-2.534-.618-.107-1.222-.294-1.82-.485-.47-.147-.572-.575-.605-1.001-.035-.463.137-.797.639-.907 1.89-.41 3.517-1.362 4.998-2.555 2.901-2.333 3.568-5.065 1.987-8.386-1.827-3.83-5.701-6.062-9.117-5.332-1.48.316-2.055-.263-2.613-1.448-.85-1.803-1.88-3.514-3.311-4.945-.5-.498-1.027-.648-1.681-.267-1.36.794-2.735 1.557-4.103 2.334-.404.23-.768.261-1.097-.148-.386-.485-.377-.906.047-1.38.842-.93 1.679-1.87 2.454-2.857.7-.89.96-1.853.166-2.873a3.178 3.178 0 0 1-.57-1.103c-.34-1.295.322-2.295 1.657-2.479 1.664-.228 3.333-.418 5.004-.565 1.579-.14 1.83.08 2.08 1.578.037.206.022.42.06.626.281 1.561.713 2.005 2.213 2.12 1.148.087 2.31.037 3.459.136 1.686.144 2.832-.557 3.505-2.069.167-.378.25-.795.7-1.011 1.856.233 3.63.875 5.398 1.536.864.324 1.712.69 2.499 1.007.083 1.194-.586 1.944-.97 2.786-.603 1.31-.518 2.45.641 3.385 2.092 1.683 3.566 3.791 4.65 6.244.768 1.74 1.09 1.785 3.223 1.406 1.033-.183 1.39.011 1.518.989.138 1.036.184 2.088.244 3.133.044.714-.286 1.122-.994 1.377-.567.21-1.026.697-1.568 1-.802.446-1.169 1.107-1.336 2a18.756 18.756 0 0 1-1.69 5.053c-.981 1.937-1.124 3.781.717 5.528m7.068-39.443c-1.087-1.274-2.23-2.506-3.328-3.772-.67-.773-1.432-1.217-2.481-.942a1.551 1.551 0 0 1-.311.062c-4.164.31-4.555-.1-4.27-4.516 1.39-.066 2.627.557 3.923.898 3.136.826 6.26 1.72 9.399 2.537.82.212 1.256.618 1.375 1.46.434 3.047 2.358 4.529 5.369 4.902.39 1.855-.593 3.462-.826 5.435-2.62-.954-2.62-.954-4.723.47-.525.354-1.045.704-1.563 1.064-1.635 1.14-1.609 1.212-3.05-.396-.808-.902-.786-1.089.042-2.115.197-.246.434-.458.626-.705 1.388-1.803 1.368-2.57-.182-4.382m59.08-14.17c-6.942 2.313-13.391 5.706-19.013 10.843-1.49-2.035-2.263-4.264-2.687-6.629-.626-3.498-.202-6.895 1.079-10.193.991-2.551 2.172-4.985 4.045-7.046.922-1.015 2.003-1.46 3.324-1.492 2.294-.055 4.226.592 5.972 2.244 3.113 2.951 5.39 6.397 6.953 10.353.222.559.604 1.122.327 1.92m-43.695-36.836c-.357 1.41-.635 2.62-.985 3.81-.203.683-.683.958-1.45.8-3.484-.731-6.975-1.419-10.462-2.135-6.264-1.289-12.382-3.118-18.472-5.033-1.525-.48-1.572-.646-1.568-2.258 0-.524.027-1.05.094-1.569.023-.183.192-.353.371-.662 3.564.518 7.066 1.562 10.613 2.391 3.672.857 7.325 1.781 11.015 2.568 3.565.764 7.163 1.388 10.844 2.088m5.09-143.868c.147-.362.475-.69.788-.946 3.113-2.507 9.093-2.895 12.5-.792 1.705 1.048 2.669 2.664 3.02 4.584.585 3.201-.455 5.986-2.444 8.472-.894 1.116-2.117 1.714-3.467 2.01-1.017.224-2.07.286-2.68.367-4.3-.004-6.953-1.547-8.134-4.801-1.076-2.97-.754-5.982.418-8.894M382.6 134.078c-1.46-.226-1.637-.428-1.425-1.798.235-1.555.456-3.119.817-4.646 1.205-5.122 1.706-10.337 2.184-15.557.664-7.205 1.28-14.415 2-21.616.313-3.126.793-6.24 1.275-9.348.628-4.047 1.036-8.113 1.299-12.198a15.96 15.96 0 0 1 .177-1.562c.145-.875.545-1.12 1.252-.657 1.971 1.295 4.286 1.67 6.441 2.452.266.096.62.03.906-.055.166-.048.336-.265.39-.44.056-.169.03-.439-.076-.567a2.354 2.354 0 0 0-.72-.583c-.744-.39-1.523-.712-2.258-1.114-1.22-.672-2.937-.477-3.63-2.071.928-1.086 2.328-1.27 3.527-1.82 2.965-1.353 6.083-2.283 9.227-3.099 3.659-.953 7.238-2.129 10.784-3.42.789-.287 1.546-.678 2.354-.894 3.582-.955 6.908-2.44 9.918-4.616.632-.456 1.248-.58 2.048-.311 5.46 1.84 10.907 3.73 16.572 4.873.62.124.9.579.77 1.147-.466 2.062-.662 4.145-.528 6.25.057.823.028 1.747 1.078 2.044.82.23 1.61-.256 2.083-1.506.702-1.86 1.248-3.777 1.887-5.66.328-.975.678-1.233 1.602-1.04 2.356.493 4.716 1.004 7.05 1.597 4.987 1.261 10.027 2.214 15.144 2.782 5.005.554 9.946 1.526 14.846 2.673a73.17 73.17 0 0 0 9.923 1.608c2.006.186 3.915.647 6.134 1.677-2.247 2.037-4.392 3.523-6.505 5.05-1.274.922-2.555 1.838-3.78 2.823-.648.52-1.216 1.153-1.76 1.786-.46.534-.522 1.634-.164 1.72.608.144.89-.378 1.295-.67 1.102-.798 2.194-1.624 3.343-2.351 2.396-1.516 4.746-3.09 6.942-4.891.476-.388 1.026-.69 1.526-1.02.698.452.349.963.264 1.396-2.134 10.796-4.35 21.575-6.398 32.387-1.112 5.87-1.914 11.8-3.4 17.597-1.092 4.264-2.176 8.526-3.348 12.767-.364 1.31-.09 2.965-1.08 3.872-.852.78-2.313.862-3.442 1.384-2.854 1.319-5.705 2.653-8.497 4.094-4.002 2.071-7.954 4.243-11.93 6.363-.542.29-1.058.693-1.742.63-.553-.924-.222-1.871-.08-2.753.831-5.069 1.578-10.158 2.63-15.18 2.087-9.964 3.658-20.003 4.91-30.097.245-1.976.65-3.93.944-5.9.089-.614.079-1.25.049-1.874-.014-.292-.126-.692-.53-.628-.267.044-.567.24-.738.456-.605.765-.768 1.722-.952 2.636-.292 1.437-.478 2.898-.692 4.35-1.08 7.363-2.002 14.756-3.276 22.086-1.058 6.087-2.464 12.118-3.38 18.235-.418 2.802-.728 5.613-1.107 8.421-.136.996-.474 1.239-1.486 1.025-1.022-.217-2.048-.45-3.04-.776a78.031 78.031 0 0 0-12.213-2.932c-7.57-1.185-14.944-3.278-22.392-5.02-7.86-1.839-15.706-3.75-23.69-4.977-5.8-.89-11.636-1.558-17.454-2.322-.627-.078-1.257-.115-1.878-.212m2.31 19.143c.619.03 1.236.191 1.84.345 4.47 1.135 8.908 2.41 13.408 3.396 6.144 1.344 12.344 2.42 18.5 3.702 14.368 2.992 28.71 6.093 42.926 9.753 1.52.388 3.078.627 4.628.882.372.063.924.063.955-.518.016-.245-.195-.586-.408-.747-1.101-.846-2.395-1.282-3.727-1.596-7.144-1.676-14.268-3.434-21.434-4.993-9.833-2.138-19.65-4.363-29.566-6.107-6.712-1.177-13.412-2.408-20.015-4.116-.905-.235-1.81-.48-2.851-.757.484-.782 1.18-.9 1.818-1.099 4.698-1.482 9.406-2.93 14.093-4.45 1.491-.483 3.014-.994 4.349-1.786 1.406-.832 2.737-.903 4.2-.429.493.16.992.294 1.604.477.247 1.075-.086 2.083-.352 3.056-.332 1.235-.38 2.485-.444 3.742-.054 1.176.482 2.065 1.464 2.594 1.198.636 2.433 1.258 3.72 1.667 6.093 1.932 12.224 3.744 18.476 5.102 3.482.751 6.979 1.445 10.467 2.165.515.11 1.02.25 1.536.325 2.617.38 4.465-.777 5.247-3.315.588-1.906.88-3.863.65-6.05 2.519.354 4.709.65 6.106 2.883.55.88.987.906 1.86.325 3.237-2.156 6.72-3.876 10.117-5.748 1.292-.714 2.474-.856 3.882-.432 5.12 1.536 10.307 2.818 15.594 3.666.285.046.696.107.606.522-.055.262-.281.546-.51.694-2.48 1.576-5.025 3.05-7.445 4.706-2.076 1.424-4.056 2.971-6.347 4.072-.737.352-1.351.97-1.999 1.497-.138.113-.23.369-.226.553.005.165.161.335.285.472.047.05.213.03.299-.012 2.263-1.084 4.635-1.93 6.711-3.4a62.281 62.281 0 0 1 7.528-4.564c.543-.282 1.041-.716 1.934-.64.53 2.544-.397 5.048-.465 7.583-.074 2.604-.24 5.205-.812 8.035-1.609-.918-3.092-1.656-4.46-2.567-1.988-1.322-4.093-1.559-6.316-.925-4.81 1.378-8.236 4.42-10.467 8.867-.514 1.02-.647 2.222-1.719 3.318.106-1.181.212-2.112.267-3.046.054-.944.077-1.89.08-2.834.003-.837-.006-1.678-.078-2.51-.025-.254-.236-.641-.437-.7-.618-.179-.622.375-.645.746-.545 9.223-1.867 18.358-3.05 27.511-1.541 11.958-3.069 23.922-4.618 35.882-.161 1.244-.431 2.472-.7 3.985-.506-.148-.805-.241-1.107-.32-2.01-.518-2.812-1.667-2.652-3.862.225-3.161-.562-6.223-1.602-9.226-1.142-3.289-2.979-6.021-5.914-7.902-1.086-.698-1.313-1.46-1.037-2.62.655-2.751 1.182-5.537 1.896-8.275.774-2.955 1.231-5.955 1.573-8.978.106-.95.285-1.77.819-2.62 1.1-1.75.073-3.889-1.945-4.324-.507-.108-1.042-.087-1.568-.11-3.681-.171-7.3-.734-10.836-1.788-6.846-2.04-13.797-3.583-20.906-4.37a25.853 25.853 0 0 1-1.247-.162c-.636-.104-.872-.523-.763-1.118 1.747-9.454 10.26-12.645 17.245-9.953.364.141.666.44.978.651-.174 1.156-1.224 1.49-1.758 2.242-1.183 1.676-1.549 3.422-.601 5.317.81 1.618 2.408 2.068 3.956 1.089 1.796-1.133 2.831-2.714 2.937-4.906.067-1.404.433-1.674 1.746-1.408 3.965.8 7.67 2.165 10.597 5.122.218.224.42.48.67.655.132.091.424.136.52.054.128-.109.248-.426.178-.543-.31-.533-.614-1.113-1.057-1.526-3.729-3.48-7.721-6.487-13.068-6.897-.664-.05-1.228-.253-1.662-.759-3.311-3.829-11.028-3.696-15.48-.72-3.378 2.253-5.679 5.24-6.714 9.176-.161.608-.253 1.233-.413 1.84-.242.92-.59 1.234-1.583 1.112-2.186-.264-4.38-.522-6.529-.976-2.663-.56-5.285-1.314-7.926-1.984-.712-.178-1.417-.442-2.137-.51-2.747-.252-4.829-1.48-6.634-3.618-1.857-2.197-4.521-3.351-7.235-4.262-.696-.236-1.398-.445-2.096-.67-.599-.192-.79-.607-.677-1.208.102-.514.17-1.036.273-1.55 1.188-5.855 2.377-11.71 3.576-17.566.284-1.388.748-1.777 2.124-1.709m-55.878 77.683a42.068 42.068 0 0 1 8.264-4.504c.43-.174.86.008.872.535.033 1.153-.016 2.307-.013 3.46.015 3.183 1.098 5.935 3.295 8.259 1.446 1.529 2.97 2.95 4.72 4.14 1.41.955 2.852 1.75 4.562 1.99.396.056.773.236 1.306.402-.528 1.456-1.428 2.41-2.598 3.115-6.008 3.626-12.16 4.043-18.606 1.081-7.33-3.37-7.582-14.444-1.802-18.478m-10.902 80.97c-.588-.543-.675-1.26-.705-2.01-.152-3.668-.415-7.333-.467-10.998-.117-8.186-.692-16.342-1.2-24.506-.405-6.493-1.047-12.962-1.554-19.445-.171-2.193-.493-4.376-.801-6.555-.087-.614-.327-1.217-.573-1.79a1.03 1.03 0 0 0-.993-.64c-.539.016-.655.432-.659.864-.001.626-.024 1.264.07 1.882.706 4.772 1.154 9.57 1.496 14.379.576 8.053 1.147 16.11 1.627 24.169.426 7.222.727 14.45 1.077 21.678.02.408-.05.822-.107 1.638-3.292-.83-6.32-1.651-9.38-2.346-3.88-.886-7.781-1.687-11.681-2.486-.874-.18-1.253-.645-1.262-1.498-.01-1.574.024-3.15-.06-4.72-.37-6.913-.818-13.816-1.146-20.727-.183-3.877-.105-7.767-.303-11.64-.274-5.341-.385-10.686-.958-16.01-.437-4.066-.603-8.16-.88-12.24a5.795 5.795 0 0 1 .027-1.257c.07-.487.445-.72.896-.598.807.219 1.588.524 2.38.792 4.366 1.486 8.72 2.998 13.094 4.448 1.93.64 3.138.469 3.015-.26-.228-1.336-1.465-1.368-2.403-1.68-3.28-1.095-6.586-2.106-9.884-3.152-.296-.097-.587-.22-.878-.331-.245-.091-.354-.269-.255-.489.082-.172.192-.397.346-.46 1.17-.458 2.35-.887 3.528-1.324.823-.302 1.651-.212 2.48-.01 4.785 1.174 9.526 2.502 14.165 4.179.492.18.978.378 1.448.601 1.842.88 2.82 2.192 2.889 4.39.27 9.117 1.311 18.193 1.523 27.325.138 5.964.67 11.927 1.502 17.858.79 5.611 1.61 11.208 2.789 16.749.217 1.018.11 1.814-.851 2.443-2.012 1.326-3.982 2.721-5.972 4.081-.56.38-.984.064-1.38-.304m12.139-10.118c-.396-2.27-.755-4.542-1.143-6.811-.97-5.681-1.563-11.407-2.026-17.143-.066-.83.38-1.205 1.14-.98 3.102.906 5.774 2.48 7.64 5.184 2.49 3.605 3.947 7.587 4.21 11.895 0 .618.01 1.14-.002 1.662-.01.78-.291 1.412-.975 1.849-2.559 1.634-5.104 3.287-7.667 4.914-.47.298-1.075.012-1.177-.57m34.889-21.532c-1.51.705-2.904 1.662-4.331 2.544-1.555.956-2.212 1.464-2.557-1.018-.257-1.852-.857-3.665-1.404-5.465-1.37-4.481-4.061-7.99-7.967-10.578-.601-.4-1.183-.834-1.756-1.234.208-.51.519-.757.905-.942 3.89-1.835 7.846-3.505 11.957-4.773 1.193-.37 2.454-.527 3.69-.736.733-.125 1.172.21 1.337.972.105.506.169 1.03.205 1.55.421 5.747.812 11.495 1.261 17.24.095 1.178-.175 1.9-1.34 2.44m72.544 20.058c-.277.218-.672.099-.77-.194-.197-.588-.288-1.214-.394-1.832-.446-2.684-.834-5.379-1.906-7.92-.944-2.237-2.12-4.322-3.593-6.25-1.757-2.3-3.905-4.072-6.685-5.012-.279-.096-.522-.3-1.156-.674 2.708-2.014 5.345-3.529 8.184-4.603 3.427-1.293 6.95-1.164 10.522-.387 3.445.75 6.861 5.73 5.754 9.933a23.146 23.146 0 0 1-1.395 3.828c-2.048 4.391-4.652 8.44-7.692 12.209-.263.326-.541.65-.869.902m-12.958 12.47c-.473-2.34-.872-4.702-1.456-7.016-.403-1.615-1.018-3.183-1.607-4.746-1.57-4.15-4.292-7.39-7.951-9.865a11.179 11.179 0 0 1-.511-.362c-1.497-1.132-1.563-1.853-.286-3.331.342-.4.714-.768 1.089-1.134 1.426-1.391 2.88-2.75 4.28-4.166 1.676-1.695 3.554-1.984 5.74-1.11 2.114.836 3.805 2.182 5.156 3.969a25.71 25.71 0 0 1 3.017 5.126c1.19 2.69 2.118 5.46 2.853 8.3.26 1.006.35 2.06.456 3.099.077.754-.15 1.43-.697 2.008-3.027 3.192-6.117 6.319-9.487 9.158-.126.104-.39.05-.596.07m-9.088 9.532c-.39-.093-.397-.45-.428-.746-.436-4.156-.857-8.318-1.284-12.476-.413-4.055-.84-8.112-1.23-12.17-.13-1.338-.159-2.688-.267-4.664 3.282 2.173 5.277 4.526 6.673 7.37 2.042 4.158 3.076 8.649 4.107 13.13.273 1.198.021 2.167-.939 3.102-2.022 1.966-3.902 4.08-5.833 6.136-.223.237-.464.402-.799.318m62.44-52.628c-.666 4.523-.646 3.736-3.752 5.497-4.653 2.638-9.261 5.358-13.884 8.055-1.341.78-2.638 1.657-4.224 2.168-.357-1.192-.04-2.202.045-3.215.141-1.67.28-3.342.395-5.015.008-.16-.218-.483-.273-.47-.28.066-.722.167-.773.35-.31 1.104-.54 2.236-.776 3.36-.388 1.847-.748 3.696-1.142 5.54-.132.613-.267 1.252-.952 1.532-.283.118-.6.372-.845.316-.563-.125-.372-.624-.303-1.002.075-.413.178-.824.31-1.22 1.208-3.72.602-7.332-1.04-10.701-2.17-4.449-5.815-7.09-10.812-7.627-4.498-.486-8.717.242-12.696 2.61-5.066 3.018-9.97 6.212-14.167 10.4-.414.415-.791 1.025-1.553.88-.106-.166-.278-.32-.3-.491-.236-1.873-.514-3.743-.654-5.625-.36-4.815-.498-9.637-.136-14.46.137-1.848-.516-3.512-1.066-5.196-.316-.97-1.224-1.398-2.165-1.65-1.722-.46-3.456-.868-5.173-1.338-6.573-1.8-13.136-3.625-19.71-5.421a75.141 75.141 0 0 0-4.275-1.032c-1.453-.309-2.537.829-3.875 1.083-2.355.447-4.585 1.468-7.003 1.668-.571-.388-.324-.913-.25-1.406.803-5.393 1.612-10.787 2.397-16.182a39.06 39.06 0 0 0 .304-3.132c.112-1.799.433-3.533 1.372-5.114.885-1.488.797-3.222 1.065-4.845 1.184-7.137 1.992-14.329 2.684-21.539.573-5.955 1.591-11.846 2.995-17.665.305-1.27.503-1.4 1.71-1.153 3.028.616 5.757 1.858 8.177 3.822 1.123.912 1.539 1.82 1.042 3.257-.753 2.179-1.363 4.403-1.977 6.625-2.108 7.598-3.402 15.359-4.317 23.17-.693 5.952-1.878 11.803-2.952 17.684-.359 1.951-1.005 3.858-.97 5.884.011.807.305 1.384.953 1.86.46.34.95.596 1.42.25 1.161-.848 2.016-.45 3.058.327.71.528 1.763.607 2.674.84 1.625.414 3.28.716 4.883 1.201 6.948 2.09 14.063 3.362 21.211 4.492 8.803 1.394 17.61 2.766 26.314 4.72 2.857.641 4.668-.625 4.845-3.63.138-2.31.414-4.594.781-6.87.85-5.28 1.725-10.558 2.607-15.83.102-.62.26-1.238.482-1.823.185-.48.612-.501 1.014-.236a9.18 9.18 0 0 1 2.65 2.661c2.62 4.05 3.351 8.53 2.892 13.26-.06.615-.478.897-1.055.947-1.837.161-3.438.807-4.793 2.105-1.57 1.512-1.645 3.373-1.173 5.251.435 1.728 2.638 2.673 4.368 2.014 1.191-.454 2.214-1.197 2.944-2.272.532-.775 1.026-1.574 1.706-2.622.652.225 1.165.347 1.632.571 2.557 1.23 2.583 1.299 2.173 4.074-.689 4.668-1.47 9.326-2.041 14.01-.371 3.014-.438 6.063-.634 9.099-.022.327.092.657.412.74.656.172.592-.422.648-.763.645-3.932 1.285-7.862 1.885-11.803.504-3.316.951-6.642 1.436-9.961.076-.518.187-1.036.695-1.468 1.22.688 1.824 1.972 2.528 3.074 2.12 3.303 3.723 6.812 3.317 10.902-.033.353.047.627.433.616.148-.004.366-.19.426-.344a7.09 7.09 0 0 0 .4-3.705c-.408-2.595-1-5.143-1.824-7.64-.792-2.415-1.79-4.743-3.678-6.505-1.134-1.06-1.38-2.218-1.162-3.668.543-3.628 1.031-7.266 1.51-10.908 1.024-7.798 2.255-15.567 2.944-23.407.33-3.762.865-7.503 1.311-11.253.025-.206.061-.426.165-.596.096-.163.277-.345.439-.37.125-.012.37.188.407.333 1.893 7.529 5.661 14.172 9.708 20.69.439.706.716 1.51 1.05 2.276.128.289.198.6.31.891.886 2.244 2.09 4.424 2.567 6.75.483 2.342-.485 4.754-.679 7.149-.228 2.819-.137 5.653-.68 8.46-.598 3.084-.908 6.225-1.47 9.318-1.044 5.785-1.632 11.627-2.4 17.449-.041.313-.046.628-.09.942m44.56 22.414c-3.5.079-6.88-.473-10.039-2.064-3.642-1.835-5.699-4.8-6.21-8.843-.467-3.682-.315-7.308.943-10.841.27-.757.692-1.237 1.584-1.21 2.41.076 4.475-.904 6.436-2.178.614-.4 1.288-.735 1.823-1.22 1.313-1.186 2.723-1.966 4.051-1.52 4.638-.102 8.047 1.412 10.757 4.533 2.015 2.322 3.666 4.829 4.382 7.872.396 1.67.503 3.304-.187 4.921-.08.192-.107.407-.176.602-2.258 6.267-6.562 9.795-13.364 9.948M540 272.403c-2.726-6.763-7.214-11.733-14.502-13.716-.585-.16-1.27-.071-1.746-.59-.318-.52.028-.993.111-1.49.361-2.084.465-4.154-.218-6.216-.426-1.291-.66-2.645-1.083-3.935a455.087 455.087 0 0 0-9.962-27.488c-.97-2.434-1.985-4.856-2.821-7.334-3.492-10.335-7.439-20.487-11.977-30.408-.37-.804-.414-1.55-.287-2.42.301-2.077.505-4.168.64-6.26.38-5.864.873-11.71 2.13-17.47.527-2.436-.484-4.153-2.757-4.88-.994-.317-2.03-.52-3.059-.716-3.507-.67-7.057-.986-10.617-1.23-.456-.03-1.054.163-1.335-.452.31-.796 1.065-1.006 1.7-1.274 3.579-1.514 6.937-3.457 10.383-5.233 1.62-.837 2.58-2 2.94-3.796.476-2.359 1.058-4.7 1.668-7.03 1.547-5.882 3.163-11.743 4.18-17.749 1.398-8.27 3.012-16.5 4.74-24.709 1.19-5.64 2.473-11.269 3.07-17.016.249-2.394.436-4.791-.206-7.18-.301-1.118-.893-2.01-1.957-2.263-2.955-.696-5.705-2.074-8.79-2.355-3.654-.333-7.293-.857-10.865-1.733-3.67-.901-7.37-1.632-11.108-2.166-3.114-.444-6.238-.811-9.35-1.283-4.776-.72-9.4-2.144-14.11-3.174-.584-.128-1.271-.125-1.704-.792.085-.355.16-.767.286-1.161 1.961-6.094 4.157-12.098 6.923-17.88.181-.377.377-.747.56-1.126.352-.737.909-1.128 1.75-1.05.311.028.623.085.937.102 5.027.276 9.03-1.776 11.912-5.754 3.128-4.326 4.015-9.096 2.16-14.3-1.205-3.382-3.35-5.777-6.602-7.16a15.753 15.753 0 0 0-5.818-1.237c-3.678-.085-6.746 1.323-9.122 4.122-.81.953-1.462 2.043-2.16 3.088-.756 1.139-1.378 2.343-1.701 3.69-1.299 5.407-.232 10.197 3.751 14.185.797.798.947 1.447.436 2.465-2.133 4.217-3.84 8.617-5.397 13.071-.833 2.376-1.664 4.752-2.432 7.149-.269.841-.713 1.233-1.589 1.115-.416-.056-.838-.082-1.248-.159-5.162-.993-10.404-1.279-15.616-1.826-2.196-.23-4.286.05-6.46.359-3.585.508-6.908 1.676-10.254 2.886-1.874.675-3.743 1.377-5.666 1.882-6.298 1.656-12.439 3.743-18.42 6.318-.97.42-1.864.898-2.71 1.546-.862.658-1.266 1.458-1.078 2.436.348 1.813-.034 3.516-.414 5.266-1.434 6.559-2.563 13.178-3.299 19.851-.793 7.19-1.36 14.409-2.047 21.612-.307 3.237-.538 6.487-1.027 9.695-.678 4.456-1.545 8.881-2.39 13.31-.18.936-.357 1.856-.242 2.8.127 1.036 1.179 1.878 2.214 1.61.86-.22 1.636-.19 2.463.023 5.582 1.428 11.172 2.84 16.756 4.26.508.129 1.023.249 1.51.442.394.158 1.003.002 1.165.72-.398.215-.739.473-1.123.597-3.893 1.246-7.783 2.51-11.695 3.69-1.806.545-3.637.96-5.56 1.004-2.125.045-3.277 1.138-3.414 3.247-.234 3.679-.985 7.263-1.694 10.865-.292 1.484-.841 2.778-1.661 4.024-1.55 2.37-3.114 4.737-4.505 7.202-.773 1.365-1.755 2.13-3.22 2.707-4.732 1.857-8.366 4.806-9.051 10.278-.132 1.039-.714 1.66-1.63 2.132-1.302.676-2.55 1.456-3.8 2.227-1.79 1.106-3.457 2.39-4.873 3.952-.7.773-1.271 1.66-1.865 2.52-.078.11-.01.43.102.539.106.107.449.151.53.07.588-.6 1.108-1.26 1.696-1.857 2.5-2.537 5.54-4.092 8.986-4.897.428-.1.823-.096 1.123.3.337.456.452.943.163 1.455-.308.549-.64 1.085-.97 1.618-5.644 8.97-11.389 17.87-17.426 26.582-.672.968-1.364 1.355-2.528 1.444-4.894.367-9.047 2.466-12.668 5.706-1.836 1.644-3.236 3.57-3.916 5.969-.144.503-.302 1.004-.448 1.508-.205.715-.712 1.055-1.41.957-1.24-.178-2.504-.32-3.698-.678-3.914-1.176-7.806-2.424-11.697-3.683-.889-.29-1.807-.624-2.564-1.15-1.095-.758-2.112-.637-3.27-.253-3.282 1.088-6.532 2.285-9.916 3.034-.945.208-1.423.834-1.543 1.752-.085.624-.12 1.251-.182 1.88-.615 6.282-.294 12.577-.183 18.86.12 6.815.522 13.624.798 20.433.142 3.561.232 7.128.423 10.688.294 5.551.895 11.083.848 16.654-.012 1.36.036 2.731.179 4.086.15 1.442 1.217 2.209 2.571 1.752.909-.307 1.604-.114 2.39.243 4.5 2.06 9.218 3.454 14.023 4.599 2.342.558 4.652 1.259 6.975 1.898.729.198 1.244.59 1.728 1.225 1.28 1.676 1.571 1.73 3.327.544 3.391-2.292 6.722-4.667 10.073-7.018.69-.483 1.364-1.03 1.708-1.816.587-1.332 1.726-2.084 2.859-2.832a268.215 268.215 0 0 1 5.558-3.576c8.974-5.644 17.823-11.469 25.894-18.384.307-.266.672-.623 1.09-.262.205.175.333.524.358.808.329 3.655.624 7.315.95 10.971.711 8.044 1.454 16.085 2.145 24.13.124 1.461.01 2.94.09 4.406.07 1.37.696 2.115 1.994 2.476.707.198 1.44.295 2.162.423 8.595 1.541 16.873 4.205 25.042 7.228.884.328 1.752.702 2.588 1.132.534.27.612.8.405 1.353h3.149c.832-.861 2.024-1.057 3.01-1.623 1.366-.785 2.75-1.528 4.118-2.304.94-.532 1.812-1.28 2.047-2.295.298-1.27 1.185-1.904 2.026-2.682 1.38-1.284 2.77-2.573 4.047-3.957 3.484-3.789 7.202-7.337 10.937-10.872 5.262-4.98 10.465-10.031 14.298-16.268.581-.942 1.377-1.483 2.386-1.916 2.018-.869 4.028-1.79 5.942-2.867 5.482-3.092 10.907-6.28 16.363-9.417 2.362-1.361 4.697-2.775 7.12-4.025 2.78-1.433 4.174-3.672 4.471-6.73.247-2.507.543-5.007.901-7.497 1.282-8.927 2.603-17.846 3.917-26.766.066-.455-.068-1.052.785-1.28.236.404.536.818.746 1.275 1.089 2.384 2.223 4.75 3.214 7.173 2.384 5.82 4.747 11.65 7.012 17.517.904 2.346 2.182 4.251 4.47 5.403.355.182.633.514 1.027.843-1.83 3.456-2.608 7.123-2.694 10.93-.11 4.837 1.377 9.109 4.916 12.499 5.958 5.708 17.93 8.059 25.899 2.188 3.784-2.79 6.294-6.379 7.873-10.72 1.405-3.856 1.007-7.665-.487-11.363"/>
        <path fill="#02B875" d="M340.486 173.888a1.87 1.87 0 1 1 0-3.74h15.163a1.87 1.87 0 0 1 0 3.74h-15.163zM333.01 170.147a1.871 1.871 0 1 1 0 3.74h-3.856a1.87 1.87 0 1 1 0-3.74h3.855zM401.094 37.553a1.872 1.872 0 0 1 0-3.742h36.781a1.87 1.87 0 1 1 0 3.742h-36.78zM393.62 33.811a1.87 1.87 0 1 1 0 3.742h-3.857a1.871 1.871 0 1 1 0-3.742h3.857zM304.603 184.76a2.958 2.958 0 0 0-2.099-.872c-.787 0-1.5.304-2.027.796l-.072.075a2.956 2.956 0 0 0-.868 2.1c0 .789.3 1.502.79 2.027l.078.072a2.96 2.96 0 0 0 2.1.87 2.96 2.96 0 0 0 2.098-.87h.008a2.957 2.957 0 0 0 .862-2.099c0-.82-.332-1.563-.87-2.1m-2.099-4.611c1.852 0 3.53.753 4.745 1.967a6.692 6.692 0 0 1 1.966 4.744 6.694 6.694 0 0 1-1.97 4.742 6.671 6.671 0 0 1-4.74 1.97 6.703 6.703 0 0 1-4.746-1.967l-.108-.12a6.686 6.686 0 0 1-1.856-4.625c0-1.852.751-3.529 1.964-4.744l.12-.11a6.684 6.684 0 0 1 4.625-1.857M375.449 44.335a2.95 2.95 0 0 0-2.098-.862c-.825 0-1.568.33-2.101.862l-.006.006a2.96 2.96 0 0 0-.863 2.1c0 .821.331 1.563.869 2.1v.008a2.959 2.959 0 0 0 2.101.862c.786 0 1.5-.302 2.026-.794l.072-.076c.539-.537.869-1.279.869-2.1a2.96 2.96 0 0 0-.862-2.1l-.007-.006zm-2.098-4.603c1.842 0 3.52.75 4.735 1.966l.008.006a6.693 6.693 0 0 1 1.966 4.737 6.69 6.69 0 0 1-1.966 4.745l-.12.11a6.687 6.687 0 0 1-9.364-.113 6.664 6.664 0 0 1-1.97-4.742c0-1.843.752-3.52 1.966-4.737l.008-.006a6.69 6.69 0 0 1 4.737-1.966zM535.929 102.481a2.95 2.95 0 0 0-2.099-.861 2.96 2.96 0 0 0-2.099.867h-.007a2.961 2.961 0 0 0-.863 2.102c0 .82.333 1.562.87 2.1a2.961 2.961 0 0 0 2.1.868c.787 0 1.5-.302 2.025-.792l.073-.076a2.964 2.964 0 0 0 0-4.202v-.006zm-2.099-4.602c1.846 0 3.523.753 4.74 1.97a6.658 6.658 0 0 1 1.97 4.74c0 1.851-.752 3.53-1.966 4.743l-.12.108a6.682 6.682 0 0 1-4.624 1.859 6.688 6.688 0 0 1-4.745-1.967 6.686 6.686 0 0 1-1.964-4.743 6.69 6.69 0 0 1 1.968-4.74 6.665 6.665 0 0 1 4.741-1.97zM326.569 108.1a1.869 1.869 0 1 1 3.74 0v15.647a1.872 1.872 0 0 1-3.74 0V108.1z"/>
        <path fill="#02B875" d="M336.261 114.054a1.87 1.87 0 1 1 0 3.74h-15.645a1.87 1.87 0 1 1 0-3.74h15.645z"/>
        <path fill="#5AA9A8" d="M492.81 31.816a1.87 1.87 0 0 1 3.739 0v15.648a1.869 1.869 0 1 1-3.74 0V31.816z"/>
        <path fill="#02B875" d="M502.503 37.77a1.871 1.871 0 0 1 0 3.74h-15.648a1.87 1.87 0 1 1 0-3.74h15.648zM530.592 153.215a1.87 1.87 0 1 1 2.645 2.643l-11.065 11.064a1.87 1.87 0 0 1-2.644-2.644l11.064-11.063z"/>
        <path fill="#02B875" d="M533.237 164.28c.729.73.729 1.914 0 2.643a1.867 1.867 0 0 1-2.645 0l-11.064-11.065a1.87 1.87 0 0 1 2.644-2.644l11.065 11.066zM267.82 220.87a1.87 1.87 0 0 1 3.743 0v15.647a1.872 1.872 0 1 1-3.742 0v-15.646z"/>
        <path fill="#02B875" d="M277.516 226.824a1.871 1.871 0 0 1 0 3.741h-15.648a1.872 1.872 0 0 1-1.872-1.868c0-1.034.84-1.873 1.872-1.873h15.648z"/>
        <path fill="#5AA9A8" d="M488.77 304.03a1.872 1.872 0 1 1 0 3.74h-15.165a1.87 1.87 0 0 1-1.869-1.87 1.87 1.87 0 0 1 1.869-1.87h15.164zM496.246 307.771a1.872 1.872 0 0 1 0-3.742h3.855a1.87 1.87 0 1 1 0 3.742h-3.855z"/>
        <path fill="#02B875" d="M531.782 224.386a2.963 2.963 0 0 0-2.1-.861c-.788 0-1.502.302-2.026.793l-.073.077a2.963 2.963 0 0 0-.87 2.098c0 .826.33 1.569.861 2.1l.009.008a2.958 2.958 0 0 0 2.099.862c.825 0 1.568-.33 2.1-.862l.007-.008a2.959 2.959 0 0 0 .863-2.1c0-.818-.334-1.562-.87-2.098v-.009zm-2.1-4.602c1.846 0 3.523.753 4.74 1.97a6.661 6.661 0 0 1 1.971 4.74 6.695 6.695 0 0 1-1.967 4.738l-.006.006a6.692 6.692 0 0 1-9.476 0l-.005-.006a6.692 6.692 0 0 1-1.967-4.739c0-1.851.753-3.53 1.967-4.743l.118-.108a6.676 6.676 0 0 1 4.625-1.858z"/>
    </g>
</svg>
