<?xml version="1.0" encoding="UTF-8"?>
<svg width="45px" height="45px" viewBox="0 0 45 45" version="1.1" xmlns="http://www.w3.org/2000/svg" xmlns:xlink="http://www.w3.org/1999/xlink">
    <!-- Generator: Sketch 50.2 (55047) - http://www.bohemiancoding.com/sketch -->
    <title>Bitmap</title>
    <desc>Created with Sketch.</desc>
    <defs>
        <circle id="path-1" cx="22.5" cy="22.5" r="22.5"></circle>
    </defs>
    <g id="Screens" stroke="none" stroke-width="1" fill="none" fill-rule="evenodd">
        <g id="Desktop/Companies/List/V2" transform="translate(-360.000000, -405.000000)">
            <g id="Money-Earned-Detailed-Copy" transform="translate(340.000000, 228.000000)">
                <g id="Table">
                    <g id="Table-Rows" transform="translate(0.000000, 50.000000)">
                        <g id="Table-Row-Copy-3" transform="translate(0.000000, 120.000000)">
                            <g id="Bitmap" transform="translate(20.000000, 7.000000)">
                                <mask id="mask-2" fill="white">
                                    <use xlink:href="#path-1"></use>
                                </mask>
                                <use id="Mask" fill-opacity="0.2" fill="#7B8599" xlink:href="#path-1"></use>
                                <g id="company" mask="url(#mask-2)" fill="#5E6C84" fill-rule="nonzero">
                                    <g transform="translate(10.000000, 10.000000)" id="Shape">
                                        <path d="M25.254123,24.4388621 L24.458521,24.4388621 L24.458521,11.1691636 C24.458521,10.8256498 24.2496754,10.5290237 23.9512749,10.4353523 L17,8 L17,26 L25.254123,26 C25.6718639,26 26,25.6564862 26,25.2194571 C25.9999503,24.7822718 25.6718141,24.4388621 25.254123,24.4388621 Z M22.9668168,24.4388621 L21.4751126,24.4388621 L21.4751126,21.3165862 L19.9834084,21.3165862 L19.9834084,24.4388621 L18.4917042,24.4388621 L18.4917042,20.5359912 C18.4917042,20.098806 18.8198403,19.7553962 19.2375811,19.7553962 L22.2209895,19.7553962 C22.6387304,19.7553962 22.9668665,20.098806 22.9668665,20.5359912 L22.9668665,24.4388621 L22.9668168,24.4388621 Z M22.2209895,18.1943103 L19.2375811,18.1943103 C18.8198403,18.1943103 18.4917042,17.8507965 18.4917042,17.4137153 C18.4917042,16.9765301 18.8198403,16.6331204 19.2375811,16.6331204 L22.2209895,16.6331204 C22.6387304,16.6331204 22.9668665,16.9765301 22.9668665,17.4137153 C22.9668168,17.8507965 22.6386806,18.1943103 22.2209895,18.1943103 Z M22.2209895,15.0720345 L19.2375811,15.0720345 C18.8198403,15.0720345 18.4917042,14.7285206 18.4917042,14.2914395 C18.4917042,13.8542542 18.8198403,13.5108445 19.2375811,13.5108445 L22.2209895,13.5108445 C22.6387304,13.5108445 22.9668665,13.8542542 22.9668665,14.2914395 C22.9668168,14.7285206 22.6386806,15.0720345 22.2209895,15.0720345 Z"></path>
                                        <path d="M14.5215804,4.6166359 L2.56148855,0.0464780725 C2.05321754,-0.136334334 1.54489669,0.244524847 1.54489669,0.762544114 L1.54489669,24.4766141 L0.747530657,24.4766141 C0.328863654,24.4766141 0,24.8117194 0,25.2383324 C0,25.6648439 0.328863654,26 0.747530657,26 L15,26 C15,21.0537056 15,17.7689729 15,5.33270194 C15,5.01272945 14.805642,4.72327647 14.5215804,4.6166359 Z M7.52489277,24.4766141 L4.53486981,24.4766141 L4.53486981,20.6681238 C4.53486981,20.2415107 4.86373347,19.9064054 5.28240047,19.9064054 L7.52494261,19.9064054 L7.52494261,24.4766141 L7.52489277,24.4766141 Z M6.77741195,18.3830703 L5.28240047,18.3830703 C4.86373347,18.3830703 4.53486981,18.0478634 4.53486981,17.6213519 C4.53486981,17.1947389 4.86373347,16.8596336 5.28240047,16.8596336 L6.77741195,16.8596336 C7.19607895,16.8596336 7.52494261,17.1947389 7.52494261,17.6213519 C7.52489277,18.0478634 7.19607895,18.3830703 6.77741195,18.3830703 Z M6.77741195,15.3362984 L5.28240047,15.3362984 C4.86373347,15.3362984 4.53486981,15.0010915 4.53486981,14.57458 C4.53486981,14.147967 4.86373347,13.8128617 5.28240047,13.8128617 L6.77741195,13.8128617 C7.19607895,13.8128617 7.52494261,14.147967 7.52494261,14.57458 C7.52489277,15.0010915 7.19607895,15.3362984 6.77741195,15.3362984 Z M6.77741195,12.2895265 L5.28240047,12.2895265 C4.86373347,12.2895265 4.53486981,11.9543197 4.53486981,11.5278082 C4.53486981,11.1011951 4.86373347,10.7660898 5.28240047,10.7660898 L6.77741195,10.7660898 C7.19607895,10.7660898 7.52494261,11.1011951 7.52494261,11.5278082 C7.52489277,11.9543197 7.19607895,12.2895265 6.77741195,12.2895265 Z M6.77741195,9.24275464 L5.28240047,9.24275464 C4.86373347,9.24275464 4.53486981,8.90754777 4.53486981,8.48103627 C4.53486981,8.05442321 4.86373347,7.71931791 5.28240047,7.71931791 L6.77741195,7.71931791 C7.19607895,7.71931791 7.52494261,8.05442321 7.52494261,8.48103627 C7.52489277,8.90754777 7.19607895,9.24275464 6.77741195,9.24275464 Z M12.009977,24.4766141 L9.01995409,24.4766141 L9.01995409,19.9064562 L11.2624962,19.9064562 C11.6811632,19.9064562 12.0100269,20.2415615 12.0100269,20.6681746 L12.0100269,24.4766141 L12.009977,24.4766141 Z M11.2624464,18.3830703 L9.76743491,18.3830703 C9.3487679,18.3830703 9.01990425,18.0478634 9.01990425,17.6213519 C9.01990425,17.1947389 9.3487679,16.8596336 9.76743491,16.8596336 L11.2624464,16.8596336 C11.6811134,16.8596336 12.009977,17.1947389 12.009977,17.6213519 C12.009977,18.0478634 11.6811134,18.3830703 11.2624464,18.3830703 Z M11.2624464,15.3362984 L9.76743491,15.3362984 C9.3487679,15.3362984 9.01990425,15.0010915 9.01990425,14.57458 C9.01990425,14.147967 9.3487679,13.8128617 9.76743491,13.8128617 L11.2624464,13.8128617 C11.6811134,13.8128617 12.009977,14.147967 12.009977,14.57458 C12.009977,15.0010915 11.6811134,15.3362984 11.2624464,15.3362984 Z M11.2624464,12.2895265 L9.76743491,12.2895265 C9.3487679,12.2895265 9.01990425,11.9543197 9.01990425,11.5278082 C9.01990425,11.1011951 9.3487679,10.7660898 9.76743491,10.7660898 L11.2624464,10.7660898 C11.6811134,10.7660898 12.009977,11.1011951 12.009977,11.5278082 C12.009977,11.9543197 11.6811134,12.2895265 11.2624464,12.2895265 Z M11.2624464,9.24275464 L9.76743491,9.24275464 C9.3487679,9.24275464 9.01990425,8.90754777 9.01990425,8.48103627 C9.01990425,8.05442321 9.3487679,7.71931791 9.76743491,7.71931791 L11.2624464,7.71931791 C11.6811134,7.71931791 12.009977,8.05442321 12.009977,8.48103627 C12.009977,8.90754777 11.6811134,9.24275464 11.2624464,9.24275464 Z"></path>
                                    </g>
                                </g>
                            </g>
                        </g>
                    </g>
                </g>
            </g>
        </g>
    </g>
</svg>