<svg xmlns="http://www.w3.org/2000/svg" width="20" height="20" viewBox="0 0 20 20">
    <path fill="#02B875" fill-rule="nonzero" d="M17.071 2.929A9.935 9.935 0 0 0 10 0a9.935 9.935 0 0 0-7.071 2.929A9.935 9.935 0 0 0 0 10a9.935 9.935 0 0 0 2.929 7.071A9.935 9.935 0 0 0 10 20a9.935 9.935 0 0 0 7.071-2.929A9.935 9.935 0 0 0 20 10a9.935 9.935 0 0 0-2.929-7.071zM14.778 7.62l-5.589 5.589a.584.584 0 0 1-.829 0L5.222 10.07a.586.586 0 1 1 .83-.83l2.723 2.725 5.174-5.175a.586.586 0 1 1 .829.829z"/>
</svg>
