<svg xmlns="http://www.w3.org/2000/svg" width="283" height="220" viewBox="0 0 283 220">
    <defs>
        <linearGradient id="a" x1="50%" x2="50%" y1="-35.614%" y2="186.239%">
            <stop offset="0%" stop-color="#0D1223"/>
            <stop offset="100%" stop-color="#293449"/>
        </linearGradient>
        <linearGradient id="b" x1="61.802%" x2="37.441%" y1="95.309%" y2="1.977%">
            <stop offset="0%" stop-opacity=".12"/>
            <stop offset="55%" stop-opacity=".09"/>
            <stop offset="100%" stop-opacity=".02"/>
        </linearGradient>
        <linearGradient id="c" x1="50%" x2="50%" y1="100%" y2="0%">
            <stop offset="0%" stop-opacity=".12"/>
            <stop offset="55%" stop-opacity=".09"/>
            <stop offset="100%" stop-opacity=".02"/>
        </linearGradient>
        <linearGradient id="d" x1="50.024%" x2="50.024%" y1="100%" y2="0%">
            <stop offset="0%" stop-opacity=".12"/>
            <stop offset="55%" stop-opacity=".09"/>
            <stop offset="100%" stop-opacity=".02"/>
        </linearGradient>
        <linearGradient id="e" x1="-1774.968%" x2="-1774.968%" y1="-475.855%" y2="-571.599%">
            <stop offset="0%" stop-opacity=".12"/>
            <stop offset="55%" stop-opacity=".09"/>
            <stop offset="100%" stop-opacity=".02"/>
        </linearGradient>
        <linearGradient id="f" x1="-1464.819%" x2="-1464.819%" y1="-372.581%" y2="-458.149%">
            <stop offset="0%" stop-opacity=".12"/>
            <stop offset="55%" stop-opacity=".09"/>
            <stop offset="100%" stop-opacity=".02"/>
        </linearGradient>
        <linearGradient id="g" x1="0%" y1="50%" y2="50%">
            <stop offset="0%" stop-opacity=".09"/>
            <stop offset="55%" stop-opacity=".07"/>
            <stop offset="100%" stop-opacity=".02"/>
        </linearGradient>
        <linearGradient id="h" x1="-.031%" x2="99.969%" y1="50%" y2="50%">
            <stop offset="0%" stop-opacity=".09"/>
            <stop offset="55%" stop-opacity=".07"/>
            <stop offset="100%" stop-opacity=".02"/>
        </linearGradient>
        <linearGradient id="i" x1="50.005%" x2="50.005%" y1="100%" y2="0%">
            <stop offset="0%" stop-opacity=".09"/>
            <stop offset="100%" stop-opacity=".02"/>
        </linearGradient>
        <linearGradient id="j" x1="50.155%" x2="50.155%" y1="99.954%" y2="0%">
            <stop offset="0%" stop-opacity=".12"/>
            <stop offset="55%" stop-opacity=".09"/>
            <stop offset="100%" stop-opacity=".02"/>
        </linearGradient>
        <linearGradient id="k" x1="50%" x2="50%" y1="99.974%" y2="0%">
            <stop offset="0%" stop-opacity=".12"/>
            <stop offset="55%" stop-opacity=".09"/>
            <stop offset="100%" stop-opacity=".02"/>
        </linearGradient>
        <linearGradient id="l" x1="50.014%" x2="50.014%" y1="99.99%" y2="0%">
            <stop offset="0%" stop-opacity=".12"/>
            <stop offset="55%" stop-opacity=".09"/>
            <stop offset="100%" stop-opacity=".02"/>
        </linearGradient>
        <linearGradient id="m" x1="50.031%" x2="50.031%" y1="100.082%" y2="0%">
            <stop offset="0%" stop-opacity=".12"/>
            <stop offset="55%" stop-opacity=".09"/>
            <stop offset="100%" stop-opacity=".02"/>
        </linearGradient>
    </defs>
    <g fill="none" fill-rule="nonzero">
        <path fill="#F5F5F5" d="M1.683 65.021L237.981.511l31.838 116.617-236.299 64.51z"/>
        <path fill="url(#a)" d="M11.932 30.476h248.033V154.32H11.932z" transform="rotate(-15.27 135.949 92.398)"/>
        <path fill="#FFF" d="M4.895 76.789l236.298-64.511 28.604 104.772-236.298 64.511z"/>
        <circle cx="8.229" cy="68.871" r="3.07" fill="#FF5252" transform="rotate(-15.154 8.229 68.871)"/>
        <circle cx="17.791" cy="66.715" r="3.087" fill="#FF0" transform="rotate(-15.27 17.79 66.715)"/>
        <circle cx="26.728" cy="64.275" r="3.087" fill="#69F0AE" transform="rotate(-15.27 26.728 64.275)"/>
        <path fill="#1F9AFF" d="M4.856 76.649l62.218-16.986 28.641 104.911-62.218 16.986z"/>
        <path fill="url(#b)" d="M61.472 96.4c-2.37-8.682-11.701-13.697-20.838-11.208-9.136 2.488-14.615 11.563-12.258 20.248 1.86 6.814 8.006 11.368 14.984 11.807l-1.105-4.051c-.8-2.927 1.07-6.01 4.163-6.853 3.08-.842 6.257.865 7.045 3.795l1.105 4.05c5.783-3.929 8.764-10.99 6.904-17.788z"/>
        <rect width="2.062" height="6.911" x="45.617" y="103.779" fill="url(#c)" rx="1.031" transform="rotate(-15.27 46.648 107.235)"/>
        <ellipse cx="44.341" cy="98.752" fill="url(#d)" rx="6.594" ry="6.264" transform="rotate(-15.27 44.341 98.752)"/>
        <path fill="url(#e)" d="M46.405 106.34c-3.08.842-4.948 3.926-4.163 6.853l1.105 4.05a18.07 18.07 0 0 0 11.208-3.058l-1.105-4.05c-.788-2.927-3.964-4.634-7.045-3.795z"/>
        <path fill="url(#f)" d="M37.839 100.169a5.822 5.822 0 0 1-1.509-2.853 4.137 4.137 0 0 1 .657-3.142c.72-1.002 1.921-1.601 3.093-2.033 1.172-.433 2.434-.705 3.568-1.252a7.907 7.907 0 0 0 4.003-4.455c.36.85.595 1.75.698 2.668a3.382 3.382 0 0 1-.849 2.593c.849-.688 1.018.32.96.99.641.42 1.817.192 2.07.887a4.42 4.42 0 0 1 .32 2.165c-.112.733.515 1.806-.218 2.059"/>
        <path fill="#172B4D" d="M59.999 94.312c-2.182-7.982-10-13.062-18.18-11.813-8.18 1.25-14.126 8.43-13.826 16.7.3 8.27 6.75 15.002 14.998 15.656l-1.105-4.051a5.534 5.534 0 0 1 3.869-6.776 5.534 5.534 0 0 1 6.776 3.868l1.105 4.051a16.3 16.3 0 0 0 6.363-17.635z"/>
        <rect width="1.96" height="6.911" x="45.024" y="101.469" fill="#FFF" stroke="#FFF" rx=".98" transform="rotate(-15.27 46.004 104.924)"/>
        <circle cx="43.698" cy="96.441" r="6.264" fill="#FFF" stroke="#FFF" transform="rotate(-15.27 43.698 96.441)"/>
        <path fill="#FFF" stroke="#FFF" d="M45.758 104.028a5.534 5.534 0 0 0-3.868 6.776l1.101 4.05c3.778.294 7.54-.734 10.645-2.907l-1.105-4.05a5.534 5.534 0 0 0-6.773-3.87zM37.512 97.754a6.084 6.084 0 0 1-1.473-2.863 4.214 4.214 0 0 1 .586-3.122c.676-.99 1.797-1.582 2.924-1.989 1.127-.406 2.312-.669 3.385-1.204a7.49 7.49 0 0 0 3.76-4.39c.354.853.59 1.75.7 2.668.103.924-.179 1.85-.778 2.561.8-.675.961.346.939 1 .605.425 1.735.214 1.985.909.285.683.403 1.424.343 2.162-.1.73.515 1.806-.183 2.05"/>
        <path fill="#FFF" d="M46.91 89.207s4.318-.784 3.024 6.293"/>
        <path fill="#000" d="M19.014 129.148l62.218-16.986 14.275 52.29-62.218 16.985z" opacity=".1"/>
        <path fill="#FFF" d="M34 137.152l30.447-8.313.813 2.978-30.447 8.313zM35.896 144.102l37.73-10.3.812 2.977-37.73 10.3z"/>
        <path fill="#F4F5F7" d="M79.433 63.196L124.44 50.91l6.054 22.175L85.486 85.37z"/>
        <path fill="#D7DEE8" d="M85.307 84.706l45.008-12.287 6.053 22.175L91.36 106.88z"/>
        <path fill="#F4F5F7" d="M186.33 34.015l45.008-12.288 6.054 22.175-45.008 12.287z"/>
        <path fill="#D7DEE8" d="M192.202 55.525l45.008-12.288 6.053 22.175-45.008 12.287z"/>
        <path fill="#F4F5F7" d="M132.717 48.65l45.008-12.288 6.053 22.174-45.008 12.288z"/>
        <path fill="#D7DEE8" d="M138.589 70.162l45.007-12.287 6.054 22.174-45.008 12.288z"/>
        <path fill="#E0E0E0" d="M92.004 113.329l44.789-12.13 5.976 22.066-44.788 12.13z"/>
        <path fill="#BDBDBD" d="M99.038 135.012l45.007-12.288L150.1 144.9l-45.008 12.287z"/>
        <path fill="#F4F5F7" d="M200.062 84.317L245.07 72.03l6.053 22.174-45.008 12.288z"/>
        <path fill="#D7DEE8" d="M205.937 105.83l45.007-12.288 6.054 22.174-45.008 12.288z"/>
        <path fill="#F4F5F7" d="M146.448 98.954l45.007-12.287 6.054 22.175-45.008 12.287z"/>
        <path fill="#BDBDBD" d="M152.322 120.464l45.008-12.287 6.053 22.175-45.008 12.287z"/>
        <ellipse cx="92.014" cy="83.232" fill="url(#g)" rx="5.146" ry="4.803" transform="rotate(-15.27 92.014 83.232)"/>
        <circle cx="90.859" cy="82.833" r="4.437" fill="#1F9AFF" transform="rotate(-15.154 90.86 82.833)"/>
        <ellipse cx="144.636" cy="68.865" fill="url(#g)" rx="5.146" ry="4.803" transform="rotate(-15.27 144.636 68.865)"/>
        <circle cx="144.546" cy="68.535" r="4.461" fill="#1F9AFF" transform="rotate(-15.27 144.546 68.535)"/>
        <ellipse cx="198.912" cy="54.046" fill="url(#h)" rx="5.146" ry="4.803" transform="rotate(-15.27 198.912 54.046)"/>
        <circle cx="198.822" cy="53.717" r="4.461" fill="#1F9AFF" transform="rotate(-15.27 198.822 53.717)"/>
        <ellipse cx="105.838" cy="133.866" fill="url(#g)" rx="5.146" ry="4.803" transform="rotate(-15.27 105.838 133.866)"/>
        <circle cx="105.748" cy="133.537" r="4.461" fill="#2196F3" transform="rotate(-15.27 105.748 133.537)"/>
        <ellipse cx="158.46" cy="119.5" fill="url(#h)" rx="5.146" ry="4.803" transform="rotate(-15.27 158.46 119.5)"/>
        <circle cx="158.367" cy="119.171" r="4.461" fill="#2196F3" transform="rotate(-15.27 158.367 119.17)"/>
        <ellipse cx="212.734" cy="104.682" fill="url(#g)" rx="5.146" ry="4.803" transform="rotate(-15.27 212.734 104.682)"/>
        <circle cx="212.644" cy="104.352" r="4.461" fill="#2196F3" transform="rotate(-15.27 212.644 104.352)"/>
        <path fill="#F5F5F5" d="M36.276 96.15h244.946v120.885H36.276z"/>
        <path fill="url(#a)" d="M34.572 95.999h248.033v123.844H34.572z"/>
        <path fill="#FFF" d="M36.276 108.351h244.946v108.607H36.276z"/>
        <circle cx="42.107" cy="102.029" r="3.087" fill="#FF5252"/>
        <circle cx="51.369" cy="102.029" r="3.087" fill="#FF0"/>
        <circle cx="60.633" cy="102.029" r="3.087" fill="#69F0AE"/>
        <path fill="#1F9AFF" d="M36.276 108.207h64.495v108.751H36.276z"/>
        <path fill="url(#i)" d="M85.688 142.17c0-8.998-7.686-16.296-17.152-16.296-9.466 0-17.155 7.295-17.155 16.297 0 7.064 4.73 13.075 11.346 15.336v-4.199c0-3.036 2.613-5.517 5.81-5.517 3.202 0 5.808 2.481 5.808 5.517v4.199c6.613-2.261 11.343-8.275 11.343-15.336z"/>
        <rect width="2.062" height="6.911" x="67.502" y="145.264" fill="url(#j)" rx="1.031"/>
        <ellipse cx="68.546" cy="139.929" fill="url(#k)" rx="6.594" ry="6.264"/>
        <path fill="url(#l)" d="M68.536 147.79c-3.202 0-5.809 2.482-5.809 5.518v4.199a18.07 18.07 0 0 0 11.615 0v-4.199c0-3.036-2.613-5.517-5.806-5.517z"/>
        <path fill="url(#m)" d="M61.885 139.58a5.822 5.822 0 0 1-.705-3.151c.083-1.11.61-2.14 1.46-2.857.961-.778 2.265-1.053 3.523-1.15 1.259-.095 2.533-.038 3.773-.268a7.907 7.907 0 0 0 5.034-3.244 9.572 9.572 0 0 1-.03 2.757 3.382 3.382 0 0 1-1.501 2.277c1.002-.439.893.592.676 1.21.496.57 1.703.663 1.764 1.4a4.42 4.42 0 0 1-.253 2.177c-.304.68.023 1.877-.752 1.922"/>
        <path fill="#172B4D" d="M84.817 139.769c-.001-8.276-6.205-15.237-14.426-16.187-8.22-.95-15.849 4.412-17.737 12.47-1.889 8.057 2.562 16.25 10.349 19.053v-4.192a5.534 5.534 0 0 1 5.517-5.518 5.534 5.534 0 0 1 5.534 5.518v4.198a16.3 16.3 0 0 0 10.763-15.342z"/>
        <rect width="1.96" height="6.911" x="67.544" y="142.862" fill="#FFF" stroke="#FFF" rx=".98"/>
        <circle cx="68.533" cy="137.527" r="6.264" fill="#FFF" stroke="#FFF"/>
        <path fill="#FFF" stroke="#FFF" d="M68.523 145.389a5.534 5.534 0 0 0-5.517 5.524v4.198a16.357 16.357 0 0 0 11.035 0v-4.198a5.534 5.534 0 0 0-5.518-5.524zM62.205 137.181a6.084 6.084 0 0 1-.669-3.15 4.214 4.214 0 0 1 1.39-2.857c.912-.778 2.149-1.054 3.343-1.15 1.194-.096 2.405-.038 3.583-.269a7.49 7.49 0 0 0 4.785-3.244c.118.916.109 1.844-.026 2.757a3.398 3.398 0 0 1-1.428 2.277c.96-.438.848.593.64 1.21.471.57 1.601.664 1.675 1.4a4.634 4.634 0 0 1-.24 2.178c-.288.679.02 1.876-.714 1.921"/>
        <path fill="#FFF" d="M73.538 131.379s4.371.38 1.259 6.869"/>
        <path fill="#2D2C48" d="M36.103 164.582h64.495v54.203H36.103z"/>
        <path fill="#FFF" d="M48.454 174.245h31.562v3.087H48.454z"/>
        <path fill="#D7DEE8" d="M124.955 126.559h31.562v3.087h-31.562zM124.955 145.085h112.866v3.087H124.955zM124.955 163.61h112.866v3.087H124.955z"/>
        <path fill="#02B875" d="M124.955 182.136h31.562v3.087h-31.562z"/>
        <path fill="#D7DEE8" d="M165.436 182.136h31.562v3.087h-31.562z"/>
        <path fill="#02B875" d="M206.262 182.136h31.562v3.087h-31.562z"/>
        <path fill="#FFF" d="M48.454 181.45h39.11v3.087h-39.11z"/>
    </g>
</svg>
