<svg xmlns="http://www.w3.org/2000/svg" width="600" height="456" viewBox="0 0 600 456">
    <defs>
        <linearGradient id="a" x1="49.984%" x2="49.984%" y1="99.984%" y2=".018%">
            <stop offset="0%" stop-color="gray" stop-opacity=".25"/>
            <stop offset="54%" stop-color="gray" stop-opacity=".12"/>
            <stop offset="100%" stop-color="gray" stop-opacity=".1"/>
        </linearGradient>
        <linearGradient id="b" x1=".02%" x2="100.01%" y1="49.978%" y2="49.978%">
            <stop offset="0%" stop-color="gray" stop-opacity=".25"/>
            <stop offset="54%" stop-color="gray" stop-opacity=".12"/>
            <stop offset="100%" stop-color="gray" stop-opacity=".1"/>
        </linearGradient>
        <linearGradient id="c" x1="49.992%" x2="49.992%" y1="100.011%" y2=".019%">
            <stop offset="0%" stop-color="gray" stop-opacity=".25"/>
            <stop offset="54%" stop-color="gray" stop-opacity=".12"/>
            <stop offset="100%" stop-color="gray" stop-opacity=".1"/>
        </linearGradient>
        <linearGradient id="d" x1="49.984%" x2="49.984%" y1="100.004%" y2="-.031%">
            <stop offset="0%" stop-color="gray" stop-opacity=".25"/>
            <stop offset="54%" stop-color="gray" stop-opacity=".12"/>
            <stop offset="100%" stop-color="gray" stop-opacity=".1"/>
        </linearGradient>
        <linearGradient id="e" x1="49.958%" x2="49.958%" y1="100.082%" y2=".008%">
            <stop offset="0%" stop-color="gray" stop-opacity=".25"/>
            <stop offset="54%" stop-color="gray" stop-opacity=".12"/>
            <stop offset="100%" stop-color="gray" stop-opacity=".1"/>
        </linearGradient>
    </defs>
    <g fill="none" fill-rule="evenodd">
        <path fill="#1D304D" fill-rule="nonzero" d="M563.914 247.336c-21.086 28.933-14.128 70.233-1.94 103.136 4.083 11.015 8.72 22.664 6.604 34.648-2.585 14.65-14.736 25.627-27.366 31.605-23.025 10.896-50.225 9.157-70.82-4.572-17.774-11.85-30.286-31.54-48.405-42.824-30.323-18.878-69.689-10.444-103.438 3.969-23.876 10.196-50.03 23.327-73.298 13.912-16.373-6.625-27.398-23.488-33.199-41.515-2.8-8.704-4.761-18.151-10.341-24.964-3.318-4.05-7.702-6.873-12.21-9.232-41.144-21.544-94.067-8.079-133.955-32.117-26.93-16.233-43.691-47.736-50.656-80.854-6.964-33.119-5.24-68.08-2.466-102.442 1.971-24.42 5.09-50.515 19.772-69.705C37.724 6.09 63.749-1.971 87.022 1.206c23.272 3.178 44.138 16.105 62.39 31.535 22.832 19.25 43.838 43.417 72.233 50.726 19.34 4.976 39.888 1.454 59.994-.103 33.609-2.596 67.099.394 100.384 3.77 31.864 3.232 63.948 6.84 94.126 17.435 21.355 7.497 38.284 21.668 58.39 31.352 13.104 6.312 27.522 7.777 39.856 15.932 15.22 10.045 28.977 27.84 24.512 49.195-4.218 20.3-23.79 30.932-34.993 46.288z"/>
        <path stroke="#535461" stroke-width="2" d="M460.497 379.303s1.778-52.653 30.264-82.405c11.957-12.485 19.81-28.341 21.889-45.501.972-8.144 1.195-16.36.668-24.544"/>
        <path fill="#1F9AFF" fill-rule="nonzero" d="M531.162 208.007c-1.95 5.882-18.248 19.39-18.248 19.39s-4.993-20.58-3.043-26.456a11.216 11.216 0 1 1 21.29 7.06v.006zM537.953 246.41c-4.847 3.877-25.852 6.366-25.852 6.366s7.001-19.988 11.849-23.86a11.214 11.214 0 1 1 14.003 17.493zM518.736 301.799c-6.13.905-25.535-7.54-25.535-7.54s16.126-13.724 22.255-14.629a11.216 11.216 0 1 1 3.28 22.19v-.021zM494.752 340.438c-5.887 1.928-26.445-3.135-26.445-3.135s13.578-16.25 19.465-18.177c5.885-1.934 12.224 1.27 14.157 7.155 1.934 5.885-1.27 12.224-7.155 14.157h-.022zM489.366 246.5c2.86 5.495 21.119 16.25 21.119 16.25s1.659-21.107-1.201-26.606a11.214 11.214 0 1 0-19.896 10.352l-.022.005zM461.892 292.04c4.374 4.39 24.991 9.193 24.991 9.193s-4.734-20.639-9.102-25.028c-4.371-4.388-11.472-4.401-15.86-.03-4.387 4.371-4.4 11.472-.029 15.86v.004zM441.264 339.97c3.565 5.062 23.079 13.287 23.079 13.287s-1.174-21.14-4.745-26.209a11.214 11.214 0 1 0-18.313 12.927l-.021-.006z"/>
        <path stroke="#535461" stroke-width="2" d="M466.756 357.512s-16.158-23.505-13.325-45.62a43.217 43.217 0 0 0-5.106-26.854 72.711 72.711 0 0 0-7.605-10.902"/>
        <path fill="#6C63FF" fill-rule="nonzero" d="M442.427 260.187c1.04 3.188-1.707 14.316-1.707 14.316s-8.795-7.358-9.835-10.54a6.071 6.071 0 0 1 11.542-3.77v-.006zM457.74 274.724c-.857 3.231-9.216 11.09-9.216 11.09s-3.382-10.956-2.526-14.198a6.073 6.073 0 1 1 11.742 3.108zM467.187 305.025c-2.376 2.365-13.551 4.923-13.551 4.923s2.606-11.165 4.987-13.53a6.075 6.075 0 1 1 8.564 8.618v-.01zM469.174 329.57c-1.944 2.73-12.55 7.13-12.55 7.13s.685-11.445 2.63-14.176a6.072 6.072 0 1 1 9.899 7.034l.021.011zM436.61 290.38c3.011 1.476 14.413.291 14.413.291s-6.07-9.727-9.08-11.197a6.07 6.07 0 0 0-5.333 10.907zM439.298 319.061c3.318.506 13.842-4.034 13.842-4.034s-8.704-7.465-12.016-7.95a6.072 6.072 0 0 0-1.826 12.006v-.022zM445.729 346.567c3.183 1.078 14.327-1.615 14.327-1.615s-7.315-8.828-10.498-9.89a6.073 6.073 0 0 0-3.83 11.527v-.022z"/>
        <path fill="#000A29" fill-rule="nonzero" d="M442.427 260.187c1.04 3.188-1.707 14.316-1.707 14.316s-8.795-7.358-9.835-10.54a6.071 6.071 0 0 1 11.542-3.77v-.006zM457.74 274.724c-.857 3.231-9.216 11.09-9.216 11.09s-3.382-10.956-2.526-14.198a6.073 6.073 0 1 1 11.742 3.108zM467.187 305.025c-2.376 2.365-13.551 4.923-13.551 4.923s2.606-11.165 4.987-13.53a6.075 6.075 0 1 1 8.564 8.618v-.01zM469.174 329.57c-1.944 2.73-12.55 7.13-12.55 7.13s.685-11.445 2.63-14.176a6.072 6.072 0 1 1 9.899 7.034l.021.011zM436.61 290.38c3.011 1.476 14.413.291 14.413.291s-6.07-9.727-9.08-11.197a6.07 6.07 0 0 0-5.333 10.907zM439.298 319.061c3.318.506 13.842-4.034 13.842-4.034s-8.704-7.465-12.016-7.95a6.072 6.072 0 0 0-1.826 12.006v-.022zM445.729 346.567c3.183 1.078 14.327-1.615 14.327-1.615s-7.315-8.828-10.498-9.89a6.073 6.073 0 0 0-3.83 11.527v-.022z" opacity=".5"/>
        <path fill="#2E2E43" fill-rule="nonzero" d="M436.858 421.244h45.959l11.494-70.088H425.37z"/>
        <path fill="#000" fill-rule="nonzero" d="M434.165 351.156L444.9 416.65h38.672l-.754 4.594h-45.959l-11.488-70.088z" opacity=".1"/>
        <path fill="#5E6C84" fill-rule="nonzero" d="M237.966 71.607h132.496v6.463H237.966zM237.966 92.074h132.496v6.463H237.966z"/>
        <path fill="#D7DEE8" fill-rule="nonzero" d="M272.144 112.54h68.941v6.463h-68.941z"/>
        <path fill="#D7DEE8" fill-rule="nonzero" d="M240.366 201.409h132.496v6.463H240.366zM240.366 221.876h132.496v6.463H240.366z" opacity=".5"/>
        <path fill="#6C63FF" fill-rule="nonzero" d="M272.144 242.343h68.941v6.463h-68.941z" opacity=".5"/>
        <path fill="#D7DEE8" fill-rule="nonzero" d="M240.366 331.212h132.496v6.463H240.366zM240.366 351.679h132.496v6.463H240.366z" opacity=".5"/>
        <path fill="#6C63FF" fill-rule="nonzero" d="M272.144 372.145h68.941v6.463h-68.941z" opacity=".5"/>
        <g fill-rule="nonzero" opacity=".5" transform="translate(130.341 187.971)">
            <path fill="#C0BCCF" d="M73.4 37.131a36.452 36.452 0 0 1-10.136 25.287 35.935 35.935 0 0 1-3.91 3.55l-.097.07a35.795 35.795 0 0 1-6.948 4.265 36.086 36.086 0 0 1-3.9 1.562l-.49.157c-.301.102-.614.193-.92.28l-.125.037a36.803 36.803 0 0 1-20.224 0h-.054a27.057 27.057 0 0 1-1.573-.495l-.457-.162a35.515 35.515 0 0 1-5.063-2.24l-.103-.054a36.765 36.765 0 0 1-7.174-5.08l-.178-.166A34.223 34.223 0 0 1 8.92 60.91c-.13-.145-.253-.296-.377-.447-.237-.28-.463-.57-.69-.862C-1.97 46.957-2.44 29.398 6.692 16.246 15.822 3.093 32.438-2.603 47.718 2.18 62.998 6.965 73.4 21.12 73.4 37.13z"/>
            <path fill="url(#a)" d="M63.377 49.487l-2.78-1.25c.043-.422.061-.847.055-1.271a9.98 9.98 0 0 0 0-1.077c-.275-2.833-2.08-5.3-3.356-7.89a22.411 22.411 0 0 1-2.192-7.541c-.34-3.232 0-6.582-1.185-9.62-.964-2.45-2.87-4.497-4.912-6.307a24.932 24.932 0 0 0-7.89-5.003c-2.984-1.077-6.415-1.352-9.399-.253-2.693.99-4.766 2.967-6.77 4.89a22.756 22.756 0 0 0-3.824 4.352c-1.223 2.004-1.745 4.309-2.155 6.582a100.686 100.686 0 0 0-1.324 10.998c-.21 3.075-.54 6.565-3.167 8.45-1.282.922-3.087 1.439-3.674 2.834-.166.418-.232.87-.194 1.32-.016.373.011.747.081 1.114.038.216.081.426.135.641a47.246 47.246 0 0 0-1.896 5.752 127.136 127.136 0 0 0-1.077 4.266h1.336l5.02.118h.07l5.385.124h.027l5.02.119h.124l1.449.102h.474l20.073.463h.108l1.336.033h.468l4.018.091 5.925.135h.043l4.46.108h1.389l-.237-4.675c.98-7.158-.964-7.605-.964-7.605zm-22.551-.571c0 3.964-4.244 8.816-4.244 8.816l-4.271-5.816.156-.227 4.115 5.602s4.244-4.848 4.244-8.817c.099-.202.212-.396.34-.582l.096.302c-.163.23-.309.47-.436.722zm6.528 15.554c0-.199 0-.404-.038-.603-.038-.2-.032-.377-.06-.57-.026-.195-.048-.383-.075-.577-.027-.194-.064-.382-.102-.576a21.873 21.873 0 0 0-.118-.577c0-.064-.027-.124-.044-.194-.059-.253-.123-.506-.193-.759s-.114-.41-.178-.609c0-.091-.054-.183-.086-.269-.033-.086-.092-.29-.14-.436l-.097-.28c-.043-.124-.087-.253-.135-.377-.08-.226-.167-.447-.253-.674a24.661 24.661 0 0 0-.27-.667c-.183-.453-.382-.9-.581-1.352-.781-1.745-1.659-3.463-2.467-5.165a27.469 27.469 0 0 1-1.153-2.737l-.102.135c-.163.231-.309.474-.436.727 0 3.964-4.244 8.817-4.244 8.817L32.31 51.91l-3.738 5.386c-.539.27-1.077 1.185-1.498 2.489-.118.35-.231.737-.339 1.141-.075.275-.145.539-.21.846-.038.145-.07.29-.102.442l-.097.457v.07c-.065.313-.13.636-.189.965-.059.328-.129.705-.188 1.077-.043.233-.081.465-.113.695-.076.447-.14.899-.205 1.351-.038.264-.075.539-.108.781l-.129 1.002c.275.824.582 1.616.9 2.445.202.436.32.905.35 1.385a39.253 39.253 0 0 0 20.224 0 .183.183 0 0 1 0-.049c-.1-.45-.143-.912-.13-1.373.11-1.295.29-2.582.54-3.857.079-.628.113-1.262.102-1.895v-.227c-.017-.204-.022-.387-.027-.565v-.006zm0 0c0-.199 0-.404-.038-.603-.038-.2-.032-.377-.06-.57-.026-.195-.048-.383-.075-.577-.027-.194-.064-.382-.102-.576a21.873 21.873 0 0 0-.118-.577c0-.064-.027-.124-.044-.194-.059-.253-.123-.506-.193-.759s-.114-.41-.178-.609c0-.091-.054-.183-.086-.269-.033-.086-.092-.29-.14-.436l-.097-.28c-.043-.124-.087-.253-.135-.377-.08-.226-.167-.447-.253-.674a24.661 24.661 0 0 0-.27-.667c-.183-.453-.382-.9-.581-1.352-.781-1.745-1.659-3.463-2.467-5.165a27.469 27.469 0 0 1-1.153-2.737l-.102.135c-.163.231-.309.474-.436.727 0 3.964-4.244 8.817-4.244 8.817L32.31 51.91l-3.738 5.386c-.539.27-1.077 1.185-1.498 2.489-.118.35-.231.737-.339 1.141-.075.275-.145.539-.21.846-.038.145-.07.29-.102.442l-.097.457v.07c-.065.313-.13.636-.189.965-.059.328-.129.705-.188 1.077-.043.233-.081.465-.113.695-.076.447-.14.899-.205 1.351-.038.264-.075.539-.108.781l-.129 1.002c.275.824.582 1.616.9 2.445.202.436.32.905.35 1.385a39.253 39.253 0 0 0 20.224 0 .183.183 0 0 1 0-.049c-.1-.45-.143-.912-.13-1.373.11-1.295.29-2.582.54-3.857.079-.628.113-1.262.102-1.895v-.227c-.017-.204-.022-.387-.027-.565v-.006zm0 0c0-.199 0-.404-.038-.603-.038-.2-.032-.377-.06-.57-.026-.195-.048-.383-.075-.577-.027-.194-.064-.382-.102-.576a21.873 21.873 0 0 0-.118-.577c0-.064-.027-.124-.044-.194-.059-.253-.123-.506-.193-.759s-.114-.41-.178-.609c0-.091-.054-.183-.086-.269-.033-.086-.092-.29-.14-.436l-.097-.28c-.043-.124-.087-.253-.135-.377-.08-.226-.167-.447-.253-.674a24.661 24.661 0 0 0-.27-.667c-.183-.453-.382-.9-.581-1.352-.781-1.745-1.659-3.463-2.467-5.165a27.469 27.469 0 0 1-1.153-2.737l-.102.135c-.163.231-.309.474-.436.727 0 3.964-4.244 8.817-4.244 8.817L32.31 51.91l-3.738 5.386c-.539.27-1.077 1.185-1.498 2.489-.118.35-.231.737-.339 1.141-.075.275-.145.539-.21.846-.038.145-.07.29-.102.442l-.097.457v.07c-.065.313-.13.636-.189.965-.059.328-.129.705-.188 1.077-.043.233-.081.465-.113.695-.076.447-.14.899-.205 1.351-.038.264-.075.539-.108.781l-.129 1.002c.275.824.582 1.616.9 2.445.202.436.32.905.35 1.385a39.253 39.253 0 0 0 20.224 0 .183.183 0 0 1 0-.049c-.1-.45-.143-.912-.13-1.373.11-1.295.29-2.582.54-3.857.079-.628.113-1.262.102-1.895v-.227c-.017-.204-.022-.387-.027-.565v-.006zm0 0c0-.199 0-.404-.038-.603-.038-.2-.032-.377-.06-.57-.026-.195-.048-.383-.075-.577-.027-.194-.064-.382-.102-.576a21.873 21.873 0 0 0-.118-.577c0-.064-.027-.124-.044-.194-.059-.253-.123-.506-.193-.759s-.114-.41-.178-.609c0-.091-.054-.183-.086-.269-.033-.086-.092-.29-.14-.436l-.097-.28c-.043-.124-.087-.253-.135-.377-.08-.226-.167-.447-.253-.674a24.661 24.661 0 0 0-.27-.667c-.183-.453-.382-.9-.581-1.352-.781-1.745-1.659-3.463-2.467-5.165a27.469 27.469 0 0 1-1.153-2.737l-.102.135c-.163.231-.309.474-.436.727 0 3.964-4.244 8.817-4.244 8.817L32.31 51.91l-3.738 5.386c-.539.27-1.077 1.185-1.498 2.489-.118.35-.231.737-.339 1.141-.075.275-.145.539-.21.846-.038.145-.07.29-.102.442l-.097.457v.07c-.065.313-.13.636-.189.965-.059.328-.129.705-.188 1.077-.043.233-.081.465-.113.695-.076.447-.14.899-.205 1.351-.038.264-.075.539-.108.781l-.129 1.002c.275.824.582 1.616.9 2.445.202.436.32.905.35 1.385a39.253 39.253 0 0 0 20.224 0 .183.183 0 0 1 0-.049c-.1-.45-.143-.912-.13-1.373.11-1.295.29-2.582.54-3.857.079-.628.113-1.262.102-1.895v-.227c-.017-.204-.022-.387-.027-.565v-.006z"/>
            <path fill="#000A29" d="M22.772 26.903h24.776V43.6H22.772z"/>
            <path fill="#F7CA82" d="M51.662 45.318L41.294 59.925l-10.836-.943s-14.138.937-4.713-9.894c4.53-5.208 6.01-9.55 6.329-12.646.344-3.35-.674-5.257-.674-5.257l11.78-1.411a8.79 8.79 0 0 0-.194 4.917c1.475 6.119 8.676 10.627 8.676 10.627z"/>
            <path fill="#000" d="M42.98 34.675a11.774 11.774 0 0 1-10.912 1.756c.345-3.35-.673-5.257-.673-5.257l11.78-1.411a8.79 8.79 0 0 0-.195 4.912z" opacity=".1"/>
            <circle cx="35.876" cy="24.813" r="11.779" fill="#F7CA82"/>
            <path fill="#000" d="M51.232 45.921l-.275-1.077-.237-.948-.35-1.4-.065-.259-.054-.215s.28-.846-1.567-.571l-.345.059c-.29.06-.63.14-1.018.248l-.35.107-.463.146a10.099 10.099 0 0 0-3.91 2.359 8.806 8.806 0 0 0-1.309 1.583c-.038.054-.065.103-.097.146-.127.2-.24.409-.34.625 0 4.244-4.243 9.425-4.243 9.425l-4.142-5.984-.081-.118-.986-1.433-.35-.463-.118-.162-2.155-2.892-.538-.722-.178-.242-.264-.35-.62-.824-2.423 1.416-3.232 1.885-1.885 12.253v.34l.06 1.012.393 6.657v.092l-.69 2.758.103.053a35.515 35.515 0 0 0 5.063 2.241l.457.162c.539.177 1.045.339 1.573.495.02.08.034.16.043.243v-.232a36.803 36.803 0 0 0 20.225 0l.123-.038c.307-.086.62-.178.921-.28l.49-.156a36.086 36.086 0 0 0 3.9-1.562l.452-9.64.324-6.954v-.399l-1.842-7.384z" opacity=".1"/>
            <path fill="#FFF" d="M47.354 63.83c0-.216 0-.431-.038-.647-.038-.215-.032-.404-.06-.608-.026-.205-.048-.41-.075-.614-.027-.205-.064-.41-.102-.615-.038-.204-.075-.409-.118-.614 0-.07-.027-.134-.044-.204a25.247 25.247 0 0 0-.371-1.465c0-.097-.054-.194-.086-.286-.033-.091-.092-.312-.14-.468l-.097-.302c-.043-.134-.087-.27-.135-.404-.08-.242-.167-.48-.253-.721a47.491 47.491 0 0 0-.851-2.16c-.781-1.864-1.659-3.7-2.467-5.52a30.522 30.522 0 0 1-1.153-2.926l-.102.146a6.22 6.22 0 0 0-.436.775c0 4.24-4.244 9.426-4.244 9.426l-4.271-6.22-3.738 5.746c-.539.285-1.077 1.266-1.498 2.66-.118.378-.231.787-.339 1.223-.075.291-.145.598-.21.905-.038.156-.07.313-.102.474l-.097.49v.076c-.065.334-.13.678-.189 1.028s-.129.754-.188 1.137c-.043.248-.081.495-.113.743-.076.48-.14.964-.205 1.444-.038.28-.075.538-.108.834l-.129 1.078c.275.883.582 1.755.9 2.612.202.469.321.97.35 1.48a36.803 36.803 0 0 0 20.224 0 .205.205 0 0 1 0-.053 6.415 6.415 0 0 1-.13-1.47c.11-1.382.29-2.757.54-4.12.079-.673.113-1.35.102-2.026v-.242c-.017-.205-.022-.399-.027-.593zm0 0c0-.216 0-.431-.038-.647-.038-.215-.032-.404-.06-.608-.026-.205-.048-.41-.075-.614-.027-.205-.064-.41-.102-.615-.038-.204-.075-.409-.118-.614 0-.07-.027-.134-.044-.204a25.247 25.247 0 0 0-.371-1.465c0-.097-.054-.194-.086-.286-.033-.091-.092-.312-.14-.468l-.097-.302c-.043-.134-.087-.27-.135-.404-.08-.242-.167-.48-.253-.721a47.491 47.491 0 0 0-.851-2.16c-.781-1.864-1.659-3.7-2.467-5.52a30.522 30.522 0 0 1-1.153-2.926l-.102.146a6.22 6.22 0 0 0-.436.775c0 4.24-4.244 9.426-4.244 9.426l-4.271-6.22-3.738 5.746c-.539.285-1.077 1.266-1.498 2.66-.118.378-.231.787-.339 1.223-.075.291-.145.598-.21.905-.038.156-.07.313-.102.474l-.097.49v.076c-.065.334-.13.678-.189 1.028s-.129.754-.188 1.137c-.043.248-.081.495-.113.743-.076.48-.14.964-.205 1.444-.038.28-.075.538-.108.834l-.129 1.078c.275.883.582 1.755.9 2.612.202.469.321.97.35 1.48a36.803 36.803 0 0 0 20.224 0 .205.205 0 0 1 0-.053 6.415 6.415 0 0 1-.13-1.47c.11-1.382.29-2.757.54-4.12.079-.673.113-1.35.102-2.026v-.242c-.017-.205-.022-.399-.027-.593zm0 0c0-.216 0-.431-.038-.647-.038-.215-.032-.404-.06-.608-.026-.205-.048-.41-.075-.614-.027-.205-.064-.41-.102-.615-.038-.204-.075-.409-.118-.614 0-.07-.027-.134-.044-.204a25.247 25.247 0 0 0-.371-1.465c0-.097-.054-.194-.086-.286-.033-.091-.092-.312-.14-.468l-.097-.302c-.043-.134-.087-.27-.135-.404-.08-.242-.167-.48-.253-.721a47.491 47.491 0 0 0-.851-2.16c-.781-1.864-1.659-3.7-2.467-5.52a30.522 30.522 0 0 1-1.153-2.926l-.102.146a6.22 6.22 0 0 0-.436.775c0 4.24-4.244 9.426-4.244 9.426l-4.271-6.22-3.738 5.746c-.539.285-1.077 1.266-1.498 2.66-.118.378-.231.787-.339 1.223-.075.291-.145.598-.21.905-.038.156-.07.313-.102.474l-.097.49v.076c-.065.334-.13.678-.189 1.028s-.129.754-.188 1.137c-.043.248-.081.495-.113.743-.076.48-.14.964-.205 1.444-.038.28-.075.538-.108.834l-.129 1.078c.275.883.582 1.755.9 2.612.202.469.321.97.35 1.48a36.803 36.803 0 0 0 20.224 0 .205.205 0 0 1 0-.053 6.415 6.415 0 0 1-.13-1.47c.11-1.382.29-2.757.54-4.12.079-.673.113-1.35.102-2.026v-.242c-.017-.205-.022-.399-.027-.593zm5.709-10.11l-1.923-7.675-.329-1.314-.091-.361-.469-1.874a.355.355 0 0 0 0-.049.43.43 0 0 0-.037-.242c-.07-.14-.248-.286-.663-.323a3.35 3.35 0 0 0-.474 0 8.203 8.203 0 0 0-1.384.258c-.22.06-.458.124-.711.205l-.463.145h-.043a10.276 10.276 0 0 0-3.393 1.885 9.156 9.156 0 0 0-1.724 1.907l-.102.145a6.22 6.22 0 0 0-.437.776c0 4.239-4.244 9.425-4.244 9.425l-4.27-6.22-.243-.35-.043-.06-.62-.91-.468-.625-.124-.161-2.208-2.947-.7-.953v-.032l-.243-.329-.463-.614-1.616.943-4.04 2.354-1.863 12.123v.13l.054.883.398 6.749v.382l-.608 2.43a35.515 35.515 0 0 0 5.063 2.24l.457.161c.54.178 1.045.34 1.573.496.02.08.034.16.043.242v-.231a36.803 36.803 0 0 0 20.225 0l.124-.038c.307-.086.619-.178.92-.28l.49-.156a36.086 36.086 0 0 0 3.9-1.562l.447-9.63.323-6.878-.021-.065zM26.575 72.318c.02.08.033.16.043.242v-.231l-.043-.011zm20.779-8.489c0-.215 0-.43-.038-.646-.038-.215-.032-.404-.06-.608-.026-.205-.048-.41-.075-.614-.027-.205-.064-.41-.102-.615-.038-.204-.075-.409-.118-.614 0-.07-.027-.134-.044-.204a25.247 25.247 0 0 0-.371-1.465c0-.097-.054-.194-.086-.286-.033-.091-.092-.312-.14-.468l-.097-.302c-.043-.134-.087-.27-.135-.404-.08-.242-.167-.48-.253-.721a47.491 47.491 0 0 0-.851-2.16c-.781-1.864-1.659-3.7-2.467-5.52a30.522 30.522 0 0 1-1.153-2.926l-.102.146a6.22 6.22 0 0 0-.436.775c0 4.24-4.244 9.426-4.244 9.426l-4.271-6.22-3.738 5.746c-.539.285-1.077 1.266-1.498 2.66-.118.378-.231.787-.339 1.223-.075.291-.145.598-.21.905-.038.156-.07.313-.102.474l-.097.49v.076c-.065.334-.13.678-.189 1.028s-.129.754-.188 1.137c-.043.248-.081.495-.113.743-.076.48-.14.964-.205 1.444-.038.28-.075.538-.108.834l-.129 1.078c.275.883.582 1.755.9 2.612.202.469.321.97.35 1.48a36.803 36.803 0 0 0 20.224 0 .205.205 0 0 1 0-.053 6.415 6.415 0 0 1-.13-1.47c.11-1.382.29-2.757.54-4.12.079-.673.113-1.35.102-2.026v-.242c-.017-.205-.022-.399-.027-.593zm0 0c0-.215 0-.43-.038-.646-.038-.215-.032-.404-.06-.608-.026-.205-.048-.41-.075-.614-.027-.205-.064-.41-.102-.615-.038-.204-.075-.409-.118-.614 0-.07-.027-.134-.044-.204a25.247 25.247 0 0 0-.371-1.465c0-.097-.054-.194-.086-.286-.033-.091-.092-.312-.14-.468l-.097-.302c-.043-.134-.087-.27-.135-.404-.08-.242-.167-.48-.253-.721a47.491 47.491 0 0 0-.851-2.16c-.781-1.864-1.659-3.7-2.467-5.52a30.522 30.522 0 0 1-1.153-2.926l-.102.146a6.22 6.22 0 0 0-.436.775c0 4.24-4.244 9.426-4.244 9.426l-4.271-6.22-3.738 5.746c-.539.285-1.077 1.266-1.498 2.66-.118.378-.231.787-.339 1.223-.075.291-.145.598-.21.905-.038.156-.07.313-.102.474l-.097.49v.076c-.065.334-.13.678-.189 1.028s-.129.754-.188 1.137c-.043.248-.081.495-.113.743-.076.48-.14.964-.205 1.444-.038.28-.075.538-.108.834l-.129 1.078c.275.883.582 1.755.9 2.612.202.469.321.97.35 1.48a36.803 36.803 0 0 0 20.224 0 .205.205 0 0 1 0-.053 6.415 6.415 0 0 1-.13-1.47c.11-1.382.29-2.757.54-4.12.079-.673.113-1.35.102-2.026v-.242c-.017-.205-.022-.399-.027-.593zm0 0c0-.215 0-.43-.038-.646-.038-.215-.032-.404-.06-.608-.026-.205-.048-.41-.075-.614-.027-.205-.064-.41-.102-.615-.038-.204-.075-.409-.118-.614 0-.07-.027-.134-.044-.204a25.247 25.247 0 0 0-.371-1.465c0-.097-.054-.194-.086-.286-.033-.091-.092-.312-.14-.468l-.097-.302c-.043-.134-.087-.27-.135-.404-.08-.242-.167-.48-.253-.721a47.491 47.491 0 0 0-.851-2.16c-.781-1.864-1.659-3.7-2.467-5.52a30.522 30.522 0 0 1-1.153-2.926l-.102.146a6.22 6.22 0 0 0-.436.775c0 4.24-4.244 9.426-4.244 9.426l-4.271-6.22-3.738 5.746c-.539.285-1.077 1.266-1.498 2.66-.118.378-.231.787-.339 1.223-.075.291-.145.598-.21.905-.038.156-.07.313-.102.474l-.097.49v.076c-.065.334-.13.678-.189 1.028s-.129.754-.188 1.137c-.043.248-.081.495-.113.743-.076.48-.14.964-.205 1.444-.038.28-.075.538-.108.834l-.129 1.078c.275.883.582 1.755.9 2.612.202.469.321.97.35 1.48a36.803 36.803 0 0 0 20.224 0 .205.205 0 0 1 0-.053 6.415 6.415 0 0 1-.13-1.47c.11-1.382.29-2.757.54-4.12.079-.673.113-1.35.102-2.026v-.242c-.017-.205-.022-.399-.027-.593zm0 0c0-.215 0-.43-.038-.646-.038-.215-.032-.404-.06-.608-.026-.205-.048-.41-.075-.614-.027-.205-.064-.41-.102-.615-.038-.204-.075-.409-.118-.614 0-.07-.027-.134-.044-.204a25.247 25.247 0 0 0-.371-1.465c0-.097-.054-.194-.086-.286-.033-.091-.092-.312-.14-.468l-.097-.302c-.043-.134-.087-.27-.135-.404-.08-.242-.167-.48-.253-.721a47.491 47.491 0 0 0-.851-2.16c-.781-1.864-1.659-3.7-2.467-5.52a30.522 30.522 0 0 1-1.153-2.926l-.102.146a6.22 6.22 0 0 0-.436.775c0 4.24-4.244 9.426-4.244 9.426l-4.271-6.22-3.738 5.746c-.539.285-1.077 1.266-1.498 2.66-.118.378-.231.787-.339 1.223-.075.291-.145.598-.21.905-.038.156-.07.313-.102.474l-.097.49v.076c-.065.334-.13.678-.189 1.028s-.129.754-.188 1.137c-.043.248-.081.495-.113.743-.076.48-.14.964-.205 1.444-.038.28-.075.538-.108.834l-.129 1.078c.275.883.582 1.755.9 2.612.202.469.321.97.35 1.48a36.803 36.803 0 0 0 20.224 0 .205.205 0 0 1 0-.053 6.415 6.415 0 0 1-.13-1.47c.11-1.382.29-2.757.54-4.12.079-.673.113-1.35.102-2.026v-.242c-.017-.205-.022-.399-.027-.593zm0 0c0-.215 0-.43-.038-.646-.038-.215-.032-.404-.06-.608-.026-.205-.048-.41-.075-.614-.027-.205-.064-.41-.102-.615-.038-.204-.075-.409-.118-.614 0-.07-.027-.134-.044-.204a25.247 25.247 0 0 0-.371-1.465c0-.097-.054-.194-.086-.286-.033-.091-.092-.312-.14-.468l-.097-.302c-.043-.134-.087-.27-.135-.404-.08-.242-.167-.48-.253-.721a47.491 47.491 0 0 0-.851-2.16c-.781-1.864-1.659-3.7-2.467-5.52a30.522 30.522 0 0 1-1.153-2.926l-.102.146a6.22 6.22 0 0 0-.436.775c0 4.24-4.244 9.426-4.244 9.426l-4.271-6.22-3.738 5.746c-.539.285-1.077 1.266-1.498 2.66-.118.378-.231.787-.339 1.223-.075.291-.145.598-.21.905-.038.156-.07.313-.102.474l-.097.49v.076c-.065.334-.13.678-.189 1.028s-.129.754-.188 1.137c-.043.248-.081.495-.113.743-.076.48-.14.964-.205 1.444-.038.28-.075.538-.108.834l-.129 1.078c.275.883.582 1.755.9 2.612.202.469.321.97.35 1.48a36.803 36.803 0 0 0 20.224 0 .205.205 0 0 1 0-.053 6.415 6.415 0 0 1-.13-1.47c.11-1.382.29-2.757.54-4.12.079-.673.113-1.35.102-2.026v-.242c-.017-.205-.022-.399-.027-.593zm0 0c0-.215 0-.43-.038-.646-.038-.215-.032-.404-.06-.608-.026-.205-.048-.41-.075-.614-.027-.205-.064-.41-.102-.615-.038-.204-.075-.409-.118-.614 0-.07-.027-.134-.044-.204a25.247 25.247 0 0 0-.371-1.465c0-.097-.054-.194-.086-.286-.033-.091-.092-.312-.14-.468l-.097-.302c-.043-.134-.087-.27-.135-.404-.08-.242-.167-.48-.253-.721a47.491 47.491 0 0 0-.851-2.16c-.781-1.864-1.659-3.7-2.467-5.52a30.522 30.522 0 0 1-1.153-2.926l-.102.146a6.22 6.22 0 0 0-.436.775c0 4.24-4.244 9.426-4.244 9.426l-4.271-6.22-3.738 5.746c-.539.285-1.077 1.266-1.498 2.66-.118.378-.231.787-.339 1.223-.075.291-.145.598-.21.905-.038.156-.07.313-.102.474l-.097.49v.076c-.065.334-.13.678-.189 1.028s-.129.754-.188 1.137c-.043.248-.081.495-.113.743-.076.48-.14.964-.205 1.444-.038.28-.075.538-.108.834l-.129 1.078c.275.883.582 1.755.9 2.612.202.469.321.97.35 1.48a36.803 36.803 0 0 0 20.224 0 .205.205 0 0 1 0-.053 6.415 6.415 0 0 1-.13-1.47c.11-1.382.29-2.757.54-4.12.079-.673.113-1.35.102-2.026v-.242c-.017-.205-.022-.399-.027-.593zm0 0c0-.215 0-.43-.038-.646-.038-.215-.032-.404-.06-.608-.026-.205-.048-.41-.075-.614-.027-.205-.064-.41-.102-.615-.038-.204-.075-.409-.118-.614 0-.07-.027-.134-.044-.204a25.247 25.247 0 0 0-.371-1.465c0-.097-.054-.194-.086-.286-.033-.091-.092-.312-.14-.468l-.097-.302c-.043-.134-.087-.27-.135-.404-.08-.242-.167-.48-.253-.721a47.491 47.491 0 0 0-.851-2.16c-.781-1.864-1.659-3.7-2.467-5.52a30.522 30.522 0 0 1-1.153-2.926l-.102.146a6.22 6.22 0 0 0-.436.775c0 4.24-4.244 9.426-4.244 9.426l-4.271-6.22-3.738 5.746c-.539.285-1.077 1.266-1.498 2.66-.118.378-.231.787-.339 1.223-.075.291-.145.598-.21.905-.038.156-.07.313-.102.474l-.097.49v.076c-.065.334-.13.678-.189 1.028s-.129.754-.188 1.137c-.043.248-.081.495-.113.743-.076.48-.14.964-.205 1.444-.038.28-.075.538-.108.834l-.129 1.078c.275.883.582 1.755.9 2.612.202.469.321.97.35 1.48a36.803 36.803 0 0 0 20.224 0 .205.205 0 0 1 0-.053 6.415 6.415 0 0 1-.13-1.47c.11-1.382.29-2.757.54-4.12.079-.673.113-1.35.102-2.026v-.242c-.017-.205-.022-.399-.027-.593zm0 0c0-.215 0-.43-.038-.646-.038-.215-.032-.404-.06-.608-.026-.205-.048-.41-.075-.614-.027-.205-.064-.41-.102-.615-.038-.204-.075-.409-.118-.614 0-.07-.027-.134-.044-.204a25.247 25.247 0 0 0-.371-1.465c0-.097-.054-.194-.086-.286-.033-.091-.092-.312-.14-.468l-.097-.302c-.043-.134-.087-.27-.135-.404-.08-.242-.167-.48-.253-.721a47.491 47.491 0 0 0-.851-2.16c-.781-1.864-1.659-3.7-2.467-5.52a30.522 30.522 0 0 1-1.153-2.926l-.102.146a6.22 6.22 0 0 0-.436.775c0 4.24-4.244 9.426-4.244 9.426l-4.271-6.22-3.738 5.746c-.539.285-1.077 1.266-1.498 2.66-.118.378-.231.787-.339 1.223-.075.291-.145.598-.21.905-.038.156-.07.313-.102.474l-.097.49v.076c-.065.334-.13.678-.189 1.028s-.129.754-.188 1.137c-.043.248-.081.495-.113.743-.076.48-.14.964-.205 1.444-.038.28-.075.538-.108.834l-.129 1.078c.275.883.582 1.755.9 2.612.202.469.321.97.35 1.48a36.803 36.803 0 0 0 20.224 0 .205.205 0 0 1 0-.053 6.415 6.415 0 0 1-.13-1.47c.11-1.382.29-2.757.54-4.12.079-.673.113-1.35.102-2.026v-.242c-.017-.205-.022-.399-.027-.593z"/>
            <path fill="#000" d="M32.386 50.041l-.36-.048a13.12 13.12 0 0 1-1.617-.323l-.199-.054c-1.314-.372-2.752-1.04-3.075-2.214a2.095 2.095 0 0 1 .032-1.147c.18-.64.426-1.262.732-1.853v-.032a2.57 2.57 0 0 1 .135-.243 5.386 5.386 0 0 1 1.944-2.116l-.646.102-5.472.889-8.483 1.368s-1.508-.302-3.56 5.354c0 .07-.049.134-.07.21-.496 1.384-1.018 3.113-1.557 5.272a162.27 162.27 0 0 0-1.023 4.395c-.092.431-.183.857-.27 1.277a34.223 34.223 0 0 0 3.13 3.232l.178.166a36.765 36.765 0 0 0 7.174 5.08l.102.053a35.515 35.515 0 0 0 5.063 2.24l.458.162c.097-.996.204-2.1.334-3.231 0-.113 0-.226.043-.34l.13-1.077c.031-.274.07-.538.107-.834.064-.48.13-.965.204-1.444.033-.248.07-.495.114-.743a62.511 62.511 0 0 1 .377-2.165V61.9l.097-.49c.032-.161.064-.318.102-.474.065-.307.135-.614.21-.905.108-.436.22-.845.34-1.222.43-1.395.931-2.376 1.497-2.661l3.737-5.747.157-.242.07-.108-.135-.01z" opacity=".1"/>
            <path fill="#444176" d="M32.068 50.052l-3.97 6.097c-.538.275-1.044 1.228-1.47 2.58-.124.398-.247.835-.366 1.293a64.4 64.4 0 0 0-1.217 7.05c0 .108 0 .215-.043.323a162.79 162.79 0 0 0-.458 4.266 35.515 35.515 0 0 1-5.063-2.24l-.102-.055a36.765 36.765 0 0 1-7.174-5.079l-.178-.167a34.223 34.223 0 0 1-3.13-3.231c-.129-.146-.252-.297-.376-.447.059-.28.118-.539.183-.84.307-1.428.646-2.893 1.018-4.385a53.068 53.068 0 0 1 1.831-6.032c.02-.059.043-.116.07-.172 1.907-4.907 3.28-4.632 3.28-4.632l8.957-1.444 5.655-.915-.177.102a5.736 5.736 0 0 0-1.557 1.659l-.156.264c-.065.102-.124.215-.189.328a9.544 9.544 0 0 0-.743 1.885c-.167.51-.12 1.066.13 1.54.538 1.046 2.067 1.617 3.322 1.929l.21.054c.565.126 1.137.216 1.713.27z"/>
            <path fill="#000" d="M63.194 60.937l-.22-4.783c.942-7.54-.943-8.009-.943-8.009l-2.241-1.077h-.06L50.72 42.7l-.35-.172-.108-.049-1.174-.57-.743-.361-1.39-.674-.468-.226V42.518c0 .538.048 1.168.091 1.9.097 1.842.275 4.31.593 7.218.177 1.685.404 3.527.684 5.504.167 1.169.285 2.332.36 3.469a61.04 61.04 0 0 1-.355 11.472l.49-.156a36.086 36.086 0 0 0 3.9-1.562 35.795 35.795 0 0 0 6.947-4.266l.097-.07a35.935 35.935 0 0 0 3.91-3.55l-.01-1.54z" opacity=".1"/>
            <path fill="#444176" d="M63.668 60.937l-.221-4.793c.943-7.54-.943-8.01-.943-8.01l-2.693-1.303h-.053l-9.038-4.384-.415-.2-.08-.037-.663-.323-.878-.426-1.734-.84v1.713c0 .539.048 1.244.097 2.047.091 1.718.253 3.97.538 6.646.194 1.837.437 3.878.754 6.075.165 1.174.284 2.336.356 3.485.24 3.772.128 7.559-.334 11.31a36.086 36.086 0 0 0 3.9-1.561 35.795 35.795 0 0 0 6.947-4.266l.097-.07a35.935 35.935 0 0 0 3.91-3.55 9.52 9.52 0 0 0 .453-.484v-1.029z"/>
            <path fill="#000" d="M25.583 11.892c-.538.744-.495 1.767-.737 2.693-.577 2.106-2.86 3.426-3.383 5.548-.307 1.239.049 2.553-.161 3.813-.383 2.322-2.505 3.894-3.69 5.925a7.993 7.993 0 0 0-.49 6.948c.277.565.506 1.152.684 1.756.136.899.08 1.817-.167 2.693-.404 1.917-.819 4.028.108 5.757.78 1.46 2.402 2.316 4.034 2.585 1.648.187 3.315.11 4.939-.226 1.783-.274 3.609-.592 5.16-1.508l-5.833-14.079c-.587-1.422-1.19-2.892-1.185-4.433a9.743 9.743 0 0 1 .727-3.307 28.654 28.654 0 0 1 4.847-8.375c.846.98.781 2.472 1.487 3.56a5.618 5.618 0 0 0 2.402 1.794 79.578 79.578 0 0 0 8.504 3.555 1.115 1.115 0 0 1 .83 1.659l-2.198 9.07c-.484 1.998-.91 4.308.334 5.924 1.244 1.616 4.05 2.38 4.067 4.465-.023.33-.023.661 0 .991.145.975 1.303 1.444 2.289 1.492a6.824 6.824 0 0 0 6.845-5.585c.539-3.566-1.82-6.851-2.806-10.325-1.659-5.844.539-12.7-2.72-17.833-2.639-4.164-7.448-5.295-12.016-5.812-3.204-.377-9.614-1.723-11.87 1.255z" opacity=".1"/>
            <path fill="#000A29" d="M25.583 11.354c-.538.743-.495 1.766-.737 2.693-.577 2.106-2.86 3.425-3.383 5.547-.307 1.239.049 2.553-.161 3.814-.383 2.32-2.505 3.894-3.69 5.924a7.993 7.993 0 0 0-.49 6.948c.277.565.506 1.152.684 1.756.136.9.08 1.817-.167 2.693-.404 1.917-.819 4.029.108 5.758.78 1.46 2.402 2.316 4.034 2.585 1.648.186 3.315.11 4.939-.226 1.783-.275 3.609-.593 5.16-1.508l-5.833-14.08c-.587-1.421-1.19-2.892-1.185-4.432a9.743 9.743 0 0 1 .727-3.307 28.654 28.654 0 0 1 4.847-8.375c.846.98.781 2.472 1.487 3.56a5.618 5.618 0 0 0 2.402 1.793 79.578 79.578 0 0 0 8.504 3.555 1.115 1.115 0 0 1 .83 1.659l-2.198 9.07c-.484 1.998-.91 4.309.334 5.925 1.244 1.615 4.05 2.38 4.067 4.465-.023.33-.023.66 0 .99.145.975 1.303 1.444 2.289 1.493a6.824 6.824 0 0 0 6.845-5.586c.539-3.565-1.82-6.85-2.806-10.325-1.659-5.844.539-12.7-2.72-17.833-2.639-4.163-7.448-5.294-12.016-5.811-3.204-.377-9.614-1.724-11.87 1.255z"/>
        </g>
        <g fill-rule="nonzero" opacity=".5" transform="translate(130.341 317.774)">
            <path fill="#C0BCCF" d="M73.4 37.131a36.452 36.452 0 0 1-10.136 25.287 35.935 35.935 0 0 1-3.91 3.55l-.097.07a35.795 35.795 0 0 1-6.948 4.265 36.086 36.086 0 0 1-3.9 1.562l-.49.157c-.301.102-.614.193-.92.28l-.125.037a36.803 36.803 0 0 1-20.224 0h-.054a27.057 27.057 0 0 1-1.573-.495l-.457-.162a35.515 35.515 0 0 1-5.063-2.24l-.103-.054a36.765 36.765 0 0 1-7.174-5.08l-.178-.166A34.223 34.223 0 0 1 8.92 60.91c-.13-.145-.253-.296-.377-.447-.237-.28-.463-.57-.69-.862C-1.97 46.957-2.44 29.398 6.692 16.246 15.822 3.093 32.438-2.603 47.718 2.18 62.998 6.965 73.4 21.12 73.4 37.13z"/>
            <path fill="url(#b)" d="M63.668 60.732l-.221-4.847c.943-7.664-.943-8.144-.943-8.144l-2.693-1.324-.053-.027-9.038-4.455-.415-.204-.054-.221s.178-.539-.716-.63a3.28 3.28 0 0 1-.226-1.374c.091-1.034.872-1.847 1.48-2.693a11.063 11.063 0 0 0 1.773-7.847 18.458 18.458 0 0 0-3.005-7.584l-.173-.253c.21-.776.317-1.576.318-2.38 0-6.2-6.27-11.225-14.004-11.225-7.001 0-12.834 4.142-13.847 9.544-.16.211-.302.434-.426.668-1.421 2.66.776 4.648.846 7.303.049 1.832-1.18 3.4-2.154 4.95-.975 1.551-1.697 3.614-.695 5.144.328.506.824.889 1.12 1.416 1.04 1.837-.69 3.943-1.32 5.957-.072.235-.13.474-.172.717l-4.158.678s-1.373-.28-3.28 4.708c-.026.057-.05.117-.07.177a54.609 54.609 0 0 0-1.831 6.135 146.767 146.767 0 0 0-1.018 4.454c-.065.286-.124.571-.183.857.124.15.248.307.377.452a34.54 34.54 0 0 0 3.13 3.296l.177.173a36.776 36.776 0 0 0 7.174 5.165l.102.054a35.224 35.224 0 0 0 5.063 2.278l.458.161c.539.184 1.045.345 1.573.507.02.081.034.164.043.248v-.237a36.226 36.226 0 0 0 20.224 0l.124-.038c.307-.086.62-.183.921-.286l.49-.156a35.768 35.768 0 0 0 3.9-1.589 35.698 35.698 0 0 0 6.948-4.335l.097-.07a36.156 36.156 0 0 0 3.91-3.609c.158-.158.309-.321.452-.49l-.005-1.024z"/>
            <path fill="#000A29" d="M22.271 25.815c.049 1.804-1.18 3.345-2.154 4.847-.975 1.503-1.697 3.555-.695 5.058.328.495.824.878 1.12 1.395 1.04 1.804-.69 3.878-1.32 5.86-.726 2.289.12 4.847 1.649 6.705 1.53 1.859 3.64 3.114 5.774 4.218a51.528 51.528 0 0 0 14.283 5.084c2.607.48 5.386.695 7.831-.35a8.327 8.327 0 0 0 4.702-9.156c-.619-2.833-2.693-5.112-3.77-7.788a3.646 3.646 0 0 1-.355-1.686c.091-1.018.872-1.815 1.48-2.64a10.772 10.772 0 0 0 1.746-7.664 17.99 17.99 0 0 0-3.005-7.465 8.176 8.176 0 0 0-2.155-2.37c-1.174-.791-2.628-1.017-4.029-1.217-5.849-.818-11.908-1.712-17.806-2.014-1.863-.097-3.231.27-4.152 2.014-1.406 2.602.786 4.557.856 7.17z"/>
            <path fill="#C77485" d="M52.395 44.133l-11.1 15.786-10.837-.942s-.356 3.77-4.713-9.894c-2.434-7.643 2.515-4.988 3.49-7.105.975-2.116 2.693-3.985 2.839-5.547.344-3.35-.674-5.257-.674-5.257l11.78-1.411a8.79 8.79 0 0 0-.194 4.917c1.475 6.13 9.409 9.453 9.409 9.453z"/>
            <ellipse cx="35.698" cy="19.632" fill="#000A29" rx="14.004" ry="11.041"/>
            <path fill="#000" d="M42.98 34.675a11.774 11.774 0 0 1-10.912 1.756c.345-3.35-.673-5.257-.673-5.257l11.78-1.411a8.79 8.79 0 0 0-.195 4.912z" opacity=".1"/>
            <circle cx="35.876" cy="24.813" r="11.779" fill="#C77485"/>
            <path fill="#000" d="M51.232 45.921l-.275-1.077-.237-.948-.35-1.4-.065-.259-.054-.215s.28-.846-1.567-.571l-.345.059c-.29.06-.63.14-1.018.248l-.35.107-.463.146a10.099 10.099 0 0 0-3.91 2.359 8.806 8.806 0 0 0-1.309 1.583c-.038.054-.065.103-.097.146-.127.2-.24.409-.34.625 0 4.244-4.243 9.425-4.243 9.425l-4.142-5.984-.081-.118-.986-1.433-.35-.463-.118-.162-2.155-2.892-.538-.722-.178-.242-.264-.35-.62-.824-2.423 1.416-3.232 1.885-1.885 12.253v.34l.06 1.012.393 6.657v.092l-.69 2.758.103.053a35.515 35.515 0 0 0 5.063 2.241l.457.162c.539.177 1.045.339 1.573.495.02.08.034.16.043.243v-.232a36.803 36.803 0 0 0 20.225 0l.123-.038c.307-.086.62-.178.921-.28l.49-.156a36.086 36.086 0 0 0 3.9-1.562l.452-9.64.324-6.954v-.399l-1.842-7.384z" opacity=".1"/>
            <path fill="#444176" d="M47.354 63.83c0-.216 0-.431-.038-.647-.038-.215-.032-.404-.06-.608-.026-.205-.048-.41-.075-.614-.027-.205-.064-.41-.102-.615-.038-.204-.075-.409-.118-.614 0-.07-.027-.134-.044-.204a25.247 25.247 0 0 0-.371-1.465c0-.097-.054-.194-.086-.286-.033-.091-.092-.312-.14-.468l-.097-.302c-.043-.134-.087-.27-.135-.404-.08-.242-.167-.48-.253-.721a47.491 47.491 0 0 0-.851-2.16c-.781-1.864-1.659-3.7-2.467-5.52a30.522 30.522 0 0 1-1.153-2.926l-.102.146a6.22 6.22 0 0 0-.436.775c0 4.24-4.244 9.426-4.244 9.426l-4.271-6.22-3.738 5.746c-.539.285-1.077 1.266-1.498 2.66-.118.378-.231.787-.339 1.223-.075.291-.145.598-.21.905-.038.156-.07.313-.102.474l-.097.49v.076c-.065.334-.13.678-.189 1.028s-.129.754-.188 1.137c-.043.248-.081.495-.113.743-.076.48-.14.964-.205 1.444-.038.28-.075.538-.108.834l-.129 1.078c.275.883.582 1.755.9 2.612.202.469.321.97.35 1.48a36.803 36.803 0 0 0 20.224 0 .205.205 0 0 1 0-.053 6.415 6.415 0 0 1-.13-1.47c.11-1.382.29-2.757.54-4.12.079-.673.113-1.35.102-2.026v-.242c-.017-.205-.022-.399-.027-.593zm0 0c0-.216 0-.431-.038-.647-.038-.215-.032-.404-.06-.608-.026-.205-.048-.41-.075-.614-.027-.205-.064-.41-.102-.615-.038-.204-.075-.409-.118-.614 0-.07-.027-.134-.044-.204a25.247 25.247 0 0 0-.371-1.465c0-.097-.054-.194-.086-.286-.033-.091-.092-.312-.14-.468l-.097-.302c-.043-.134-.087-.27-.135-.404-.08-.242-.167-.48-.253-.721a47.491 47.491 0 0 0-.851-2.16c-.781-1.864-1.659-3.7-2.467-5.52a30.522 30.522 0 0 1-1.153-2.926l-.102.146a6.22 6.22 0 0 0-.436.775c0 4.24-4.244 9.426-4.244 9.426l-4.271-6.22-3.738 5.746c-.539.285-1.077 1.266-1.498 2.66-.118.378-.231.787-.339 1.223-.075.291-.145.598-.21.905-.038.156-.07.313-.102.474l-.097.49v.076c-.065.334-.13.678-.189 1.028s-.129.754-.188 1.137c-.043.248-.081.495-.113.743-.076.48-.14.964-.205 1.444-.038.28-.075.538-.108.834l-.129 1.078c.275.883.582 1.755.9 2.612.202.469.321.97.35 1.48a36.803 36.803 0 0 0 20.224 0 .205.205 0 0 1 0-.053 6.415 6.415 0 0 1-.13-1.47c.11-1.382.29-2.757.54-4.12.079-.673.113-1.35.102-2.026v-.242c-.017-.205-.022-.399-.027-.593zm0 0c0-.216 0-.431-.038-.647-.038-.215-.032-.404-.06-.608-.026-.205-.048-.41-.075-.614-.027-.205-.064-.41-.102-.615-.038-.204-.075-.409-.118-.614 0-.07-.027-.134-.044-.204a25.247 25.247 0 0 0-.371-1.465c0-.097-.054-.194-.086-.286-.033-.091-.092-.312-.14-.468l-.097-.302c-.043-.134-.087-.27-.135-.404-.08-.242-.167-.48-.253-.721a47.491 47.491 0 0 0-.851-2.16c-.781-1.864-1.659-3.7-2.467-5.52a30.522 30.522 0 0 1-1.153-2.926l-.102.146a6.22 6.22 0 0 0-.436.775c0 4.24-4.244 9.426-4.244 9.426l-4.271-6.22-3.738 5.746c-.539.285-1.077 1.266-1.498 2.66-.118.378-.231.787-.339 1.223-.075.291-.145.598-.21.905-.038.156-.07.313-.102.474l-.097.49v.076c-.065.334-.13.678-.189 1.028s-.129.754-.188 1.137c-.043.248-.081.495-.113.743-.076.48-.14.964-.205 1.444-.038.28-.075.538-.108.834l-.129 1.078c.275.883.582 1.755.9 2.612.202.469.321.97.35 1.48a36.803 36.803 0 0 0 20.224 0 .205.205 0 0 1 0-.053 6.415 6.415 0 0 1-.13-1.47c.11-1.382.29-2.757.54-4.12.079-.673.113-1.35.102-2.026v-.242c-.017-.205-.022-.399-.027-.593zm5.709-10.11l-1.923-7.675-.329-1.314-.091-.361-.469-1.874a.355.355 0 0 0 0-.049.43.43 0 0 0-.037-.242c-.07-.14-.248-.286-.663-.323a3.35 3.35 0 0 0-.474 0 8.203 8.203 0 0 0-1.384.258c-.22.06-.458.124-.711.205l-.463.145h-.043a10.276 10.276 0 0 0-3.393 1.885 9.156 9.156 0 0 0-1.724 1.907l-.102.145a6.22 6.22 0 0 0-.437.776c0 4.239-4.244 9.425-4.244 9.425l-4.27-6.22-.243-.35-.043-.06-.62-.91-.468-.625-.124-.161-2.208-2.947-.7-.953v-.032l-.243-.329-.463-.614-1.616.943-4.04 2.354-1.863 12.123v.13l.054.883.398 6.749v.382l-.608 2.43a35.515 35.515 0 0 0 5.063 2.24l.457.161c.54.178 1.045.34 1.573.496.02.08.034.16.043.242v-.231a36.803 36.803 0 0 0 20.225 0l.124-.038c.307-.086.619-.178.92-.28l.49-.156a36.086 36.086 0 0 0 3.9-1.562l.447-9.63.323-6.878-.021-.065zM26.575 72.318c.02.08.033.16.043.242v-.231l-.043-.011zm20.779-8.489c0-.215 0-.43-.038-.646-.038-.215-.032-.404-.06-.608-.026-.205-.048-.41-.075-.614-.027-.205-.064-.41-.102-.615-.038-.204-.075-.409-.118-.614 0-.07-.027-.134-.044-.204a25.247 25.247 0 0 0-.371-1.465c0-.097-.054-.194-.086-.286-.033-.091-.092-.312-.14-.468l-.097-.302c-.043-.134-.087-.27-.135-.404-.08-.242-.167-.48-.253-.721a47.491 47.491 0 0 0-.851-2.16c-.781-1.864-1.659-3.7-2.467-5.52a30.522 30.522 0 0 1-1.153-2.926l-.102.146a6.22 6.22 0 0 0-.436.775c0 4.24-4.244 9.426-4.244 9.426l-4.271-6.22-3.738 5.746c-.539.285-1.077 1.266-1.498 2.66-.118.378-.231.787-.339 1.223-.075.291-.145.598-.21.905-.038.156-.07.313-.102.474l-.097.49v.076c-.065.334-.13.678-.189 1.028s-.129.754-.188 1.137c-.043.248-.081.495-.113.743-.076.48-.14.964-.205 1.444-.038.28-.075.538-.108.834l-.129 1.078c.275.883.582 1.755.9 2.612.202.469.321.97.35 1.48a36.803 36.803 0 0 0 20.224 0 .205.205 0 0 1 0-.053 6.415 6.415 0 0 1-.13-1.47c.11-1.382.29-2.757.54-4.12.079-.673.113-1.35.102-2.026v-.242c-.017-.205-.022-.399-.027-.593zm0 0c0-.215 0-.43-.038-.646-.038-.215-.032-.404-.06-.608-.026-.205-.048-.41-.075-.614-.027-.205-.064-.41-.102-.615-.038-.204-.075-.409-.118-.614 0-.07-.027-.134-.044-.204a25.247 25.247 0 0 0-.371-1.465c0-.097-.054-.194-.086-.286-.033-.091-.092-.312-.14-.468l-.097-.302c-.043-.134-.087-.27-.135-.404-.08-.242-.167-.48-.253-.721a47.491 47.491 0 0 0-.851-2.16c-.781-1.864-1.659-3.7-2.467-5.52a30.522 30.522 0 0 1-1.153-2.926l-.102.146a6.22 6.22 0 0 0-.436.775c0 4.24-4.244 9.426-4.244 9.426l-4.271-6.22-3.738 5.746c-.539.285-1.077 1.266-1.498 2.66-.118.378-.231.787-.339 1.223-.075.291-.145.598-.21.905-.038.156-.07.313-.102.474l-.097.49v.076c-.065.334-.13.678-.189 1.028s-.129.754-.188 1.137c-.043.248-.081.495-.113.743-.076.48-.14.964-.205 1.444-.038.28-.075.538-.108.834l-.129 1.078c.275.883.582 1.755.9 2.612.202.469.321.97.35 1.48a36.803 36.803 0 0 0 20.224 0 .205.205 0 0 1 0-.053 6.415 6.415 0 0 1-.13-1.47c.11-1.382.29-2.757.54-4.12.079-.673.113-1.35.102-2.026v-.242c-.017-.205-.022-.399-.027-.593zm0 0c0-.215 0-.43-.038-.646-.038-.215-.032-.404-.06-.608-.026-.205-.048-.41-.075-.614-.027-.205-.064-.41-.102-.615-.038-.204-.075-.409-.118-.614 0-.07-.027-.134-.044-.204a25.247 25.247 0 0 0-.371-1.465c0-.097-.054-.194-.086-.286-.033-.091-.092-.312-.14-.468l-.097-.302c-.043-.134-.087-.27-.135-.404-.08-.242-.167-.48-.253-.721a47.491 47.491 0 0 0-.851-2.16c-.781-1.864-1.659-3.7-2.467-5.52a30.522 30.522 0 0 1-1.153-2.926l-.102.146a6.22 6.22 0 0 0-.436.775c0 4.24-4.244 9.426-4.244 9.426l-4.271-6.22-3.738 5.746c-.539.285-1.077 1.266-1.498 2.66-.118.378-.231.787-.339 1.223-.075.291-.145.598-.21.905-.038.156-.07.313-.102.474l-.097.49v.076c-.065.334-.13.678-.189 1.028s-.129.754-.188 1.137c-.043.248-.081.495-.113.743-.076.48-.14.964-.205 1.444-.038.28-.075.538-.108.834l-.129 1.078c.275.883.582 1.755.9 2.612.202.469.321.97.35 1.48a36.803 36.803 0 0 0 20.224 0 .205.205 0 0 1 0-.053 6.415 6.415 0 0 1-.13-1.47c.11-1.382.29-2.757.54-4.12.079-.673.113-1.35.102-2.026v-.242c-.017-.205-.022-.399-.027-.593zm0 0c0-.215 0-.43-.038-.646-.038-.215-.032-.404-.06-.608-.026-.205-.048-.41-.075-.614-.027-.205-.064-.41-.102-.615-.038-.204-.075-.409-.118-.614 0-.07-.027-.134-.044-.204a25.247 25.247 0 0 0-.371-1.465c0-.097-.054-.194-.086-.286-.033-.091-.092-.312-.14-.468l-.097-.302c-.043-.134-.087-.27-.135-.404-.08-.242-.167-.48-.253-.721a47.491 47.491 0 0 0-.851-2.16c-.781-1.864-1.659-3.7-2.467-5.52a30.522 30.522 0 0 1-1.153-2.926l-.102.146a6.22 6.22 0 0 0-.436.775c0 4.24-4.244 9.426-4.244 9.426l-4.271-6.22-3.738 5.746c-.539.285-1.077 1.266-1.498 2.66-.118.378-.231.787-.339 1.223-.075.291-.145.598-.21.905-.038.156-.07.313-.102.474l-.097.49v.076c-.065.334-.13.678-.189 1.028s-.129.754-.188 1.137c-.043.248-.081.495-.113.743-.076.48-.14.964-.205 1.444-.038.28-.075.538-.108.834l-.129 1.078c.275.883.582 1.755.9 2.612.202.469.321.97.35 1.48a36.803 36.803 0 0 0 20.224 0 .205.205 0 0 1 0-.053 6.415 6.415 0 0 1-.13-1.47c.11-1.382.29-2.757.54-4.12.079-.673.113-1.35.102-2.026v-.242c-.017-.205-.022-.399-.027-.593zm0 0c0-.215 0-.43-.038-.646-.038-.215-.032-.404-.06-.608-.026-.205-.048-.41-.075-.614-.027-.205-.064-.41-.102-.615-.038-.204-.075-.409-.118-.614 0-.07-.027-.134-.044-.204a25.247 25.247 0 0 0-.371-1.465c0-.097-.054-.194-.086-.286-.033-.091-.092-.312-.14-.468l-.097-.302c-.043-.134-.087-.27-.135-.404-.08-.242-.167-.48-.253-.721a47.491 47.491 0 0 0-.851-2.16c-.781-1.864-1.659-3.7-2.467-5.52a30.522 30.522 0 0 1-1.153-2.926l-.102.146a6.22 6.22 0 0 0-.436.775c0 4.24-4.244 9.426-4.244 9.426l-4.271-6.22-3.738 5.746c-.539.285-1.077 1.266-1.498 2.66-.118.378-.231.787-.339 1.223-.075.291-.145.598-.21.905-.038.156-.07.313-.102.474l-.097.49v.076c-.065.334-.13.678-.189 1.028s-.129.754-.188 1.137c-.043.248-.081.495-.113.743-.076.48-.14.964-.205 1.444-.038.28-.075.538-.108.834l-.129 1.078c.275.883.582 1.755.9 2.612.202.469.321.97.35 1.48a36.803 36.803 0 0 0 20.224 0 .205.205 0 0 1 0-.053 6.415 6.415 0 0 1-.13-1.47c.11-1.382.29-2.757.54-4.12.079-.673.113-1.35.102-2.026v-.242c-.017-.205-.022-.399-.027-.593zm0 0c0-.215 0-.43-.038-.646-.038-.215-.032-.404-.06-.608-.026-.205-.048-.41-.075-.614-.027-.205-.064-.41-.102-.615-.038-.204-.075-.409-.118-.614 0-.07-.027-.134-.044-.204a25.247 25.247 0 0 0-.371-1.465c0-.097-.054-.194-.086-.286-.033-.091-.092-.312-.14-.468l-.097-.302c-.043-.134-.087-.27-.135-.404-.08-.242-.167-.48-.253-.721a47.491 47.491 0 0 0-.851-2.16c-.781-1.864-1.659-3.7-2.467-5.52a30.522 30.522 0 0 1-1.153-2.926l-.102.146a6.22 6.22 0 0 0-.436.775c0 4.24-4.244 9.426-4.244 9.426l-4.271-6.22-3.738 5.746c-.539.285-1.077 1.266-1.498 2.66-.118.378-.231.787-.339 1.223-.075.291-.145.598-.21.905-.038.156-.07.313-.102.474l-.097.49v.076c-.065.334-.13.678-.189 1.028s-.129.754-.188 1.137c-.043.248-.081.495-.113.743-.076.48-.14.964-.205 1.444-.038.28-.075.538-.108.834l-.129 1.078c.275.883.582 1.755.9 2.612.202.469.321.97.35 1.48a36.803 36.803 0 0 0 20.224 0 .205.205 0 0 1 0-.053 6.415 6.415 0 0 1-.13-1.47c.11-1.382.29-2.757.54-4.12.079-.673.113-1.35.102-2.026v-.242c-.017-.205-.022-.399-.027-.593zm0 0c0-.215 0-.43-.038-.646-.038-.215-.032-.404-.06-.608-.026-.205-.048-.41-.075-.614-.027-.205-.064-.41-.102-.615-.038-.204-.075-.409-.118-.614 0-.07-.027-.134-.044-.204a25.247 25.247 0 0 0-.371-1.465c0-.097-.054-.194-.086-.286-.033-.091-.092-.312-.14-.468l-.097-.302c-.043-.134-.087-.27-.135-.404-.08-.242-.167-.48-.253-.721a47.491 47.491 0 0 0-.851-2.16c-.781-1.864-1.659-3.7-2.467-5.52a30.522 30.522 0 0 1-1.153-2.926l-.102.146a6.22 6.22 0 0 0-.436.775c0 4.24-4.244 9.426-4.244 9.426l-4.271-6.22-3.738 5.746c-.539.285-1.077 1.266-1.498 2.66-.118.378-.231.787-.339 1.223-.075.291-.145.598-.21.905-.038.156-.07.313-.102.474l-.097.49v.076c-.065.334-.13.678-.189 1.028s-.129.754-.188 1.137c-.043.248-.081.495-.113.743-.076.48-.14.964-.205 1.444-.038.28-.075.538-.108.834l-.129 1.078c.275.883.582 1.755.9 2.612.202.469.321.97.35 1.48a36.803 36.803 0 0 0 20.224 0 .205.205 0 0 1 0-.053 6.415 6.415 0 0 1-.13-1.47c.11-1.382.29-2.757.54-4.12.079-.673.113-1.35.102-2.026v-.242c-.017-.205-.022-.399-.027-.593zm0 0c0-.215 0-.43-.038-.646-.038-.215-.032-.404-.06-.608-.026-.205-.048-.41-.075-.614-.027-.205-.064-.41-.102-.615-.038-.204-.075-.409-.118-.614 0-.07-.027-.134-.044-.204a25.247 25.247 0 0 0-.371-1.465c0-.097-.054-.194-.086-.286-.033-.091-.092-.312-.14-.468l-.097-.302c-.043-.134-.087-.27-.135-.404-.08-.242-.167-.48-.253-.721a47.491 47.491 0 0 0-.851-2.16c-.781-1.864-1.659-3.7-2.467-5.52a30.522 30.522 0 0 1-1.153-2.926l-.102.146a6.22 6.22 0 0 0-.436.775c0 4.24-4.244 9.426-4.244 9.426l-4.271-6.22-3.738 5.746c-.539.285-1.077 1.266-1.498 2.66-.118.378-.231.787-.339 1.223-.075.291-.145.598-.21.905-.038.156-.07.313-.102.474l-.097.49v.076c-.065.334-.13.678-.189 1.028s-.129.754-.188 1.137c-.043.248-.081.495-.113.743-.076.48-.14.964-.205 1.444-.038.28-.075.538-.108.834l-.129 1.078c.275.883.582 1.755.9 2.612.202.469.321.97.35 1.48a36.803 36.803 0 0 0 20.224 0 .205.205 0 0 1 0-.053 6.415 6.415 0 0 1-.13-1.47c.11-1.382.29-2.757.54-4.12.079-.673.113-1.35.102-2.026v-.242c-.017-.205-.022-.399-.027-.593z"/>
            <path fill="#000" d="M32.386 50.041l-.36-.048a13.12 13.12 0 0 1-1.617-.323l-.199-.054c-1.314-.372-2.752-1.04-3.075-2.214a2.095 2.095 0 0 1 .032-1.147c.18-.64.426-1.262.732-1.853v-.032a2.57 2.57 0 0 1 .135-.243 5.386 5.386 0 0 1 1.944-2.116l-.646.102-5.472.889-8.483 1.368s-1.508-.302-3.56 5.354c0 .07-.049.134-.07.21-.496 1.384-1.018 3.113-1.557 5.272a162.27 162.27 0 0 0-1.023 4.395c-.092.431-.183.857-.27 1.277a34.223 34.223 0 0 0 3.13 3.232l.178.166a36.765 36.765 0 0 0 7.174 5.08l.102.053a35.515 35.515 0 0 0 5.063 2.24l.458.162c.097-.996.204-2.1.334-3.231 0-.113 0-.226.043-.34l.13-1.077c.031-.274.07-.538.107-.834.064-.48.13-.965.204-1.444.033-.248.07-.495.114-.743a62.511 62.511 0 0 1 .377-2.165V61.9l.097-.49c.032-.161.064-.318.102-.474.065-.307.135-.614.21-.905.108-.436.22-.845.34-1.222.43-1.395.931-2.376 1.497-2.661l3.737-5.747.157-.242.07-.108-.135-.01z" opacity=".1"/>
            <path fill="#F1D2D7" d="M32.068 50.052l-3.97 6.097c-.538.275-1.044 1.228-1.47 2.58-.124.398-.247.835-.366 1.293a64.4 64.4 0 0 0-1.217 7.05c0 .108 0 .215-.043.323a162.79 162.79 0 0 0-.458 4.266 35.515 35.515 0 0 1-5.063-2.24l-.102-.055a36.765 36.765 0 0 1-7.174-5.079l-.178-.167a34.223 34.223 0 0 1-3.13-3.231c-.129-.146-.252-.297-.376-.447.059-.28.118-.539.183-.84.307-1.428.646-2.893 1.018-4.385a53.068 53.068 0 0 1 1.831-6.032c.02-.059.043-.116.07-.172 1.907-4.907 3.28-4.632 3.28-4.632l8.957-1.444 5.655-.915-.177.102a5.736 5.736 0 0 0-1.557 1.659l-.156.264c-.065.102-.124.215-.189.328a9.544 9.544 0 0 0-.743 1.885c-.167.51-.12 1.066.13 1.54.538 1.046 2.067 1.617 3.322 1.929l.21.054c.565.126 1.137.216 1.713.27z"/>
            <path fill="#000" d="M63.194 60.937l-.22-4.783c.942-7.54-.943-8.009-.943-8.009l-2.241-1.077h-.06L50.72 42.7l-.35-.172-.108-.049-1.174-.57-.743-.361-1.39-.674-.468-.226V42.518c0 .538.048 1.168.091 1.9.097 1.842.275 4.31.593 7.218.177 1.685.404 3.527.684 5.504.167 1.169.285 2.332.36 3.469a61.04 61.04 0 0 1-.355 11.472l.49-.156a36.086 36.086 0 0 0 3.9-1.562 35.795 35.795 0 0 0 6.947-4.266l.097-.07a35.935 35.935 0 0 0 3.91-3.55l-.01-1.54z" opacity=".1"/>
            <path fill="#F1D2D7" d="M63.668 60.937l-.221-4.793c.943-7.54-.943-8.01-.943-8.01l-2.693-1.303h-.053l-9.038-4.384-.415-.2-.08-.037-.663-.323-.878-.426-1.734-.84v1.713c0 .539.048 1.244.097 2.047.091 1.718.253 3.97.538 6.646.194 1.837.437 3.878.754 6.075.165 1.174.284 2.336.356 3.485.24 3.772.128 7.559-.334 11.31a36.086 36.086 0 0 0 3.9-1.561 35.795 35.795 0 0 0 6.947-4.266l.097-.07a35.935 35.935 0 0 0 3.91-3.55 9.52 9.52 0 0 0 .453-.484v-1.029z"/>
            <path fill="#000" d="M33.285 21.366c1.68-.285 3.372-.9 5.042-.538 1.4.29 2.569 1.222 3.85 1.869a9.97 9.97 0 0 0 3.976 1.05 2.338 2.338 0 0 0 1.46-.286c.667-.463.764-1.41.65-2.219-.322-2.294-1.755-4.265-3.23-6.053a11.85 11.85 0 0 0-2.026-2.053c-1.933-1.427-4.492-1.67-6.889-1.561-2.736.123-5.515.651-7.89 2.025-1.616.926-5.321 3.845-4.034 5.957 1.352 2.208 6.975 2.17 9.091 1.81z" opacity=".1"/>
            <path fill="#000A29" d="M33.285 20.828c1.68-.286 3.372-.9 5.042-.539 1.4.29 2.569 1.223 3.85 1.869a9.97 9.97 0 0 0 3.976 1.05 2.338 2.338 0 0 0 1.46-.285c.667-.463.764-1.411.65-2.22-.322-2.294-1.755-4.265-3.23-6.053a11.85 11.85 0 0 0-2.026-2.052c-1.933-1.427-4.492-1.67-6.889-1.562-2.736.124-5.515.652-7.89 2.025-1.616.926-5.321 3.846-4.034 5.957 1.352 2.208 6.975 2.17 9.091 1.81z"/>
        </g>
        <path fill="url(#c)" fill-rule="nonzero" d="M311.531 312.226h.081c.119 3.609.63 6.873 1.616 7.778 2.348 2.154 12.086-2.155 11.418-4.762-.134-.538-.36-1.422-.646-2.536 2.628-.329 4.874-1.078 5.768-2.618l1.692 5.214.118.371h.129c1.115 10.568 3.641 32.51 5.661 35.45 2.693 3.895 5.79 20.77 5.79 20.77l5.79 34.615s2.23 19.928 3.565 22.083c.389.411.905.679 1.465.76-.78 2.337-1.9 5.067-3.231 6.592-2.693 3.026-6.237 9.086-9.356 8.655-3.118-.431-4.007 6.06 1.783 6.92 3.205.48 8.316-.101 12.243-.715 0 1.734 1.206 3.727 4.238 4.179 5.79.867 17.817-1.729 17.817-1.729s10.234-4.309 10.691-7.357c.324-2.208-1.244-11.074-2.116-15.722 1.615-2.59-.108-24.948-.108-24.948l-3.119-42.835s1.783-23.795 0-28.125c-1.114-2.693-1.53-15.081-1.685-23.941l2.154.14c.123-.148.234-.305.334-.469l.539.038s2.693-3.027.447-7.788c-1.654-3.539-1.341-19.514-1.078-27.469l.318-3.77c.118-.114.209-.254.264-.41a39.506 39.506 0 0 0 12.027-3.64 12.205 12.205 0 0 0 3.156-1.918c2.23-2.154.889-15.145-3.565-34.615-4.455-19.47-8.462-17.742-8.462-17.742s-10.69-.867-15.592-7.357c-4.901-6.49-8.192-6.404-8.192-6.404a36.835 36.835 0 0 1-.27-2.402c0-.28-.043-.539-.059-.819a14.24 14.24 0 0 0 3.706-5.617c1.002-.539 2.235-.717 3.194-1.395.244-.178.466-.384.662-.614a5.445 5.445 0 0 0 1.718-3.388 13.853 13.853 0 0 0-.199-4.25c-.34-2.068-.84-4.185-2.047-5.811-1.206-1.627-3.01-2.607-4.75-3.517a1511.202 1511.202 0 0 0-14.17-7.347 7.82 7.82 0 0 0-3.033-1.077c-1.896-.108-3.598 1.19-5.127 2.424-.61.48-1.195.992-1.75 1.535a9.83 9.83 0 0 0-1.288 1.384c-1.788 2.397-2.548 6.91-1.761 9.905.247.948.78 1.222 1.438 1.212a13.885 13.885 0 0 0-1.481 6.247 14.165 14.165 0 0 0 6.576 11.898c0 .302 0 .598.027.883a31.61 31.61 0 0 1-.108 3.313s-11.85 6.404-13.18 9.43c-1.33 3.028-6.237 5.193-6.237 5.193s-9.355 4.76-9.355 21.635l-4.901 23.796-.889 45.43s.614-.538 1.616-1.303c-.032.302-.06.614-.086.932a51.29 51.29 0 0 0-.135 5.219l-.065.41zm59.839 117.582a61.8 61.8 0 0 1-.792 2.693c-.15-.894-.302-1.777-.452-2.618.387-.037.802-.059 1.244-.075z"/>
        <path fill="#53526B" fill-rule="nonzero" d="M355.19 424.228s-1.718 7.724-4.308 10.724c-2.591 3-5.984 9.01-8.979 8.58-2.995-.431-3.862 6.005 1.718 6.861 5.58.857 17.133-1.713 17.133-1.713s9.867-4.308 10.293-7.292c.425-2.984-2.575-18.447-2.575-18.447l-13.282 1.287z"/>
        <path fill="#000" fill-rule="nonzero" d="M355.19 424.228s-1.718 7.724-4.308 10.724c-2.591 3-5.984 9.01-8.979 8.58-2.995-.431-3.862 6.005 1.718 6.861 5.58.857 17.133-1.713 17.133-1.713s9.867-4.308 10.293-7.292c.425-2.984-2.575-18.447-2.575-18.447l-13.282 1.287z" opacity=".05"/>
        <path fill="#53526B" fill-rule="nonzero" d="M371.063 427.659s-1.718 7.723-4.309 10.723c-2.59 3-6 9.011-8.99 8.58-2.988-.43-3.86 6.006 1.719 6.862 5.58.856 17.16-1.718 17.16-1.718s9.867-4.309 10.292-7.293c.426-2.984-2.574-18.447-2.574-18.447l-13.298 1.293z"/>
        <path fill="#5F5D7E" fill-rule="nonzero" d="M332.025 310.131s3.431 36.889 6.006 40.75c2.574 3.862 5.574 20.591 5.574 20.591l5.575 34.314s2.154 19.735 3.43 21.878c1.277 2.144 17.198 1.223 17.198 1.223l-9.9-113.612-27.883-5.144z"/>
        <path fill="#000A29" fill-rule="nonzero" d="M332.025 310.131s3.431 36.889 6.006 40.75c2.574 3.862 5.574 20.591 5.574 20.591l5.575 34.314s2.154 19.735 3.43 21.878c1.277 2.144 17.198 1.223 17.198 1.223l-9.9-113.612-27.883-5.144z"/>
        <path fill="#000A29" fill-rule="nonzero" d="M325.163 292.535l1.12 3.56 6.06 19.234.118.366h.033c.813.183 17.984 4.13 21.69 5.343.199.062.395.135.586.22 1.718.857 3.862 31.74 3.862 31.74s1.287 29.17 2.154 31.314c.868 2.144 4.31 46.32 6.437 45.038 2.127-1.282 17.585 0 17.585 0 1.718-1.718 0-24.878 0-24.878l-3.049-42.458s1.719-23.59 0-27.883c-1.718-4.293-1.718-33.027-1.718-33.027l-35.111-5.488-3.393-.539-16.374-2.542z"/>
        <path fill="#000" fill-rule="nonzero" d="M326.284 296.1l6.059 19.234.145.377c.814.183 17.984 4.131 21.69 5.343h.371l-9.592-25.433-.275-.732-3.118.199-15.28 1.013z" opacity=".02"/>
        <path fill="#000" fill-rule="nonzero" d="M366.345 206.752s-15.873 17.16-25.74 3l-9.436 6.437 1.718 9.867-5.58 74.633s14.585-.43 24.878 3a15.964 15.964 0 0 0 16.729-3.861l-1.697-65.623 3.862-20.16-4.734-7.293z" opacity=".1"/>
        <path fill="#FFF" fill-rule="nonzero" d="M366.345 205.465s-15.873 17.16-25.74 3l-9.436 6.436 1.718 9.867-5.58 74.634s14.585-.43 24.878 3a15.964 15.964 0 0 0 16.729-3.862l-1.697-65.623 3.862-20.16-4.734-7.292z"/>
        <g fill="#E82127" fill-rule="nonzero">
            <path d="M334.659 281.882v2.703h-.862v-1.799h-3.15v1.8h-.868v-2.7l4.88-.004M333.889 281.009h-3.329a1.228 1.228 0 0 1-.905-.894h5.133a1.233 1.233 0 0 1-.905.894"/>
            <g>
                <path d="M363.986 280.147c-.116.438-.46.778-.9.889h-1.4l-.07.027v3.533h-.862v-3.533l-.08-.027h-1.401a1.26 1.26 0 0 1-.9-.889h5.613"/>
            </g>
        </g>
        <path fill="#D6DBE6" fill-rule="nonzero" d="M333.312 294.259s0 11.154-2.574 15.872c-2.575 4.718-17.585 2.154-17.585 2.154l3-15.872 17.16-2.154z"/>
        <path fill="#F7CA82" fill-rule="nonzero" d="M314.785 320.004c2.262 2.154 11.639-2.155 10.992-4.719-.452-1.815-2.036-8.31-2.935-11.994l-.625-2.59s-5.493-1.719-7.432 0c-.706.624-1.202 3.085-1.433 6.058-.399 5.166.005 11.877 1.433 13.245zM335.44 213.183l15.01 11.58s22.304-1.287 16.73-12.01a39.986 39.986 0 0 1-4.31-15.157 31.691 31.691 0 0 1 0-5.865s-20.59-18.851-18.015 2.574c.202 1.645.321 3.299.355 4.955.307 16.083-9.77 13.923-9.77 13.923z"/>
        <path fill="#000" fill-rule="nonzero" d="M344.898 194.31c.203 1.645.321 3.299.355 4.956a14.057 14.057 0 0 0 7.794 2.337c3.84 0 6.668-3.738 9.22-6.22-.285-3.56.641-3.647.641-3.647s-20.585-18.872-18.01 2.575z" opacity=".1"/>
        <circle cx="353.047" cy="186.592" r="14.154" fill="#F7CA82" fill-rule="nonzero"/>
        <path fill="#000" fill-rule="nonzero" d="M363.124 200.1s2.359.216 7.077 6.647c4.718 6.43 15.01 7.292 15.01 7.292s3.863-1.718 8.15 17.586c4.287 19.303 5.574 32.17 3.43 34.314-2.143 2.144-10.723 5.154-15.032 5.154 0 0-1.287 27.022.857 31.74 2.143 4.718-.431 7.724-.431 7.724l-18.851-1.288s-6.436-8.149-7.724-22.303c-1.287-14.155-5.574-54.48-3.43-59.198 2.143-4.718 11.58-16.729 11.154-18.016-.426-1.287-.21-9.651-.21-9.651z" opacity=".1"/>
        <path fill="#555388" fill-rule="nonzero" d="M363.172 199.971s3.173-.086 7.89 6.35c4.719 6.437 15.006 7.293 15.006 7.293s3.862-1.718 8.15 17.585c4.286 19.304 5.574 32.17 3.43 34.314-2.144 2.144-10.723 5.15-15.01 5.15 0 0-1.288 27.021.856 31.74 2.143 4.717-.431 7.723-.431 7.723l-18.851-1.288s-6.436-8.149-7.724-22.303c-1.287-14.154-5.585-54.474-3.441-59.17 2.143-4.697 11.58-16.73 11.154-18.017-.425-1.287-1.029-9.377-1.029-9.377z"/>
        <path fill="#000" fill-rule="nonzero" d="M313.357 306.754c2.052-1.567 5.925-4.007 9.49-3.469l-.624-2.59s-5.494-1.718-7.433 0c-.716.625-1.207 3.08-1.433 6.059zM345.135 202.675s-10.94 7.077-12.227 10.083c-1.287 3.005-6.005 5.149-6.005 5.149s-9.005 4.718-9.005 21.447l-4.718 23.59 21.447 30.027s2.574-30.027 3.861-37.32c1.288-7.292 3-21.005 3-21.005s6.437-8.149 5.575-10.292c-.862-2.144-1.928-21.679-1.928-21.679z" opacity=".1"/>
        <path fill="#555388" fill-rule="nonzero" d="M345.135 202.546s-11.408 6.35-12.69 9.35-6.005 5.149-6.005 5.149-9.006 4.718-9.006 21.447l-4.718 23.59-.856 45.038s7.723-7.292 13.298-3.861c5.574 3.43 9.005-11.155 9.005-11.155s2.575-30.027 3.862-37.32c1.287-7.292 3-21.005 3-21.005s6.436-8.149 5.575-10.292c-.862-2.144-1.465-20.941-1.465-20.941z"/>
        <path fill="#000" fill-rule="nonzero" d="M340.621 169.373a14.004 14.004 0 0 1 2.5-2.466c1.475-1.228 3.107-2.51 4.938-2.403a7.39 7.39 0 0 1 2.92 1.045c4.56 2.403 9.107 4.83 13.642 7.282 1.675.905 3.404 1.864 4.573 3.49 1.169 1.627 1.643 3.717 1.971 5.763.275 1.387.34 2.806.194 4.212a5.284 5.284 0 0 1-1.863 3.539c-1.223.889-2.898.894-3.921 2.057-.593.674-.851 1.616-1.272 2.435-.42.818-1.147 1.616-1.976 1.47-.83-.145-1.33-1.023-1.45-1.912-.052-.9 0-1.804.157-2.693.162-1.616-.043-3.328-.98-4.53-.646-.818-1.573-1.314-2.198-2.154-1.497-2.025-.813-5.386-2.456-7.287a3.894 3.894 0 0 0-3.77-1.077c-1.33.28-2.547 1.001-3.77 1.615a28.007 28.007 0 0 1-5.165 1.993c-1.498.41-3.232 1.39-3.743-.603-.781-2.925-.054-7.4 1.67-9.776z" opacity=".1"/>
        <path fill="#000A29" fill-rule="nonzero" d="M341.052 168.948a14.004 14.004 0 0 1 2.5-2.467c1.475-1.228 3.107-2.51 4.938-2.402a7.39 7.39 0 0 1 2.92 1.045c4.556 2.402 8.342.13 13.642 7.282 1.131 1.53 3.404 1.863 4.573 3.49 1.169 1.626 1.643 3.716 1.971 5.763.275 1.386.34 2.806.194 4.212a5.284 5.284 0 0 1-1.864 3.538c-1.222.889-2.897.894-3.92 2.058-.593.673-.852 1.616-1.272 2.434-.42.819-1.147 1.616-1.976 1.47-.83-.145-1.33-1.023-1.45-1.911-.052-.901 0-1.805.157-2.693.162-1.616-.043-3.329-.98-4.53-.647-.819-1.573-1.314-2.198-2.154-1.497-2.026-.813-5.386-2.456-7.288a3.894 3.894 0 0 0-3.77-1.077c-1.33.28-2.548 1.002-3.77 1.616a28.007 28.007 0 0 1-5.165 1.993c-1.498.41-3.232 1.39-3.744-.603-.786-2.925-.053-7.406 1.67-9.776z"/>
        <path fill="#000" fill-rule="nonzero" d="M379.713 234.415s5.72 14.585 1.427 20.59l-9.436-2.154s8.58 2.574 7.292-2.575c-1.287-5.149.717-15.861.717-15.861zM382.837 270.452s-12.442.857-15.873-1.718a32.855 32.855 0 0 0 15.485 6.437l.388-4.719zM329.24 242.984s-6.436 19.734-6.005 22.734c.431 3 1.287 36.032 1.287 36.032l1.288-.43-.431-36.033 3.862-22.303z" opacity=".1"/>
        <path fill="url(#d)" fill-rule="nonzero" d="M384.35 267.102L237.312 148.61a9.2 9.2 0 0 0-6.517-2.693h-6.247c25.915-33.21 21.516-80.852-10.042-108.756-31.558-27.903-79.38-26.435-109.167 3.352-29.787 29.787-31.255 77.609-3.352 109.167 27.904 31.558 75.546 35.957 108.756 10.042v6.242a9.2 9.2 0 0 0 2.693 6.517l147.038 118.492a9.156 9.156 0 0 0 13.002 0l10.836-10.826a9.248 9.248 0 0 0 .038-13.045zM161.655 145.917c-27.11 0-49.088-21.977-49.088-49.088 0-27.11 21.978-49.088 49.088-49.088s49.088 21.978 49.088 49.088a49.061 49.061 0 0 1-49.088 49.1v-.012z"/>
        <path fill="#02B875" fill-rule="nonzero" d="M385.427 266.025L238.39 147.533a9.2 9.2 0 0 0-6.517-2.693h-6.248c25.915-33.21 21.516-80.852-10.042-108.756-31.558-27.903-79.38-26.435-109.167 3.352-29.787 29.787-31.255 77.609-3.351 109.167 27.903 31.558 75.545 35.957 108.755 10.042v6.242a9.2 9.2 0 0 0 2.693 6.517l147.038 118.492a9.156 9.156 0 0 0 13.002 0l10.837-10.826a9.248 9.248 0 0 0 .037-13.045zM162.732 144.84c-27.11 0-49.087-21.977-49.087-49.088 0-27.11 21.977-49.088 49.087-49.088 27.111 0 49.088 21.978 49.088 49.088a49.061 49.061 0 0 1-49.088 49.099v-.01z"/>
        <path fill="#F7CA82" fill-rule="nonzero" d="M374.494 255.22s-21.463-24.613-18.447-7.723c2.154 12.011 10.292 18.447 14.154 19.735 3.862 1.287 4.293-12.011 4.293-12.011z"/>
        <path fill="#555388" fill-rule="nonzero" d="M379.643 232.487s.43 15.872 2.574 18.016c2.144 2.143-1.287 4.718-1.287 4.718l-8.58-2.155s2.154 14.155-6.862 12.442c0 0 6.006 5.575 12.011 6.436 6.005.862 5.575-1.287 5.575-1.287l9.005-10.723-12.436-27.447z"/>
        <path fill="#555388" fill-rule="nonzero" d="M382.018 270.889l8.704-1.912-1.164-4.013-5.386-2.154-7.001 3.231z"/>
        <path fill="#C0BCCF" fill-rule="nonzero" d="M127.96 95.3a36.452 36.452 0 0 0 9.685 24.802 35.935 35.935 0 0 0 4.363 4.034l.096.07a35.8 35.8 0 0 0 6.948 4.266 36.086 36.086 0 0 0 3.9 1.562l.49.156c.301.103.614.194.92.28l.125.038c.156.043.312.092.474.13 3.13.85 6.36 1.28 9.603 1.276.538 0 1.104 0 1.653-.038a36.215 36.215 0 0 0 8.494-1.39h.054c.511-.15 1.018-.306 1.519-.479h.054l.457-.161a35.51 35.51 0 0 0 5.063-2.241l.103-.054c.177-.097.355-.194.538-.296a36.533 36.533 0 0 0 6.646-4.783l.178-.167a34.223 34.223 0 0 0 3.13-3.231l.113-.135a26.816 26.816 0 0 0 .953-1.174c9.815-12.647 10.279-30.202 1.146-43.35-9.133-13.147-25.746-18.84-41.023-14.057-15.277 4.783-25.677 18.934-25.681 34.942z"/>
        <path fill="url(#e)" fill-rule="nonzero" d="M140.634 107.079s7.944-.673 11.585-5.725c3.55-4.918 5.962-4.977 6.08-4.977.092-.657.157-1.282.2-1.864v-.08a1.077 1.077 0 0 1-.5.22c-.712.108-1.337-.565-1.692-1.281a10.002 10.002 0 0 0-1.077-2.122c-.878-1.013-2.316-1.018-3.361-1.789a4.621 4.621 0 0 1-1.616-3.08 8.478 8.478 0 0 1-.064-1.347c-.018-.962.058-1.923.226-2.87.28-1.783.695-3.61 1.69-5.015.997-1.406 2.947-1.707 3.917-3.038 4.54-6.226 7.777-4.25 11.682-6.339a6.259 6.259 0 0 1 2.499-.91c1.567-.092 2.968 1.028 4.228 2.095.806.624 1.53 1.348 2.154 2.154 1.126 1.578 1.756 4.223 1.702 6.539.03.86-.053 1.72-.248 2.558-.312 1.239-1.157 1.158-2.084.878a11.192 11.192 0 0 1-3.802 14.047v.565a.986.986 0 0 0 0 .124c-.015.86.014 1.719.086 2.575.091.048 8.8 4.987 9.786 7.33.986 2.343 4.637 4.04 4.637 4.04s4.013 2.154 5.925 8.919l-.113.134a34.546 34.546 0 0 1-3.13 3.297l-.177.172a36.555 36.555 0 0 1-6.646 4.847c-.173.103-.35.205-.539.302l-.102.054a35.214 35.214 0 0 1-5.063 2.278l-.458.167h-.054c-.5.178-1.007.334-1.519.485h-.054a35.666 35.666 0 0 1-8.493 1.411c-.539.027-1.077.038-1.654.038-3.233.018-6.455-.4-9.576-1.244-.162-.038-.318-.087-.474-.13l-.124-.037c-.307-.087-.62-.184-.92-.286l-.491-.156a35.763 35.763 0 0 1-3.916-1.594 35.698 35.698 0 0 1-6.948-4.336l-.097-.07a36.156 36.156 0 0 1-3.91-3.609 10.016 10.016 0 0 1-.452-.495 29.853 29.853 0 0 1-.867-.986 29.441 29.441 0 0 1-1.503-1.901c2.882-11.058 5.327-9.948 5.327-9.948z"/>
        <path fill="#F7CA82" fill-rule="nonzero" d="M168.102 116.095l11.586-8.935s-7.762 1.664-7.54-10.74a.954.954 0 0 1 0-.124c0-1.12.107-2.348.269-3.7 1.987-16.551-13.902-1.987-13.902-1.987.137 1.465.137 2.94 0 4.405v.119a30.776 30.776 0 0 1-3.307 11.693c-4.314 8.273 12.894 9.27 12.894 9.27z"/>
        <path fill="#000" fill-rule="nonzero" d="M159.996 92.715c1.966 1.912 3.167 5.386 6.124 5.386 2.14.004 4.233-.624 6.016-1.805 0-1.12.108-2.348.27-3.7 1.987-16.551-13.902-1.987-13.902-1.987s1.702-.587 1.492 2.106z" opacity=".1"/>
        <circle cx="166.12" cy="86.639" r="10.923" fill="#F7CA82" fill-rule="nonzero"/>
        <path fill="#000" fill-rule="nonzero" d="M176.596 72.652a11.984 11.984 0 0 0-2.154-2.112c-1.26-1.05-2.661-2.154-4.228-2.057a6.329 6.329 0 0 0-2.5.894c-3.904 2.057-7.141.113-11.682 6.232-.97 1.308-2.914 1.615-3.915 2.989-1.002 1.373-1.406 3.178-1.692 4.933a12.097 12.097 0 0 0-.166 3.609c.12 1.182.7 2.27 1.615 3.027 1.045.76 2.483.765 3.361 1.761a9.776 9.776 0 0 1 1.077 2.085c.356.7.98 1.362 1.692 1.26.71-.102 1.136-.873 1.238-1.616.045-.77 0-1.54-.134-2.3-.135-1.362.037-2.849.84-3.878.539-.705 1.346-1.125 1.88-1.842 1.282-1.729.7-4.632 2.106-6.237a3.334 3.334 0 0 1 3.231-.9c1.132.324 2.218.791 3.232 1.39a23.978 23.978 0 0 0 4.422 1.708c1.282.35 2.768 1.19 3.204-.539.684-2.542.043-6.377-1.427-8.407z" opacity=".1"/>
        <path fill="#000A29" fill-rule="nonzero" d="M176.596 72.113a11.984 11.984 0 0 0-2.154-2.111c-1.26-1.05-2.661-2.155-4.228-2.058a6.329 6.329 0 0 0-2.5.894c-3.904 2.058-7.141.114-11.682 6.232-.97 1.309-2.914 1.616-3.915 2.99-1.002 1.373-1.406 3.177-1.692 4.933a12.097 12.097 0 0 0-.166 3.608c.12 1.183.7 2.27 1.615 3.027 1.045.76 2.483.765 3.361 1.762a9.776 9.776 0 0 1 1.077 2.084c.356.7.98 1.363 1.692 1.26.71-.102 1.136-.872 1.238-1.616.045-.769 0-1.54-.134-2.3-.135-1.362.037-2.849.84-3.877.539-.706 1.346-1.126 1.88-1.842 1.282-1.73.7-4.632 2.106-6.237a3.334 3.334 0 0 1 3.231-.9c1.132.323 2.218.79 3.232 1.39a23.978 23.978 0 0 0 4.422 1.707c1.282.35 2.768 1.19 3.204-.538.684-2.543.043-6.377-1.427-8.408z"/>
        <path fill="#000" fill-rule="nonzero" d="M155.197 121.842l-.215 8.268c3.13.85 6.36 1.28 9.603 1.276.539 0 1.104 0 1.654-.038a36.215 36.215 0 0 0 8.493-1.39h.054c.512-.15 1.018-.306 1.52-.479h.053l.458-.161a35.51 35.51 0 0 0 5.063-2.24l.102-.055c.178-.097.356-.194.539-.296l-.835-11.144 1.33-7.642-7.282-4.96c-.408.59-.866 1.144-1.368 1.658a9.156 9.156 0 0 1-2.488 1.842c-5.224 2.575-11.17-1.519-14.128-4.05l-.673-.598c-.765-.695-1.2-1.169-1.2-1.169l-3.642 5.623 2.962 15.555z" opacity=".1"/>
        <path fill="#000A29" fill-rule="nonzero" d="M155.197 122.38l-.215 8.268c3.13.85 6.36 1.28 9.603 1.277.539 0 1.104 0 1.654-.038a36.215 36.215 0 0 0 8.493-1.39h.054c.512-.15 1.018-.307 1.52-.479h.053l.458-.162a35.51 35.51 0 0 0 5.063-2.24l.102-.054c.178-.097.356-.194.539-.296l-.835-11.144 1.33-7.643-7.282-4.96c-.408.59-.866 1.145-1.368 1.659a9.156 9.156 0 0 1-2.488 1.842c-5.224 2.574-11.17-1.52-14.128-4.05l-.673-.598c-.765-.695-1.2-1.17-1.2-1.17l-3.642 5.624 2.962 15.555z"/>
        <path fill="#555388" fill-rule="nonzero" d="M135.275 117.264a35.623 35.623 0 0 0 2.37 2.838 35.935 35.935 0 0 0 4.363 4.034l.096.07a35.8 35.8 0 0 0 6.948 4.266 36.086 36.086 0 0 0 3.9 1.562l.49.156c.301.103.614.194.92.28l.125.038c.156.043.312.092.474.13 3.13.85 6.36 1.28 9.603 1.276.538 0 1.104 0 1.653-.038.42-6.872.539-12.388-.118-13.804a22.217 22.217 0 0 0-1.33-2.38c-2.661-4.277-7.541-10.708-7.277-11.521.103-.398.177-.804.22-1.212.286-2.122.572-6.006.572-6.006-.119 0-2.532.06-6.081 4.896-3.641 4.966-11.585 5.629-11.585 5.629s-2.43-1.078-5.343 9.786zM175.384 123.043s.399 3.172.921 6.964h.054l.458-.161a35.51 35.51 0 0 0 5.063-2.241l.102-.054c.178-.097.356-.194.539-.296a36.533 36.533 0 0 0 6.646-4.783l.178-.167a34.223 34.223 0 0 0 3.129-3.231l.113-.135c-1.923-6.673-5.925-8.774-5.925-8.774s-3.64-1.659-4.637-3.975c-.996-2.316-9.792-7.212-9.792-7.212v.038c0 .415-.14 4.212-.35 8.03-.134 2.484-.301 4.977-.495 6.56a7.664 7.664 0 0 1-.28 1.52c-.684 1.632 4.276 7.917 4.276 7.917z"/>
    </g>
</svg>
