<?xml version="1.0" encoding="UTF-8"?>
<svg width="168px" height="18px" viewBox="0 0 168 18" version="1.1" xmlns="http://www.w3.org/2000/svg" xmlns:xlink="http://www.w3.org/1999/xlink">
    <!-- Generator: Sketch 50.2 (55047) - http://www.bohemiancoding.com/sketch -->
    <title>Logo</title>
    <desc>Created with Sketch.</desc>
    <defs></defs>
    <g id="Icons" stroke="none" stroke-width="1" fill="none" fill-rule="evenodd">
        <g id="Logo">
            <path d="M95.1151821,15.82605 C94.7886107,15.56505 94.6259679,15.2551929 94.6259679,14.8958357 C94.6259679,14.6676214 94.6992536,14.4676929 94.845825,14.2963714 C94.9927179,14.1253714 95.172075,14.03955 95.3842179,14.03955 C95.5471821,14.03955 95.7185036,14.0967643 95.8985036,14.2108714 C96.6487179,14.8309071 97.4645036,15.2876571 98.3455393,15.5811214 C99.2262536,15.8749071 100.221396,16.0214786 101.330968,16.0214786 C102.733682,16.0214786 103.810468,15.7611214 104.561004,15.2388 C105.311218,14.7168 105.686646,13.9826571 105.686646,13.03605 C105.686646,12.4488 105.503111,11.9679429 105.136039,11.5925143 C104.768968,11.2174071 104.308039,10.9194429 103.753575,10.6992643 C103.198468,10.4790857 102.439896,10.2306214 101.477539,9.95322857 C100.270254,9.61026429 99.2911821,9.27597857 98.5409679,8.94940714 C97.7904321,8.62347857 97.1501464,8.13812143 96.6201107,7.49365714 C96.0897536,6.84919286 95.8248964,6.0048 95.8248964,4.9608 C95.8248964,3.98172857 96.085575,3.12190714 96.6078964,2.37908571 C97.1298964,1.63690714 97.8762536,1.06605 98.8469679,0.666192857 C99.8173607,0.266657143 100.947504,0.0667285714 102.236111,0.0667285714 C103.426682,0.0667285714 104.536575,0.246085714 105.564504,0.605121429 C106.592111,0.964157143 107.448396,1.46172857 108.133682,2.09783571 C108.362218,2.30997857 108.476325,2.55458571 108.476325,2.83165714 C108.476325,3.07658571 108.398539,3.28455 108.243932,3.45587143 C108.088682,3.62719286 107.897111,3.71269286 107.668896,3.71269286 C107.440361,3.71269286 107.211825,3.62333571 106.983611,3.44365714 C106.379968,2.92197857 105.666075,2.50990714 104.842575,2.20776429 C104.018432,1.90594286 103.141896,1.75519286 102.211682,1.75519286 C100.808646,1.75519286 99.7315393,2.02840714 98.981325,2.57483571 C98.2307893,3.12190714 97.8556821,3.88433571 97.8556821,4.86308571 C97.8556821,5.51558571 98.0517536,6.04594286 98.4432536,6.45351429 C98.8347536,6.86140714 99.3201107,7.1838 99.899325,7.42037143 C100.478218,7.65694286 101.282111,7.93047857 102.309718,8.23969286 C103.484218,8.58265714 104.430182,8.90890714 105.148254,9.21876429 C105.866004,9.52894286 106.473504,9.97733571 106.971396,10.5649071 C107.468968,11.1521571 107.717754,11.9271214 107.717754,12.8894786 C107.717754,14.3741571 107.142718,15.5489786 105.992646,16.4133 C104.842575,17.2782643 103.272075,17.7102643 101.282111,17.7102643 C98.6878607,17.7102643 96.632325,17.0825143 95.1151821,15.82605" id="Fill-31" fill="#FFFFFF"></path>
            <path d="M114.740839,17.3553429 C114.560839,17.16795 114.479839,16.9191643 114.495911,16.6093071 L115.645982,1.97530714 L110.409268,1.97530714 C110.131875,1.97530714 109.915554,1.89816429 109.760946,1.74291429 C109.605375,1.58798571 109.528232,1.38805714 109.528232,1.14312857 C109.528232,0.866057143 109.609875,0.650057143 109.773161,0.494807143 C109.936125,0.339878571 110.172696,0.262414286 110.482875,0.262414286 L123.036589,0.262414286 C123.330375,0.262414286 123.550232,0.3357 123.697125,0.482592857 C123.844018,0.629485714 123.917625,0.833592857 123.917625,1.09427143 C123.917625,1.68152143 123.599411,1.97530714 122.962982,1.97530714 L117.652982,1.97530714 L116.502589,16.6822714 C116.469804,16.9603071 116.359554,17.1882 116.172161,17.3675571 C115.984446,17.5472357 115.744018,17.6369143 115.450554,17.6369143 C115.156768,17.6369143 114.920196,17.5427357 114.740839,17.3553429" id="Fill-33" fill="#FFFFFF"></path>
            <path d="M150.118682,5.10778929 C150.118682,2.98700357 148.886646,1.92661071 146.423539,1.92661071 L141.798504,1.92661071 L141.260111,8.77818214 L145.885146,8.77818214 C148.707289,8.77818214 150.118682,7.554825 150.118682,5.10778929 M150.669289,1.53478929 C151.623932,2.38303929 152.100932,3.54146786 152.100932,5.00975357 C152.100932,6.78821786 151.562539,8.13821786 150.485754,9.05975357 C149.408968,9.98161071 147.907896,10.4425393 145.983182,10.4425393 L141.113218,10.4425393 L140.624004,16.6824321 C140.607289,16.9762179 140.501539,17.2086107 140.305789,17.3799321 C140.110039,17.5512536 139.865432,17.6367536 139.571646,17.6367536 C139.277861,17.6367536 139.041289,17.5428964 138.861932,17.3555036 C138.682254,17.1681107 138.600932,16.9190036 138.617325,16.6091464 L139.840682,1.241325 C139.889861,0.588825 140.240539,0.262575 140.893039,0.262575 L146.594861,0.262575 C148.356932,0.262575 149.714968,0.686860714 150.669289,1.53478929" id="Fill-35" fill="#FFFFFF"></path>
            <path d="M153.960461,15.82605 C153.633889,15.56505 153.471246,15.2551929 153.471246,14.8958357 C153.471246,14.6676214 153.544532,14.4676929 153.691104,14.2963714 C153.837996,14.1253714 154.017354,14.03955 154.229496,14.03955 C154.392461,14.03955 154.563782,14.0967643 154.743782,14.2108714 C155.493996,14.8309071 156.309782,15.2876571 157.190818,15.5811214 C158.071532,15.8749071 159.066675,16.0214786 160.176246,16.0214786 C161.578961,16.0214786 162.655746,15.7611214 163.406282,15.2388 C164.156496,14.7168 164.531925,13.9826571 164.531925,13.03605 C164.531925,12.4488 164.348389,11.9679429 163.981318,11.5925143 C163.614246,11.2174071 163.153318,10.9194429 162.598854,10.6992643 C162.043746,10.4790857 161.285175,10.2306214 160.322818,9.95322857 C159.115532,9.61026429 158.136461,9.27597857 157.386246,8.94940714 C156.635711,8.62347857 155.995425,8.13812143 155.465389,7.49365714 C154.935032,6.84919286 154.670175,6.0048 154.670175,4.9608 C154.670175,3.98172857 154.930854,3.12190714 155.453175,2.37908571 C155.975175,1.63690714 156.721532,1.06605 157.692246,0.666192857 C158.662639,0.266657143 159.792782,0.0667285714 161.081389,0.0667285714 C162.271961,0.0667285714 163.381854,0.246085714 164.409782,0.605121429 C165.437389,0.964157143 166.293675,1.46172857 166.978961,2.09783571 C167.207496,2.30997857 167.321604,2.55458571 167.321604,2.83165714 C167.321604,3.07658571 167.243818,3.28455 167.089211,3.45587143 C166.933961,3.62719286 166.742389,3.71269286 166.514175,3.71269286 C166.285639,3.71269286 166.057104,3.62333571 165.828889,3.44365714 C165.225246,2.92197857 164.511354,2.50990714 163.687854,2.20776429 C162.863711,1.90594286 161.987175,1.75519286 161.056961,1.75519286 C159.653925,1.75519286 158.576818,2.02840714 157.826604,2.57483571 C157.076068,3.12190714 156.700961,3.88433571 156.700961,4.86308571 C156.700961,5.51558571 156.897032,6.04594286 157.288532,6.45351429 C157.680032,6.86140714 158.165389,7.1838 158.744604,7.42037143 C159.323496,7.65694286 160.127389,7.93047857 161.154996,8.23969286 C162.329496,8.58265714 163.275461,8.90890714 163.993532,9.21876429 C164.711282,9.52894286 165.318782,9.97733571 165.816675,10.5649071 C166.314246,11.1521571 166.563032,11.9271214 166.563032,12.8894786 C166.563032,14.3741571 165.987996,15.5489786 164.837925,16.4133 C163.687854,17.2782643 162.117354,17.7102643 160.127389,17.7102643 C157.533139,17.7102643 155.477604,17.0825143 153.960461,15.82605" id="Fill-37" fill="#FFFFFF"></path>
            <path d="M131.112032,17.5144821 L122.057711,17.5144821 C121.475925,17.5144821 120.999889,17.0387679 120.999889,16.4566607 C120.999889,15.874875 121.475925,15.3991607 122.057711,15.3991607 L131.112032,15.3991607 C131.693818,15.3991607 132.169532,15.874875 132.169532,16.4566607 C132.169532,17.0387679 131.693818,17.5144821 131.112032,17.5144821" id="Fill-39" fill="#02B875"></path>
            <path d="M135.515668,2.46792857 L126.461346,2.46792857 C125.879561,2.46792857 125.403846,1.99221429 125.403846,1.41042857 C125.403846,0.828642857 125.879561,0.352607143 126.461346,0.352607143 L135.515668,0.352607143 C136.097775,0.352607143 136.573489,0.828642857 136.573489,1.41042857 C136.573489,1.99221429 136.097775,2.46792857 135.515668,2.46792857" id="Fill-41" fill="#02B875"></path>
            <path d="M133.313689,9.99135 L124.259689,9.99135 C123.677582,9.99135 123.201868,9.51531429 123.201868,8.93352857 C123.201868,8.35174286 123.677582,7.87602857 124.259689,7.87602857 L133.313689,7.87602857 C133.895796,7.87602857 134.371511,8.35174286 134.371511,8.93352857 C134.371511,9.51531429 133.895796,9.99135 133.313689,9.99135" id="Fill-43" fill="#02B875"></path>
            <path d="M5.52323571,17.3977071 C5.34323571,17.2103143 5.26223571,16.9615286 5.27830714,16.6516714 L6.42837857,2.01767143 L1.19166429,2.01767143 C0.914271429,2.01767143 0.69795,1.94052857 0.543342857,1.78527857 C0.387771429,1.63035 0.310628571,1.43042143 0.310628571,1.18549286 C0.310628571,0.908421429 0.392271429,0.692421429 0.555557143,0.537171429 C0.718521429,0.382242857 0.955092857,0.304778571 1.26527143,0.304778571 L13.8189857,0.304778571 C14.1127714,0.304778571 14.3326286,0.378064286 14.4795214,0.524957143 C14.6264143,0.67185 14.7000214,0.875957143 14.7000214,1.13663571 C14.7000214,1.72388571 14.3818071,2.01767143 13.7453786,2.01767143 L8.43537857,2.01767143 L7.28498571,16.7246357 C7.2522,17.0026714 7.14195,17.2305643 6.95455714,17.4099214 C6.76684286,17.5896 6.52641429,17.6792786 6.23295,17.6792786 C5.93916429,17.6792786 5.70259286,17.5851 5.52323571,17.3977071" id="Fill-45" fill="#FFFFFF"></path>
            <path d="M17.0978143,11.463525 L24.7330286,11.463525 L21.5762786,2.62970357 L17.0978143,11.463525 Z M28.5747429,16.7490964 C28.5747429,17.0271321 28.4770286,17.2553464 28.2812786,17.4343821 C28.0855286,17.6137393 27.8569929,17.7037393 27.5959929,17.7037393 C27.1717071,17.7037393 26.8779214,17.4835607 26.7152786,17.0428821 L25.3202786,13.1275607 L16.2415286,13.1275607 L14.2104214,17.1164893 C14.1123857,17.2961679 13.9857429,17.4343821 13.8311357,17.5324179 C13.6758857,17.6304536 13.5167786,17.6793107 13.3541357,17.6793107 C13.1092071,17.6793107 12.8928857,17.5934893 12.7054929,17.4221679 C12.5177786,17.2511679 12.4239214,17.0348464 12.4239214,16.7738464 C12.4239214,16.5944893 12.4644214,16.4312036 12.5463857,16.2843107 L20.54835,0.892060714 C20.6624571,0.663525 20.8257429,0.488025 21.0378857,0.365882143 C21.2497071,0.243739286 21.4782429,0.182346429 21.7231714,0.182346429 C21.9674571,0.182346429 22.1918143,0.247596429 22.3959214,0.378096429 C22.5997071,0.508917857 22.7507786,0.704667857 22.8488143,0.965667857 L28.5017786,16.3823464 C28.5503143,16.4964536 28.5747429,16.6189179 28.5747429,16.7490964 Z" id="Fill-47" fill="#FFFFFF"></path>
            <path d="M31.6948821,17.2875214 C31.5235607,17.1081643 31.4538107,16.8555214 31.4869179,16.5292714 L32.710275,1.1367 C32.7263464,0.843235714 32.8327393,0.610521429 33.0284893,0.4392 C33.2242393,0.2682 33.4691679,0.182378571 33.7626321,0.182378571 C34.0721679,0.182378571 34.3132393,0.276235714 34.4845607,0.463628571 C34.6558821,0.651342857 34.733025,0.90045 34.7169536,1.20998571 L33.5668821,15.8439857 L41.422275,15.8439857 C41.7157393,15.8439857 41.939775,15.92145 42.095025,16.0760571 C42.2499536,16.2316286 42.3274179,16.4312357 42.3274179,16.6758429 C42.3274179,16.9535571 42.2454536,17.1695571 42.0828107,17.3241643 C41.919525,17.4797357 41.6826321,17.5568786 41.3730964,17.5568786 L32.4412393,17.5568786 C32.1146679,17.5568786 31.8658821,17.4675214 31.6948821,17.2875214" id="Fill-49" fill="#FFFFFF"></path>
            <path d="M77.5295036,0.463692857 C77.7005036,0.651407143 77.7776464,0.892157143 77.7618964,1.18562143 L76.5382179,16.7003357 C76.5051107,17.0105143 76.411575,17.2512643 76.2569679,17.4222643 C76.1017179,17.5935857 75.8773607,17.6794071 75.5838964,17.6794071 C75.1923964,17.6794071 74.8986107,17.5241571 74.7028607,17.2143 L65.6241107,3.68183571 L64.5717536,16.7247643 C64.5556821,17.01855 64.4576464,17.2512643 64.2782893,17.4222643 C64.0986107,17.5935857 63.8703964,17.6794071 63.593325,17.6794071 C63.3152893,17.6794071 63.0912536,17.5852286 62.9202536,17.3978357 C62.7489321,17.2104429 62.6711464,16.9613357 62.6875393,16.6514786 L63.9112179,1.18562143 C63.9272893,0.875764286 64.0295036,0.631157143 64.2172179,0.451478571 C64.4046107,0.272121429 64.6370036,0.182442857 64.9143964,0.182442857 C65.2731107,0.182442857 65.5588607,0.337371429 65.7710036,0.647228571 L74.825325,14.1311571 L75.8773607,1.13676429 C75.8934321,0.8433 75.9914679,0.610585714 76.1711464,0.439264286 C76.3505036,0.268264286 76.5787179,0.182442857 76.8564321,0.182442857 C77.133825,0.182442857 77.3581821,0.2763 77.5295036,0.463692857" id="Fill-51" fill="#FFFFFF"></path>
            <path d="M85.2255964,17.3977071 C85.0455964,17.2103143 84.9645964,16.9615286 84.9806679,16.6516714 L86.1307393,2.01767143 L80.894025,2.01767143 C80.6166321,2.01767143 80.4003107,1.94052857 80.2457036,1.78527857 C80.0901321,1.63035 80.0129893,1.43042143 80.0129893,1.18549286 C80.0129893,0.908421429 80.0946321,0.692421429 80.2579179,0.537171429 C80.4208821,0.382242857 80.6574536,0.304778571 80.9676321,0.304778571 L93.5213464,0.304778571 C93.8151321,0.304778571 94.0349893,0.378064286 94.1818821,0.524957143 C94.328775,0.67185 94.4023821,0.875957143 94.4023821,1.13663571 C94.4023821,1.72388571 94.0841679,2.01767143 93.4477393,2.01767143 L88.1377393,2.01767143 L86.9873464,16.7246357 C86.9545607,17.0026714 86.8443107,17.2305643 86.6569179,17.4099214 C86.4692036,17.5896 86.228775,17.6792786 85.9353107,17.6792786 C85.641525,17.6792786 85.4049536,17.5851 85.2255964,17.3977071" id="Fill-53" fill="#FFFFFF"></path>
            <path d="M55.182375,17.5568464 L46.1280536,17.5568464 C45.5462679,17.5568464 45.0705536,17.0811321 45.0705536,16.4993464 C45.0705536,15.9175607 45.5462679,15.441525 46.1280536,15.441525 L55.182375,15.441525 C55.7641607,15.441525 56.2401964,15.9175607 56.2401964,16.4993464 C56.2401964,17.0811321 55.7641607,17.5568464 55.182375,17.5568464" id="Fill-55" fill="#02B875"></path>
            <path d="M59.5863321,2.51061429 L50.5320107,2.51061429 C49.950225,2.51061429 49.4741893,2.03457857 49.4741893,1.45279286 C49.4741893,0.871007143 49.950225,0.395292857 50.5320107,0.395292857 L59.5863321,0.395292857 C60.1681179,0.395292857 60.6438321,0.871007143 60.6438321,1.45279286 C60.6438321,2.03457857 60.1681179,2.51061429 59.5863321,2.51061429" id="Fill-57" fill="#02B875"></path>
            <path d="M57.3843536,10.0337464 L48.3300321,10.0337464 C47.7482464,10.0337464 47.2725321,9.55803214 47.2725321,8.97624643 C47.2725321,8.39413929 47.7482464,7.918425 48.3300321,7.918425 L57.3843536,7.918425 C57.9661393,7.918425 58.4418536,8.39413929 58.4418536,8.97624643 C58.4418536,9.55803214 57.9661393,10.0337464 57.3843536,10.0337464" id="Fill-59" fill="#02B875"></path>
        </g>
    </g>
</svg>