<?xml version="1.0" encoding="UTF-8"?>
<svg width="206px" height="22px" viewBox="0 0 206 22" version="1.1" xmlns="http://www.w3.org/2000/svg" xmlns:xlink="http://www.w3.org/1999/xlink">
    <!-- Generator: Sketch 50.2 (55047) - http://www.bohemiancoding.com/sketch -->
    <title>TalentSteps</title>
    <desc>Created with Sketch.</desc>
    <defs>
        <polygon id="path-1" points="0 0.362652632 17.278414 0.362652632 17.278414 21.5714246 0 21.5714246"></polygon>
        <polygon id="path-3" points="0.211344309 0.359431776 13.4003266 0.359431776 13.4003266 21.6140351 0.211344309 21.6140351"></polygon>
    </defs>
    <g id="First-Draft" stroke="none" stroke-width="1" fill="none" fill-rule="evenodd">
        <g id="Home/Version-3" transform="translate(-70.000000, -29.000000)">
            <g id="TalentSteps" transform="translate(70.000000, 29.000000)">
                <path d="M116.010747,19.3209789 C115.618607,19.0075754 115.423309,18.6355053 115.423309,18.2039965 C115.423309,17.9299614 115.511309,17.6898912 115.687309,17.4841719 C115.863695,17.2788386 116.079063,17.175786 116.3338,17.175786 C116.529484,17.175786 116.735204,17.2444877 116.951344,17.3815053 C117.852186,18.1260316 118.831765,18.6744877 119.889695,19.0268737 C120.947239,19.3796456 122.142186,19.5556456 123.474537,19.5556456 C125.158888,19.5556456 126.45187,19.243014 127.353098,18.6158211 C128.25394,17.989014 128.704747,17.1074702 128.704747,15.9708035 C128.704747,15.2656456 128.484361,14.6882421 128.043589,14.2374351 C127.602818,13.787014 127.049344,13.4292246 126.383554,13.1648386 C125.716993,12.9004526 124.806116,12.6021018 123.650537,12.269014 C122.200853,11.8571895 121.025204,11.455786 120.124361,11.0636456 C119.223133,10.6722772 118.454291,10.0894702 117.817835,9.31561053 C117.180993,8.54175088 116.862958,7.52782105 116.862958,6.27420702 C116.862958,5.09855789 117.175975,4.06610175 117.803168,3.17413684 C118.429975,2.28294386 119.326186,1.59747018 120.4918,1.11732982 C121.657028,0.637575439 123.014081,0.397505263 124.561414,0.397505263 C125.991028,0.397505263 127.323765,0.612873684 128.558081,1.04399649 C129.792011,1.4751193 130.820221,2.07259298 131.643098,2.83641754 C131.917519,3.09115439 132.054537,3.38487368 132.054537,3.71757544 C132.054537,4.0116807 131.961133,4.2614 131.775484,4.4671193 C131.589063,4.6728386 131.359028,4.77550526 131.084993,4.77550526 C130.810572,4.77550526 130.536151,4.66820702 130.262116,4.45245263 C129.537274,3.82603158 128.680046,3.33122456 127.691204,2.96841754 C126.701589,2.60599649 125.649063,2.42497895 124.532081,2.42497895 C122.847344,2.42497895 121.553975,2.75304912 120.653133,3.40918947 C119.751905,4.06610175 119.301484,4.98161053 119.301484,6.15687368 C119.301484,6.94038246 119.536923,7.57722456 120.007028,8.06662807 C120.477133,8.55641754 121.05994,8.94354035 121.755449,9.22761053 C122.450572,9.5116807 123.41587,9.84013684 124.6498,10.2114351 C126.060116,10.6232596 127.196011,11.015014 128.058256,11.3870842 C128.920116,11.7595404 129.649589,12.2979614 130.247449,13.0035053 C130.844923,13.7086632 131.14366,14.6392246 131.14366,15.7948035 C131.14366,17.5775754 130.453168,18.9882772 129.072186,20.0261368 C127.691204,21.0647684 125.805379,21.5835053 123.41587,21.5835053 C120.300747,21.5835053 117.832502,20.8297158 116.010747,19.3209789" id="Fill-1" fill="#4270B7"></path>
                <path d="M139.576839,21.240614 C139.360698,21.0155965 139.263435,20.7168596 139.282733,20.3447895 L140.663716,2.44373684 L134.375575,2.44373684 C134.042488,2.44373684 133.782733,2.35110526 133.597084,2.16429825 C133.410277,1.97864912 133.317646,1.73857895 133.317646,1.44447368 C133.317646,1.11177193 133.415681,0.852403509 133.611751,0.665596491 C133.807435,0.479947368 134.091505,0.386929825 134.463961,0.386929825 L149.538207,0.386929825 C149.890979,0.386929825 150.154979,0.47454386 150.331365,0.650929825 C150.507751,0.827315789 150.596137,1.07240351 150.596137,1.38580702 C150.596137,2.09096491 150.214032,2.44373684 149.449821,2.44373684 L143.073681,2.44373684 L141.692312,20.4324035 C141.652944,20.7662632 141.520558,21.0399123 141.29554,21.2552807 C141.070137,21.4710351 140.781435,21.5787193 140.429049,21.5787193 C140.076277,21.5787193 139.792207,21.4656316 139.576839,21.240614" id="Fill-3" fill="#4270B7"></path>
                <path d="M104.135533,21.240614 C103.919393,21.0155965 103.82213,20.7168596 103.841428,20.3447895 L105.222411,2.44373684 L98.9342702,2.44373684 C98.6011825,2.44373684 98.3414281,2.35110526 98.1557789,2.16429825 C97.9689719,1.97864912 97.8763404,1.73857895 97.8763404,1.44447368 C97.8763404,1.11177193 97.9743754,0.852403509 98.1704456,0.665596491 C98.3661298,0.479947368 98.6502,0.386929825 99.0226561,0.386929825 L114.096902,0.386929825 C114.449674,0.386929825 114.713674,0.47454386 114.89006,0.650929825 C115.066446,0.827315789 115.154832,1.07240351 115.154832,1.38580702 C115.154832,2.09096491 114.772726,2.44373684 114.008516,2.44373684 L107.632375,2.44373684 L106.251007,20.4324035 C106.211639,20.7662632 106.079253,21.0399123 105.854235,21.2552807 C105.628832,21.4710351 105.34013,21.5787193 104.987744,21.5787193 C104.634972,21.5787193 104.350902,21.4656316 104.135533,21.240614" id="Fill-5" fill="#64ACDE"></path>
                <path d="M185.145554,6.20496491 C185.145554,3.65836842 183.666151,2.38507018 180.708502,2.38507018 L175.154853,2.38507018 L174.508361,10.6122982 L180.062011,10.6122982 C183.450782,10.6122982 185.145554,9.14331579 185.145554,6.20496491 M185.806712,1.91457895 C186.953028,2.93314035 187.5258,4.32415789 187.5258,6.08724561 C187.5258,8.22278947 186.879309,9.84384211 185.586326,10.9504035 C184.293344,12.0573509 182.490888,12.6108246 180.17973,12.6108246 L174.331975,12.6108246 L173.744537,20.4517018 C173.724467,20.8044737 173.597484,21.0839123 173.362432,21.2892456 C173.127379,21.4949649 172.83366,21.5980175 172.480888,21.5980175 C172.128116,21.5980175 171.844046,21.4849298 171.628677,21.2599123 C171.412923,21.0348947 171.315274,20.7357719 171.334958,20.3640877 L172.80394,1.56219298 C172.862993,0.778684211 173.284081,0.386929825 174.067589,0.386929825 L180.914221,0.386929825 C183.030081,0.386929825 184.660782,0.896403509 185.806712,1.91457895" id="Fill-7" fill="#4270B7"></path>
                <path d="M189.758684,19.3209789 C189.366544,19.0075754 189.171246,18.6355053 189.171246,18.2039965 C189.171246,17.9299614 189.259246,17.6898912 189.435246,17.4841719 C189.611632,17.2788386 189.827,17.175786 190.081737,17.175786 C190.277421,17.175786 190.48314,17.2444877 190.699281,17.3815053 C191.600123,18.1260316 192.579702,18.6744877 193.637632,19.0268737 C194.695175,19.3796456 195.890123,19.5556456 197.222474,19.5556456 C198.906825,19.5556456 200.199807,19.243014 201.101035,18.6158211 C202.001877,17.989014 202.452684,17.1074702 202.452684,15.9708035 C202.452684,15.2656456 202.232298,14.6882421 201.791526,14.2374351 C201.350754,13.787014 200.797281,13.4292246 200.131491,13.1648386 C199.46493,12.9004526 198.554053,12.6021018 197.398474,12.269014 C195.948789,11.8571895 194.77314,11.455786 193.872298,11.0636456 C192.97107,10.6722772 192.202228,10.0894702 191.565772,9.31561053 C190.92893,8.54175088 190.610895,7.52782105 190.610895,6.27420702 C190.610895,5.09855789 190.923912,4.06610175 191.551105,3.17413684 C192.177912,2.28294386 193.074123,1.59747018 194.239737,1.11732982 C195.404965,0.637575439 196.762018,0.397505263 198.309351,0.397505263 C199.738965,0.397505263 201.071702,0.612873684 202.306018,1.04399649 C203.539947,1.4751193 204.568158,2.07259298 205.391035,2.83641754 C205.665456,3.09115439 205.802474,3.38487368 205.802474,3.71757544 C205.802474,4.0116807 205.70907,4.2614 205.523421,4.4671193 C205.337,4.6728386 205.106965,4.77550526 204.83293,4.77550526 C204.558509,4.77550526 204.284088,4.66820702 204.010053,4.45245263 C203.285211,3.82603158 202.427982,3.33122456 201.43914,2.96841754 C200.449526,2.60599649 199.397,2.42497895 198.280018,2.42497895 C196.595281,2.42497895 195.301912,2.75304912 194.40107,3.40918947 C193.499842,4.06610175 193.049421,4.98161053 193.049421,6.15687368 C193.049421,6.94038246 193.28486,7.57722456 193.754965,8.06662807 C194.22507,8.55641754 194.807877,8.94354035 195.503386,9.22761053 C196.198509,9.5116807 197.163807,9.84013684 198.397737,10.2114351 C199.808053,10.6232596 200.943947,11.015014 201.806193,11.3870842 C202.668053,11.7595404 203.397526,12.2979614 203.995386,13.0035053 C204.59286,13.7086632 204.891596,14.6392246 204.891596,15.7948035 C204.891596,17.5775754 204.201105,18.9882772 202.820123,20.0261368 C201.43914,21.0647684 199.553316,21.5835053 197.163807,21.5835053 C194.048684,21.5835053 191.580439,20.8297158 189.758684,19.3209789" id="Fill-9" fill="#4270B7"></path>
                <g id="Group-13" transform="translate(0.000000, 0.026516)">
                    <mask id="mask-2" fill="white">
                        <use xlink:href="#path-1"></use>
                    </mask>
                    <g id="Clip-12"></g>
                    <path d="M6.25911579,21.2333193 C6.04297544,21.0083018 5.94571228,20.7095649 5.96501053,20.3374947 L7.34599298,2.41945965 L1.05785263,2.41945965 C0.724764912,2.41945965 0.465010526,2.32682807 0.279361404,2.14002105 C0.092554386,1.95437193 -7.71929825e-05,1.71430175 -7.71929825e-05,1.42019649 C-7.71929825e-05,1.08749474 0.0979578947,0.828126316 0.29402807,0.641319298 C0.489712281,0.455670175 0.773782456,0.362652632 1.1462386,0.362652632 L16.2204842,0.362652632 C16.5732561,0.362652632 16.8372561,0.450266667 17.0136421,0.626652632 C17.1900281,0.803038596 17.278414,1.04812632 17.278414,1.36152982 C17.278414,2.06668772 16.8963088,2.41945965 16.1320982,2.41945965 L9.75595789,2.41945965 L8.37458947,20.4251088 C8.33522105,20.7589684 8.20283509,21.0326175 7.97781754,21.247986 C7.75241404,21.4637404 7.46371228,21.5714246 7.11132632,21.5714246 C6.75855439,21.5714246 6.47448421,21.4583368 6.25911579,21.2333193" id="Fill-11" fill="#64ACDE" mask="url(#mask-2)"></path>
                </g>
                <path d="M20.1576351,14.0825474 L29.3258456,14.0825474 L25.5352842,3.32454737 L20.1576351,14.0825474 Z M33.9388982,20.4293544 C33.9388982,20.763214 33.8215649,21.0372491 33.5865123,21.2522316 C33.3514596,21.4676 33.0770386,21.5756702 32.7636351,21.5756702 C32.2541614,21.5756702 31.9013895,21.3112842 31.7060912,20.7821263 L30.0310035,16.0806877 L19.1294246,16.0806877 L16.6905123,20.8998456 C16.572793,21.1156 16.4207228,21.2815649 16.2350737,21.3992842 C16.0486526,21.5170035 15.8576,21.5756702 15.6623018,21.5756702 C15.3681965,21.5756702 15.1084421,21.4726175 14.8834246,21.2668982 C14.6580211,21.0615649 14.5453193,20.8018105 14.5453193,20.488407 C14.5453193,20.2730386 14.5939509,20.0769684 14.6923719,19.9005825 L24.3009684,1.23840702 C24.437986,0.963985965 24.6340561,0.753249123 24.888793,0.606196491 C25.1431439,0.459529825 25.4175649,0.386196491 25.7116702,0.386196491 C26.0050035,0.386196491 26.274407,0.464547368 26.5194947,0.620863158 C26.7641965,0.777950877 26.9456,1.01338947 27.0633193,1.32640702 L33.8512842,19.9889684 C33.9095649,20.125986 33.9388982,20.2730386 33.9388982,20.4293544 Z" id="Fill-14" fill="#64ACDE"></path>
                <path d="M69.0447614,21.5979404 L53.9921298,21.5979404 C53.2943053,21.5979404 52.7234632,21.0270982 52.7234632,20.3292737 C52.7234632,19.6310632 53.2943053,19.060607 53.9921298,19.060607 L69.0447614,19.060607 C69.742586,19.060607 70.3134281,19.6310632 70.3134281,20.3292737 C70.3134281,21.0270982 69.742586,21.5979404 69.0447614,21.5979404" id="Fill-16" fill="#FEC72A"></path>
                <path d="M74.870786,2.92349123 L59.8571368,2.92349123 C59.1593123,2.92349123 58.5880842,2.35264912 58.5880842,1.65482456 C58.5880842,0.956614035 59.1593123,0.386157895 59.8571368,0.386157895 L74.870786,0.386157895 C75.5689965,0.386157895 76.1398386,0.956614035 76.1398386,1.65482456 C76.1398386,2.35264912 75.5689965,2.92349123 74.870786,2.92349123" id="Fill-18" fill="#FEC72A"></path>
                <path d="M71.977207,12.2605228 L56.9245754,12.2605228 C56.2267509,12.2605228 55.6559088,11.6896807 55.6559088,10.9918561 C55.6559088,10.2940316 56.2267509,9.72318947 56.9245754,9.72318947 L71.977207,9.72318947 C72.6750316,9.72318947 73.2458737,10.2940316 73.2458737,10.9918561 C73.2458737,11.6896807 72.6750316,12.2605228 71.977207,12.2605228" id="Fill-20" fill="#FEC72A"></path>
                <path d="M163.413954,21.5979404 L148.361323,21.5979404 C147.663498,21.5979404 147.092656,21.0270982 147.092656,20.3292737 C147.092656,19.6310632 147.663498,19.060607 148.361323,19.060607 L163.413954,19.060607 C164.111779,19.060607 164.682621,19.6310632 164.682621,20.3292737 C164.682621,21.0270982 164.111779,21.5979404 163.413954,21.5979404" id="Fill-22" fill="#F69246"></path>
                <path d="M169.239979,2.92349123 L154.22633,2.92349123 C153.528505,2.92349123 152.957277,2.35264912 152.957277,1.65482456 C152.957277,0.956614035 153.528505,0.386157895 154.22633,0.386157895 L169.239979,0.386157895 C169.938189,0.386157895 170.509032,0.956614035 170.509032,1.65482456 C170.509032,2.35264912 169.938189,2.92349123 169.239979,2.92349123" id="Fill-24" fill="#F69246"></path>
                <path d="M166.345975,12.2605228 L151.29373,12.2605228 C150.595905,12.2605228 150.025063,11.6896807 150.025063,10.9918561 C150.025063,10.2940316 150.595905,9.72318947 151.29373,9.72318947 L166.345975,9.72318947 C167.044186,9.72318947 167.615028,10.2940316 167.615028,10.9918561 C167.615028,11.6896807 167.044186,12.2605228 166.345975,12.2605228" id="Fill-26" fill="#F69246"></path>
                <g id="Group-30" transform="translate(37.052632, 0.026516)">
                    <mask id="mask-4" fill="white">
                        <use xlink:href="#path-3"></use>
                    </mask>
                    <g id="Clip-29"></g>
                    <path d="M0.467403509,21.238607 C0.262842105,21.0220807 0.180631579,20.7183263 0.22154386,20.3269579 L2.75733333,1.49958947 C2.77778947,1.14720351 2.90708772,0.868536842 3.14291228,0.663975439 C3.37873684,0.459414035 3.67322807,0.357905263 4.02561404,0.359449123 C4.39768421,0.360992982 4.686,0.475238596 4.8905614,0.701414035 C5.09550877,0.927589474 5.18659649,1.22671228 5.16575439,1.59801053 L2.72259649,19.5152737 L12.3180702,19.5581158 C12.6704561,19.5592737 12.9387018,19.6542211 13.1247368,19.8402561 C13.3092281,20.0274491 13.4014737,20.2675193 13.4003158,20.5612386 C13.3987719,20.8947123 13.2995789,21.1536947 13.1027368,21.3389579 C12.9066667,21.5242211 12.6218246,21.6156947 12.2497544,21.6141509 L1.36207018,21.5659053 C0.970315789,21.5639754 0.671964912,21.4555193 0.467403509,21.238607" id="Fill-28" fill="#64ACDE" mask="url(#mask-4)"></path>
                </g>
                <path d="M95.0702596,0.750933333 C95.2671018,0.982512281 95.3493123,1.27275789 95.3176632,1.62244211 L93.2099088,20.4687228 C93.1578035,20.8373193 93.0358386,21.1202316 92.844014,21.3182316 C92.6514175,21.5166175 92.3804702,21.6092491 92.030014,21.5968982 C91.5626105,21.5806877 91.2187158,21.3838456 90.9975579,21.0056 L80.7231719,4.78195088 L78.9234175,20.4988281 C78.8913825,20.8485123 78.764786,21.1217754 78.5432421,21.3190035 C78.3216982,21.5162316 78.0461193,21.6084772 77.7149614,21.5968982 C77.3838035,21.5853193 77.1198035,21.4641263 76.9225754,21.2329333 C76.7265053,21.0025123 76.6442947,20.7018456 76.6767158,20.3320912 L78.7821544,1.54293333 C78.8141895,1.17395088 78.9465754,0.886021053 79.1781544,0.678757895 C79.4093474,0.473038596 79.6903298,0.375003509 80.0218737,0.386968421 C80.4502947,0.402021053 80.7845404,0.599249123 81.0249965,0.977880702 L91.293207,17.1718105 L93.0701895,1.48542456 C93.1014526,1.13574035 93.2280491,0.862091228 93.4499789,0.665249123 C93.6711368,0.468407018 93.9474877,0.375389474 94.2786456,0.386968421 C94.6098035,0.398547368 94.8734175,0.520126316 95.0702596,0.750933333" id="Fill-31" fill="#64ACDE"></path>
            </g>
        </g>
    </g>
</svg>